<?xml version="1.0" encoding="utf-8"?><svg viewBox="0 0 263 48" xmlns="http://www.w3.org/2000/svg" xmlns:xlink="http://www.w3.org/1999/xlink"><style>:root>svg{display:none}:root>svg:target{display:block}</style><svg fill="none" viewBox="0 0 263 48" id="logo" xmlns="http://www.w3.org/2000/svg"><path d="M48 24c0 13.255-10.745 24-24 24S0 37.255 0 24 10.745 0 24 0s24 10.745 24 24z" fill="#F56200"/><path fill-rule="evenodd" clip-rule="evenodd" d="M14.76 9.339c-.303.074-.36.204-.36.816 0 .517.017.6.159.77.087.104.3.262.474.351.174.09.441.277.594.418.472.434.475.46.475 4.147v3.224l.18.044c.29.07 1.065.482 1.24.659.632.637.793.758.958.716.227-.057.227-.056.5-1.582.032-.181.105-.494.163-.694.057-.2.132-.57.167-.825.093-.68.125-.805.364-1.403.251-.63.481-.988.904-1.405.166-.163.301-.338.302-.388 0-.05.27-.37.602-.71.65-.67.646-.668 1.674-.88.335-.07.707-.189.828-.264.275-.172.788-.353 1.674-.59a15.999 15.999 0 001.407-.469c1.279-.503 1.763-.444 2.507.307l.357.36-.046.405c-.046.415-.186.776-.3.776-.034 0-.063.084-.063.186 0 .267-.143.438-.326.39-.15-.04-.328.075-.328.212 0 .04-.046.071-.1.071a.161.161 0 00-.139.1c-.02.054-.11.098-.197.098-.12 0-.178.051-.229.198-.038.11-.09.198-.117.198-.027 0-.082.075-.123.166-.041.09-.12.165-.174.165-.055 0-.1.029-.1.064 0 .124-.383.264-.685.25-.167-.007-.324.019-.35.057-.024.04-.126.09-.225.115-.099.025-.18.081-.18.126 0 .106-.39.477-.503.478-.047 0-.335.164-.64.364-.58.38-.63.462-.496.818.06.158.488.436.672.436.047 0 .195.06.33.132.134.073.284.132.333.132.113 0 .649.425.695.551.054.148.46.636.815.982.393.382.794.581 1.17.581.358 0 .539.124.485.332-.046.178.1.323.332.326.168.003.258.16.162.284a.853.853 0 00-.107.263c-.05.211-.4.463-.81.584-.4.117-.88-.009-1.718-.452-.81-.428-1.19-.57-2.029-.755-1.004-.223-1.07-.223-1.485-.011-.36.183-.871.72-.871.913 0 .046-.208.432-.462.858s-.49.839-.522.917c-.057.134-.178.333-.697 1.14-.248.386-.693.784-1.643 1.47-.88.635-1.51.97-2.122 1.128a7.684 7.684 0 00-.756.237c-.247.1-.278.136-.278.327v.214l.507.051a25.37 25.37 0 001.62.065c.622.007 1.234.048 1.388.092.295.085.674.365.674.5 0 .044.077.153.172.241.216.201.356.525.308.711-.05.19-.14.18-.364-.036-.137-.133-.283-.192-.56-.228a8 8 0 01-.716-.13c-.188-.046-.362-.063-.387-.038-.066.067.165.301.483.49.153.09.279.213.279.274 0 .06.077.226.173.368.326.485.418 1.095.18 1.187-.111.043-.26-.106-.481-.481-.095-.161-.21-.272-.281-.272-.252 0-.627-.26-.781-.544-.099-.18-.207-.29-.3-.303-.18-.026-.181.007-.016.352.1.209.14.459.165 1.061.036.854-.027 1.118-.265 1.118-.103 0-.147-.076-.219-.381-.054-.232-.16-.457-.269-.575-.145-.157-.185-.274-.213-.619-.018-.233-.081-.51-.14-.614a2.85 2.85 0 01-.166-.361c-.049-.137-.118-.182-.341-.218-.154-.025-.318-.077-.365-.116-.07-.058-.085.422-.085 2.633 0 3.102-.01 3.181-.473 3.628-.154.15-.437.356-.63.46-.541.29-.599.399-.599 1.123 0 .56.013.623.146.717.128.09.675.103 4.617.103h4.472l.16-.162c.143-.143.161-.22.161-.657 0-.273-.035-.574-.078-.67-.05-.108-.27-.286-.587-.47-.532-.31-.8-.572-.948-.929-.072-.172-.088-1.192-.088-5.367v-5.154h.245c.416.003 1.08.193 1.445.415.395.241.75.677 1.062 1.302.117.237 1.077 2.864 2.133 5.84 1.055 2.975 1.971 5.468 2.035 5.54.267.303.366.312 3.478.312 2.703 0 2.951-.01 3.08-.115.132-.108.14-.167.122-.842l-.019-.727-.522-.282c-.651-.352-.97-.661-1.214-1.177-.105-.221-.696-1.916-1.314-3.765-.617-1.85-1.204-3.547-1.304-3.771-.26-.584-.708-1.253-1.115-1.667-.618-.63-1.816-1.325-3.027-1.759-.28-.1-.487-.203-.458-.228.029-.025.318-.114.642-.198 2.966-.765 5.037-2.177 5.98-4.077.485-.977.725-2.417.598-3.586-.166-1.52-.668-2.602-1.67-3.6-1.717-1.712-4.494-2.631-8.672-2.872-1.133-.065-8.747-.083-9-.02z" fill="#F2F2F2"/><path d="M65.794 7.198h3.19c1.726 0 2.969.161 3.728.484.766.315 1.368.83 1.805 1.547.444.709.666 1.56.666 2.556 0 1.103-.29 2.02-.87 2.75-.573.73-1.354 1.24-2.342 1.526-.58.164-1.637.247-3.17.247V23h-3.007V7.198zm3.008 6.177h.956c.752 0 1.275-.054 1.568-.161.294-.108.523-.283.688-.527.172-.25.258-.55.258-.902 0-.609-.237-1.053-.71-1.332-.343-.208-.98-.311-1.912-.311h-.848v3.233zm18.05-2.063h2.921V23h-2.922v-1.235c-.573.544-1.15.938-1.73 1.181a4.855 4.855 0 01-1.868.355c-1.511 0-2.819-.584-3.921-1.751-1.103-1.175-1.655-2.632-1.655-4.372 0-1.805.534-3.284 1.6-4.437 1.068-1.153 2.364-1.73 3.89-1.73.701 0 1.36.133 1.976.398a5.393 5.393 0 011.708 1.193v-1.29zm-3.084 2.407c-.91 0-1.665.322-2.266.966-.602.638-.903 1.458-.903 2.46 0 1.01.305 1.841.913 2.493a2.997 2.997 0 002.267.977c.924 0 1.69-.318 2.299-.956.608-.644.913-1.486.913-2.524 0-1.017-.305-1.84-.913-2.47-.609-.631-1.379-.946-2.31-.946zm20.81-.043l-2.438 1.343c-.458-.48-.913-.813-1.364-1-.444-.186-.967-.279-1.569-.279-1.095 0-1.983.33-2.664.989-.673.651-1.01 1.49-1.01 2.513 0 .996.326 1.808.978 2.439.652.63 1.507.945 2.567.945 1.311 0 2.331-.448 3.062-1.343l2.309 1.58c-1.253 1.625-3.022 2.438-5.306 2.438-2.056 0-3.667-.609-4.834-1.826-1.16-1.218-1.74-2.643-1.74-4.276a6.01 6.01 0 01.848-3.126 5.998 5.998 0 012.364-2.245c1.016-.544 2.151-.816 3.405-.816 1.16 0 2.202.232 3.126.698a5.884 5.884 0 012.266 1.966zM110.564 23h-2.943V11.312h10.248V23h-2.943v-8.862h-4.362V23zm22.39-4.995h-9.421c.136.83.497 1.493 1.085 1.987.594.487 1.35.73 2.266.73a3.908 3.908 0 002.825-1.149l2.471 1.16c-.616.874-1.353 1.522-2.213 1.945-.859.415-1.88.623-3.061.623-1.834 0-3.327-.577-4.48-1.73-1.153-1.16-1.729-2.61-1.729-4.35 0-1.784.573-3.262 1.718-4.437 1.153-1.182 2.596-1.772 4.33-1.772 1.84 0 3.337.59 4.49 1.772 1.153 1.175 1.729 2.729 1.729 4.662l-.01.559zm-2.944-2.31a2.93 2.93 0 00-1.149-1.59c-.566-.408-1.225-.612-1.977-.612-.816 0-1.532.23-2.148.688-.387.286-.745.791-1.074 1.514h6.348zm12.066 2.664h-2.352c-1.59 0-2.815-.304-3.674-.913-.852-.616-1.279-1.625-1.279-3.029v-3.104h2.944v2.878c0 1.024.684 1.536 2.052 1.536l1.138-.01h1.171v-4.405h2.944V23h-2.944v-4.64zm14.945-7.047h2.922V23h-2.922v-1.235c-.573.544-1.149.938-1.729 1.181a4.856 4.856 0 01-1.87.355c-1.511 0-2.818-.584-3.92-1.751-1.103-1.175-1.655-2.632-1.655-4.372 0-1.805.534-3.284 1.601-4.437 1.067-1.153 2.363-1.73 3.889-1.73.701 0 1.36.133 1.976.398a5.393 5.393 0 011.708 1.193v-1.29zm-3.083 2.407c-.909 0-1.665.322-2.267.966-.601.638-.902 1.458-.902 2.46 0 1.01.305 1.841.913 2.493a2.999 2.999 0 002.267.977c.924 0 1.69-.318 2.299-.956.608-.644.913-1.486.913-2.524 0-1.017-.305-1.84-.913-2.47-.609-.631-1.379-.946-2.31-.946zm8.328-2.406h10.892v2.792h-3.878V23h-2.943v-8.895h-4.071v-2.793zm18.705-.301c1.102 0 2.137.275 3.104.827a5.961 5.961 0 012.277 2.245c.545.945.817 1.966.817 3.061a6.112 6.112 0 01-.827 3.094 5.932 5.932 0 01-2.235 2.256c-.945.537-1.987.806-3.126.806-1.676 0-3.108-.595-4.297-1.783-1.181-1.196-1.772-2.647-1.772-4.351 0-1.826.67-3.348 2.009-4.565 1.174-1.06 2.524-1.59 4.05-1.59zm.042 2.76c-.909 0-1.668.32-2.277.957-.601.63-.902 1.439-.902 2.427 0 1.017.297 1.84.891 2.471.602.63 1.361.945 2.278.945.916 0 1.679-.318 2.288-.956.609-.637.913-1.457.913-2.46 0-1.002-.301-1.815-.902-2.438-.595-.63-1.358-.945-2.289-.945zm11.873-2.46v1.29a5.515 5.515 0 011.719-1.193 4.948 4.948 0 011.976-.397c1.526 0 2.822.576 3.889 1.73 1.067 1.152 1.601 2.631 1.601 4.436 0 1.74-.552 3.197-1.655 4.372-1.102 1.167-2.409 1.75-3.92 1.75-.674 0-1.3-.117-1.88-.354-.58-.243-1.157-.637-1.73-1.181v5.51h-2.911V11.313h2.911zm3.083 2.407c-.924 0-1.69.315-2.299.945-.608.63-.913 1.454-.913 2.47 0 1.04.305 1.88.913 2.525.609.638 1.375.956 2.299.956.895 0 1.647-.326 2.256-.977.616-.652.924-1.483.924-2.493 0-1.002-.301-1.822-.903-2.46-.601-.644-1.36-.966-2.277-.966z" fill="#F2F2F2"/><path d="M65.043 44v-8.62h4.318v.85h-3.468v2.754h.404c1.074 0 1.853.096 2.338.288.488.187.87.486 1.148.896.281.406.422.86.422 1.36 0 .656-.246 1.232-.738 1.728S68.289 44 67.41 44h-2.367zm.85-4.148v3.304h1.06c.629 0 1.09-.06 1.383-.181.293-.125.525-.315.697-.569.176-.258.264-.545.264-.861 0-.398-.123-.736-.37-1.014a1.726 1.726 0 00-.92-.545c-.366-.09-.911-.134-1.634-.134h-.48zm9.317-2.391c.981 0 1.794.355 2.438 1.066a3.32 3.32 0 01.879 2.303c0 .89-.31 1.67-.932 2.338-.617.664-1.412.996-2.385.996-.976 0-1.775-.332-2.396-.996-.617-.668-.926-1.447-.926-2.338 0-.883.293-1.648.88-2.297.644-.715 1.458-1.072 2.442-1.072zm0 .803c-.68 0-1.263.252-1.751.755a2.531 2.531 0 00-.733 1.829c0 .46.112.89.334 1.289.223.398.524.707.903.925.378.215.794.323 1.248.323.453 0 .869-.108 1.248-.322a2.39 2.39 0 00.902-.926c.223-.399.334-.828.334-1.29a2.52 2.52 0 00-.738-1.828c-.489-.503-1.07-.755-1.746-.755zM85.853 44h-.873l-2.133-4.64L80.732 44h-.88l2.919-6.375h.146L85.853 44zm2.474-3.85h.78c.62 0 1.107.05 1.458.147.352.098.654.314.908.65.254.332.381.715.381 1.149 0 .523-.183.972-.55 1.347-.368.372-.924.557-1.67.557h-2.121v-6.375h.814v2.525zm.03.75v2.409h.943c1.109 0 1.664-.391 1.664-1.172 0-.223-.06-.442-.182-.657a.955.955 0 00-.522-.45c-.226-.087-.628-.13-1.207-.13h-.697zM103.1 44h-9.527v-6.375h.826v5.602h3.51v-5.602h.837v5.602h3.516v-5.602h.838V44zm7.595-2.115l.692.363c-.227.445-.489.805-.785 1.078a3.163 3.163 0 01-1.002.627c-.371.14-.791.211-1.26.211-1.039 0-1.852-.34-2.438-1.02-.586-.683-.879-1.454-.879-2.314 0-.808.248-1.53.745-2.162.628-.805 1.47-1.207 2.525-1.207 1.086 0 1.953.412 2.602 1.236.46.582.695 1.309.703 2.18h-5.731c.016.742.252 1.351.709 1.828a2.263 2.263 0 001.694.71c.324 0 .638-.058.943-.17.308-.114.57-.264.785-.452.215-.188.447-.49.697-.908zm0-1.717c-.109-.438-.269-.787-.48-1.049a2.239 2.239 0 00-.826-.633 2.538 2.538 0 00-1.084-.24c-.625 0-1.162.201-1.612.604-.328.293-.576.732-.744 1.318h4.746zm9.419.955h-1.441c-.652 0-1.137-.168-1.453-.504-.313-.336-.469-.803-.469-1.4v-1.594h.803v1.154c0 .742.105 1.203.316 1.383.211.176.559.264 1.043.264h1.201v-2.801h.815V44h-.815v-2.877zm8.41.762l.692.363c-.227.445-.489.805-.786 1.078-.296.274-.63.483-1.001.627-.372.14-.791.211-1.26.211-1.039 0-1.852-.34-2.438-1.02-.586-.683-.879-1.454-.879-2.314 0-.808.248-1.53.744-2.162.629-.805 1.471-1.207 2.526-1.207 1.086 0 1.953.412 2.601 1.236.461.582.696 1.309.704 2.18h-5.731c.016.742.252 1.351.709 1.828a2.263 2.263 0 001.693.71c.325 0 .639-.058.944-.17.308-.114.57-.264.785-.452.215-.188.447-.49.697-.908zm0-1.717c-.109-.438-.269-.787-.48-1.049a2.239 2.239 0 00-.826-.633 2.538 2.538 0 00-1.084-.24c-.625 0-1.163.201-1.612.604-.328.293-.576.732-.744 1.318h4.746zm9.758-2.543h.234L140.678 44h-.855l-1.577-4.693L135.797 44h-.152l-2.455-4.693L131.62 44h-.856l2.174-6.375h.223l2.566 4.986 2.555-4.986zm7.755 0h5.349V44h-.82v-5.602h-3.709V44h-.82v-6.375zm7.595 0h.814v1.172c.325-.445.698-.78 1.12-1.002a2.977 2.977 0 011.412-.334c.906 0 1.681.326 2.326.979.644.652.967 1.437.967 2.355 0 .937-.321 1.734-.961 2.39-.637.653-1.406.98-2.309.98a3.11 3.11 0 01-1.4-.317 3.53 3.53 0 01-1.155-.944v3.428h-.814v-8.707zm3.281.627c-.711 0-1.31.248-1.799.744-.484.496-.726 1.113-.726 1.852 0 .484.107.92.322 1.306.219.387.529.694.932.92.406.227.834.34 1.283.34.441 0 .855-.113 1.242-.34.391-.23.701-.55.932-.96a2.6 2.6 0 00.346-1.29c0-.453-.116-.883-.346-1.289a2.43 2.43 0 00-.92-.943 2.461 2.461 0 00-1.266-.34zm8.316-.791c.981 0 1.793.355 2.438 1.066a3.32 3.32 0 01.879 2.303c0 .89-.311 1.67-.932 2.338-.617.664-1.412.996-2.385.996-.976 0-1.775-.332-2.396-.996-.617-.668-.926-1.447-.926-2.338 0-.883.293-1.648.879-2.297.644-.715 1.459-1.072 2.443-1.072zm0 .803c-.679 0-1.263.252-1.752.755a2.532 2.532 0 00-.732 1.829c0 .46.111.89.334 1.289.223.398.523.707.902.925.379.215.795.323 1.248.323.453 0 .869-.108 1.248-.322.379-.22.68-.528.903-.926.222-.399.334-.828.334-1.29 0-.714-.246-1.324-.739-1.828-.488-.503-1.07-.755-1.746-.755zm11.433.685l-.65.404c-.562-.746-1.33-1.119-2.303-1.119-.777 0-1.423.25-1.939.75a2.452 2.452 0 00-.768 1.823c0 .465.118.902.352 1.312.238.41.562.729.973.955.414.227.877.34 1.388.34.938 0 1.703-.373 2.297-1.12l.65.429a3.076 3.076 0 01-1.23 1.066c-.512.25-1.096.375-1.752.375-1.008 0-1.844-.32-2.508-.96a3.126 3.126 0 01-.996-2.339c0-.617.154-1.19.463-1.717a3.3 3.3 0 011.283-1.242 3.739 3.739 0 011.823-.445c.421 0 .828.064 1.218.193a3.38 3.38 0 011.002.504c.274.207.506.47.697.791zm1.268-1.324h4.195v.709h-1.687V44h-.827v-5.666h-1.681v-.709zm8.726-.164c.98 0 1.793.355 2.437 1.066a3.32 3.32 0 01.879 2.303c0 .89-.31 1.67-.931 2.338-.618.664-1.412.996-2.385.996-.977 0-1.776-.332-2.397-.996-.617-.668-.925-1.447-.925-2.338 0-.883.293-1.648.879-2.297.644-.715 1.458-1.072 2.443-1.072zm0 .803c-.68 0-1.264.252-1.752.755a2.533 2.533 0 00-.733 1.829c0 .46.112.89.334 1.289.223.398.524.707.903.925.379.215.795.323 1.248.323.453 0 .869-.108 1.248-.322.379-.22.68-.528.902-.926.223-.399.334-.828.334-1.29 0-.714-.246-1.324-.738-1.828-.488-.503-1.07-.755-1.746-.755zm8.974-.639h.826v2.684l2.947-2.684h1.143l-3.229 2.918L200.804 44h-1.161l-2.929-2.947-.258.228V44h-.826v-6.375zm9.441-.164c.98 0 1.793.355 2.437 1.066a3.32 3.32 0 01.879 2.303c0 .89-.31 1.67-.932 2.338-.617.664-1.412.996-2.384.996-.977 0-1.776-.332-2.397-.996-.617-.668-.926-1.447-.926-2.338 0-.883.293-1.648.879-2.297.645-.715 1.459-1.072 2.444-1.072zm0 .803c-.68 0-1.264.252-1.752.755a2.529 2.529 0 00-.733 1.829c0 .46.112.89.334 1.289.223.398.524.707.903.925.379.215.795.323 1.248.323.453 0 .869-.108 1.248-.322.379-.22.679-.528.902-.926.223-.399.334-.828.334-1.29 0-.714-.246-1.324-.738-1.828-.488-.503-1.071-.755-1.746-.755zm5.245-.639h5.35V44h-.82v-5.602h-3.709V44h-.821v-6.375zm8.404 0v4.717l4.682-4.717h.064V44h-.82v-4.676L218 44h-.1v-6.375h.82zM231.654 44h-5.959v-6.375h.826v5.602h3.703v-5.602h.826v5.602h1.377v1.78h-.773V44zm7.648-2.115l.691.363c-.227.445-.488.805-.785 1.078a3.163 3.163 0 01-1.002.627c-.371.14-.791.211-1.26.211-1.039 0-1.851-.34-2.437-1.02-.586-.683-.879-1.454-.879-2.314 0-.808.248-1.53.744-2.162.629-.805 1.471-1.207 2.525-1.207 1.086 0 1.953.412 2.602 1.236.461.582.695 1.309.703 2.18h-5.731c.016.742.252 1.351.709 1.828a2.263 2.263 0 001.694.71c.324 0 .638-.058.943-.17.309-.114.57-.264.785-.452.215-.188.448-.49.698-.908zm0-1.717c-.11-.438-.27-.787-.481-1.049a2.23 2.23 0 00-.826-.633 2.538 2.538 0 00-1.084-.24c-.625 0-1.162.201-1.611.604-.329.293-.577.732-.745 1.318h4.747zm7.366.762h-3.703V44h-.826v-6.375h.826v2.531h3.703v-2.531h.821V44h-.821v-3.07zm2.34-3.305h4.195v.709h-1.687V44h-.827v-5.666h-1.681v-.709zm5.72 0h.815v1.172c.324-.445.697-.78 1.119-1.002a2.977 2.977 0 011.412-.334c.906 0 1.681.326 2.326.979.645.652.967 1.437.967 2.355 0 .937-.321 1.734-.961 2.39-.637.653-1.406.98-2.309.98a3.11 3.11 0 01-1.4-.317 3.516 3.516 0 01-1.154-.944v3.428h-.815v-8.707zm3.281.627c-.711 0-1.31.248-1.798.744-.485.496-.727 1.113-.727 1.852 0 .484.107.92.322 1.306.219.387.53.694.932.92.406.227.834.34 1.283.34.441 0 .856-.113 1.242-.34.391-.23.701-.55.932-.96a2.6 2.6 0 00.346-1.29c0-.453-.116-.883-.346-1.289a2.43 2.43 0 00-.92-.943 2.461 2.461 0 00-1.266-.34z" fill="#B3B3B3"/></svg><svg fill="none" viewBox="0 0 40 40" id="telegram" xmlns="http://www.w3.org/2000/svg"><path fill-rule="evenodd" clip-rule="evenodd" d="M18.542 11.075C10.75 14.381 4.14 17.401 3.854 17.788c-.626.847-.668 1.992-.11 3.033.225.422 2.066 1.453 4.09 2.292l3.679 1.525 1.11 3.41c1.962 6.024 3.07 6.575 6.802 3.386l2.223-1.899 2.91 2.732C26.736 34.314 27.765 35 28.655 35c1.355 0 2.897-1.251 3.222-2.616.801-3.363 4.79-23.98 4.79-24.759 0-1.315-1.429-2.632-2.813-2.592-.63.019-7.52 2.737-15.312 6.042zm1.906 2.948c-6.743 2.832-12.329 5.22-12.413 5.304-.085.084 1.08.648 2.589 1.251l2.743 1.099 7.302-4.214c4.017-2.318 7.421-4.095 7.567-3.95.146.147-2.01 2.556-4.79 5.355-4.71 4.742-5.099 5.257-5.68 7.524-.698 2.724-.948 2.731 2.365-.07l1.59-1.344 3.375 3.136c1.857 1.725 3.42 3.09 3.474 3.032.227-.241 4.39-21.635 4.27-21.94-.072-.184-5.649 1.984-12.392 4.817z" fill="#08C"/></svg><svg fill="none" viewBox="0 0 40 40" id="vk" xmlns="http://www.w3.org/2000/svg"><path fill-rule="evenodd" clip-rule="evenodd" d="M14.792 4.183C9.987 5.723 5.674 10.088 4.16 14.94c-4.022 12.888 8.012 24.922 20.9 20.9 4.925-1.537 9.243-5.855 10.78-10.78C39.875 12.132 27.688.044 14.792 4.183zM10.22 14.564c-.622 1.007 1.802 6.471 3.962 8.931 1.548 1.764 4.538 3.278 6.114 3.097 1.069-.123 1.173-.293 1.29-2.113.08-1.264.319-1.979.66-1.979.293 0 1.42.938 2.505 2.083 1.608 1.699 2.232 2.084 3.378 2.084 1.843 0 2.17-.638 1.087-2.123l-1.761-2.416-.879-1.205 1.748-2.943c.962-1.618 1.627-3.138 1.48-3.378-.149-.24-.924-.435-1.723-.435-1.195 0-1.58.23-2.163 1.291C24.57 17.91 22.91 20 22.308 20c-.455 0-.633-.692-.726-2.813l-.124-2.812-2.449-.127c-2.231-.115-2.418-.06-2.106.625.189.414.417 1.945.507 3.403.22 3.545-.468 3.303-2.544-.892-1.514-3.06-1.66-3.217-2.996-3.217-.772 0-1.515.178-1.65.397z" fill="#597DA3"/></svg><svg fill="none" viewBox="0 0 40 40" id="whatsapp" xmlns="http://www.w3.org/2000/svg"><path fill-rule="evenodd" clip-rule="evenodd" d="M14.825 4.21c-4.673 1.607-7.78 4.437-9.99 9.104C3.665 15.78 3.543 16.42 3.556 20c.012 3.234.194 4.361.995 6.16l.98 2.2-1.086 4.027c-.598 2.215-1.026 4.087-.952 4.161.074.074 2.04-.326 4.367-.89l4.232-1.024 1.975.902c1.575.72 2.775.904 5.933.912 3.575.01 4.223-.115 6.686-1.283 4.708-2.23 7.523-5.342 9.12-10.082C40.077 12.403 27.47-.14 14.825 4.209zm-2.294 9.388c-1.753 2.227-.74 5.621 2.806 9.413 2.264 2.42 4.53 3.829 7.259 4.509 2.268.565 3.745.306 4.915-.864 1.47-1.47 1.075-2.645-1.252-3.735l-2.075-.972-.872 1.109c-.48.61-1.108 1.109-1.396 1.109-.948 0-4.19-2.44-5.159-3.884-.928-1.382-.933-1.449-.216-2.698.713-1.243.708-1.337-.19-3.183-1.104-2.275-2.443-2.556-3.82-.804z" fill="#43D854"/></svg></svg>