<?xml version="1.0" encoding="utf-8"?><svg viewBox="0 0 263 48" xmlns="http://www.w3.org/2000/svg" xmlns:xlink="http://www.w3.org/1999/xlink"><style>:root>svg{display:none}:root>svg:target{display:block}</style><svg fill="none" viewBox="0 0 40 40" id="dino-1" xmlns="http://www.w3.org/2000/svg"><path fill-rule="evenodd" clip-rule="evenodd" d="M28.746 2.386c-1.347.245-2.79.9-3.834 1.743-2.578 2.082-5.341 3.925-6.543 4.363-.271.098-.555.125-1.142.106-2.283-.072-2.863-.044-3.418.166a5.729 5.729 0 00-2.693 2.138 23.24 23.24 0 01-.883 1.168c-.596.74-.854 1.199-.856 1.524-.004.58.365 1.183.846 1.384.494.206 1.465.249 3.26.143 1.975-.117 2.288-.2 3.044-.807.256-.206.64-.622.856-.924.309-.435.464-.58.742-.692a64.547 64.547 0 002.07-.985c1.806-.885 2.762-1.48 4.61-2.87 2.364-1.777 4.949-2.587 6.925-2.168.933.198 1.334.515 1.67 1.324.18.433.164 1.284-.034 1.73-.24.543-.432.774-1.126 1.353-1.564 1.302-1.685 1.342-4.193 1.385-3.192.054-4.896.265-6.569.812-2.394.783-4.35 2.063-6.41 4.197-1.897 1.961-2.474 2.516-3.096 2.976-.837.618-1.861 1.192-2.984 1.672-2.59 1.106-4.668 2.606-5.926 4.275-.888 1.178-1.6 2.828-1.857 4.307-.484 2.773.75 5.326 3.13 6.484.83.403 1.463.542 2.476.543a7.6 7.6 0 003.694-.97c.507-.284.611-.435.502-.728-.08-.215-.187-.236-1.476-.284-2.403-.09-3.802-.874-4.323-2.425-.27-.801-.111-1.989.356-2.67.286-.418 1.347-.875 2.443-1.051.529-.086 2.734-.062 2.826.03.015.015-.012.217-.059.45s-.1 1.028-.115 1.767c-.03 1.368-.067 1.562-.396 2.068-.113.173-.12.246-.045.41.075.165.145.201.392.201.363 0 1.316-.314 1.784-.588.28-.164.34-.24.34-.429a.39.39 0 00-.188-.353c-.178-.116-.216-.11-.654.112l-.466.235.028-.68c.016-.374.043-1.084.061-1.578.018-.494.073-1.078.122-1.299l.09-.4.596-.096c.328-.053.634-.11.68-.128.055-.021.086.25.092.809.008.663.053.986.215 1.525.238.794.253 1.14.08 1.804-.188.721-.12 1.965.144 2.611.275.676.69 1.349.89 1.441.28.13.454-.046.757-.763.4-.946.943-1.83 1.538-2.509 1.018-1.162 1.252-1.471 1.553-2.052.41-.793.7-1.75.81-2.672l.092-.76.51-.089c1.394-.24 3.202-.81 4.834-1.524 1.174-.513 1.37-.685 1.153-1.015-.07-.108-.2-.195-.287-.195-.087 0-.605.197-1.15.439-1.224.541-2.754 1.058-3.902 1.317-1.24.28-1.16.307-1.216-.409a10.04 10.04 0 00-.095-.84l-.048-.234.775-.261a13.522 13.522 0 003.034-1.475c1.577-1.01 2.506-1.446 3.585-1.687.614-.137 1.524-.25 1.524-.19 0 .021-.088.236-.194.477a10.57 10.57 0 00-.394 1.162c-.298 1.081-.487 1.502-1.059 2.364-.815 1.226-1.134 1.986-1.447 3.438a5.436 5.436 0 01-.437 1.2c-.287.545-.297.587-.181.762.167.256.412.24 1.422-.09 3.128-1.023 5.701-3.047 6.899-5.426a9.17 9.17 0 00.989-3.667l.052-.814.593-.733.593-.733.05.57c.063.686-.04 2.073-.215 2.923-.172.831-.517 1.789-.973 2.697-.501 1-.951 2.09-1.245 3.02-.132.418-.257.81-.279.87-.052.148-.465-.243-.662-.627-.157-.306-.336-.394-.598-.297-.261.097-.29.342-.09.744.234.467.994 1.17 1.396 1.29.41.123.565-.014.697-.616.2-.907.738-2.359 1.37-3.69 1.004-2.116 1.344-3.352 1.425-5.177.027-.598.006-1.323-.052-1.813l-.097-.816.876-1.312c.99-1.485 1.793-3.052 2.024-3.954.14-.544.21-.948.479-2.748.107-.718.086-2.185-.044-2.983-.545-3.362-2.749-5.488-6.425-6.197-.962-.186-2.695-.203-3.618-.036zm.942.705l-.743.122c-1.401.227-2.525.774-4.03 1.962-2.772 2.188-5.307 3.815-6.472 4.155-.502.146-1.357.158-2.253.033a4.503 4.503 0 00-3.444.945c-.23.183-.634.632-.898.999-.264.366-.736.986-1.047 1.378-.464.585-.566.764-.566.993 0 .36.285.647.644.644.14 0 1.133-.027 2.207-.059 1.94-.057 1.956-.06 2.43-.285.525-.25 1.047-.754 1.396-1.35.195-.333.223-.463.233-1.066.01-.74.093-.937.394-.937.268 0 .387.208.43.754l.039.497 1.797-.891c2.581-1.28 4.376-2.523 6.021-4.167 1.332-1.332 2.545-2.089 3.99-2.49.665-.184 2.126-.229 2.802-.085 2.064.437 4.067 1.896 5.05 3.677.264.481.27.457.059-.236-.305-.994-.742-1.723-1.472-2.457-1.002-1.005-2.024-1.538-3.667-1.913-.791-.181-2.418-.306-2.9-.223zm.924 1.906c-.907.165-2.207.71-2.8 1.173-.179.14-.147.137.391-.033 1.235-.39 2.909-.455 4.024-.156 1.636.438 2.789 1.632 3.203 3.317.17.693.24 2.67.123 3.554-.26 1.982-1.08 4.011-2.19 5.416l-.318.402.117.49c.064.268.161.746.216 1.061l.099.573.703-.91c1.055-1.364 2.25-3.176 2.731-4.142 2.002-4.013.774-8.305-2.902-10.145-1.043-.523-2.457-.772-3.397-.6zm3.734 4.212c-.138 1.014-.538 1.635-1.64 2.553-.92.766-1.19 1.152-1.5 2.144-.319 1.025-.314 1.016-.578 1.016a.39.39 0 01-.354-.183c-.11-.168-.103-.24.08-.87.109-.378.184-.7.167-.718-.018-.017-.186.004-.374.047-.188.044-.979.08-1.757.081-.777.001-1.635.025-1.905.053l-.49.052.042.827c.023.456.105 1.185.182 1.622.118.672.123.814.033.922-.161.195-.566.127-.678-.114-.144-.31-.333-1.608-.357-2.45l-.022-.769-.625.052c-1.271.105-2.927.531-4 1.03l-.478.223.154.585c.52 1.972 1.4 3.729 2.478 4.946.42.477.482.666.278.87-.233.232-.468.146-.892-.327-1.138-1.268-2.222-3.407-2.654-5.235-.053-.225-.134-.41-.18-.41-.153 0-1.578 1.002-2.245 1.58-.459.397-.671.636-.687.773-.052.441.707 2.39 1.23 3.155.213.313.203.554-.03.707-.15.098-.225.106-.355.036-.35-.188-1.09-1.582-1.416-2.675a7.195 7.195 0 00-.195-.597c-.014-.016-.21.177-.436.43-.226.252-.745.802-1.152 1.222l-.741.763.29.565c.158.31.357.683.44.827.185.321.117.565-.188.674-.193.069-.24.05-.433-.183-.12-.142-.335-.5-.479-.794-.144-.295-.283-.538-.309-.54-.025-.003-.341.193-.703.435-.622.418-1.904 1.09-2.63 1.38l-.334.133.168.332c.093.183.304.503.47.713.167.21.303.43.303.489 0 .148-.286.419-.442.419-.184 0-.666-.532-.968-1.067-.14-.251-.265-.468-.275-.481-.068-.092-1.95 1.055-2.622 1.6l-.284.228.157.31c.086.17.275.455.42.634.394.486.332.885-.137.885-.221 0-.575-.364-.893-.918-.08-.14-.17-.253-.2-.253-.102 0-.84.861-1.198 1.4-.366.551-.865 1.556-.914 1.842-.02.117.056.198.31.326.184.093.386.212.448.263.177.146.137.446-.077.587-.177.116-.216.113-.557-.038a2.783 2.783 0 00-.422-.162c-.053 0-.171.612-.276 1.422-.026.202-.008.66.041 1.016.232 1.694 1.211 3.082 2.693 3.818 1.133.562 2.238.664 3.634.336l.585-.137-.351-.072c-2.135-.432-3.222-1.111-3.86-2.41-.577-1.178-.58-2.376-.005-3.509.786-1.55 2.215-2.892 3.782-3.552 1.106-.465 1.75-.573 4.434-.74.74-.047 1.52-.105 1.735-.13.381-.046.393-.056.511-.402.067-.195.121-.414.121-.485 0-.173.247-.39.444-.39.086 0 .221.071.3.158.135.15.135.177.006.643a5.389 5.389 0 01-1.05 1.942c-.542.615-.684.842-.865 1.38-.196.582-.215 1.437-.045 2.052.386 1.394.392 1.47.194 2.484-.201 1.034-.167 1.6.137 2.29l.15.34.298-.585c.422-.834.8-1.366 1.652-2.322.596-.668.823-.996 1.126-1.621.448-.926.588-1.429.712-2.563.113-1.03.008-2.292-.287-3.446-.182-.71-.188-.787-.077-.957.237-.36.687-.134.786.396.062.329.08.327 1.154-.082a13.337 13.337 0 002.671-1.379c1.834-1.199 3.244-1.728 4.952-1.856l.906-.069.231-.296c.402-.517 1.107-1.196 1.241-1.196.163 0 .442.273.442.432 0 .066-.203.338-.453.606-.928.999-1.32 1.72-1.783 3.282-.315 1.065-.66 1.81-1.174 2.534-.558.787-.946 1.69-1.238 2.877-.146.596-.253 1.097-.238 1.112.044.044 1.038-.367 1.8-.745 4.784-2.372 6.487-6.635 4.839-12.106-.158-.525-.266-1.009-.24-1.076.065-.17.37-.273.544-.182.078.041.205.222.281.401l.14.326.352-.547c.949-1.468 1.461-2.988 1.62-4.805.093-1.056 0-2.395-.216-3.092l-.142-.462-.058.42zm-20.341 1.63c-.275.137-.372.323-.294.567.075.236.41.285.737.11.318-.17.407-.478.2-.686-.157-.156-.316-.154-.643.01zm16.118 5.065c-.172.171-.153.529.035.7.21.19.552.079.654-.213.153-.435-.371-.805-.69-.487zm-3.857 2.002c-.261.261.061 1 .436 1 .423 0 .536-.374.252-.84-.116-.19-.21-.253-.375-.253-.12 0-.262.042-.313.093zm-11.891 5.219c-.206.206-.197.357.036.59.228.227.439.244.616.048.188-.207.159-.447-.077-.632-.257-.203-.377-.204-.575-.006zm-.352 3.955a60.92 60.92 0 01-1.914.142c-1.99.129-2.644.263-3.628.742-.544.266-1.562.934-1.507.99.01.01.23-.035.488-.1.347-.087 1-.122 2.538-.136 1.577-.013 2.2-.048 2.617-.144.75-.173.81-.202.942-.457.063-.123.273-.417.466-.655.194-.237.307-.426.253-.42a4.785 4.785 0 00-.255.038z" fill="#F56200"/></svg><svg fill="none" viewBox="0 0 40 40" id="dino-2" xmlns="http://www.w3.org/2000/svg"><path fill-rule="evenodd" clip-rule="evenodd" d="M32.187 3.055c-.236.032-.728.115-1.093.185-.94.18-2.62.238-3.477.12-1.132-.157-1.797-.182-2.106-.08-.386.127-1.134.838-1.403 1.331-.405.744-.556 1.664-.314 1.907.25.25.659.062.659-.302 0-.177.004-.178.352-.063.307.101.351.143.351.339 0 .152.063.264.196.351.18.119.21.119.39 0 .107-.07.195-.202.195-.292 0-.131.035-.154.176-.116.097.026.22.048.274.048.056 0 .097.1.097.234 0 .162.06.271.196.36.178.118.21.118.384.004.104-.068.21-.189.236-.268.034-.11.102-.137.279-.11.193.027.233.07.233.243 0 .271.132.398.413.398.18 0 .244-.049.314-.235.077-.203.128-.234.382-.234.246 0 .313.037.413.23.14.272.152.59.033.93-.103.297-.194.309-.397.05-.084-.107-.216-.194-.292-.194-.194 0-.397.248-.397.486 0 .193-.124.295-.358.295a.108.108 0 01-.11-.105c0-.136-.252-.364-.402-.364-.209 0-.413.213-.422.44-.008.19-.046.228-.248.248-.204.02-.25-.01-.32-.209a.66.66 0 00-.248-.322c-.244-.13-.548.083-.548.383 0 .183-.04.23-.215.26-.118.02-.268.06-.334.09-.084.036-.145-.018-.207-.182-.118-.314-.446-.4-.671-.175-.15.15-.155.189-.062.498.168.56.619 1.383.966 1.76.18.197.503.44.718.54.385.179.415.18 2.305.132 1.905-.048 3.15.001 3.364.134.088.054.113.278.113 1.03 0 1.127-.11 1.448-.708 2.088-.725.776-1.628 1.008-3.343.863-1.043-.09-1.646-.21-2.942-.588-1.898-.553-3.1-.698-5.309-.64-1.769.046-2.813.169-4.808.563-2.021.399-2.199.427-3.153.511-.984.087-1.98.003-2.536-.212-.943-.365-1.753-1.136-1.977-1.88-.132-.437-.139-1.185-.015-1.597.216-.724 1.151-1.399 2.088-1.508.944-.11 1.792.202 3.343 1.225 1.066.704 1.786 1.047 2.526 1.205 2.227.473 3.97-.959 3.804-3.125-.072-.94-.561-1.923-.957-1.923-.244 0-.396.246-.457.743-.067.534-.45 1.294-.74 1.465-.612.36-1.014.128-2.473-1.433-1.624-1.738-3.913-2.614-6.132-2.345-.953.116-1.432.252-2.149.613-1.888.95-3.175 2.48-3.709 4.406-.523 1.888-.28 4.31.615 6.122 1.081 2.19 3.055 3.532 7 4.762l1.786.557c.782.243 1.713.707 3.306 1.645 1.192.703 1.26.756 1.185.921-.133.293-.448.41-1.238.465-1.22.083-2.09.355-2.773.866-.428.32-.886.51-1.41.583-.585.083-.93.281-1.214.696-.18.26-.191.354-.24 1.882-.058 1.86-.258 2.967-.643 3.559-.197.304-.376.992-.376 1.447 0 .935.468 1.703 1.247 2.048.52.23 1.356.21 2.332-.057.962-.262 1.818-.254 2.38.021.195.096.426.175.511.175.562 0 .408-.955-.282-1.738-.406-.462-.949-.74-1.648-.845-.319-.048-.664-.128-.767-.178-.302-.146-.5-.478-.508-.849-.007-.316.011-.344.305-.492.462-.23 1.3-.22 1.539.02l.176.176h-.293c-.357 0-.82.183-.884.348-.078.201.038.497.216.554.092.03.3.009.463-.045.272-.09.33-.08.69.108.49.257.595.258.758.01.095-.146.117-.29.082-.548a1.904 1.904 0 00-1.593-1.644c-.27-.043-1.013.06-1.34.184-.087.034-.099-.005-.054-.185.214-.869.845-1.666 1.59-2.01.512-.237 1.743-.228 2.978.021.867.175 1.696.192 2.06.043.113-.047.136-.012.14.206.005.424.175.79.71 1.524.276.38.613.867.749 1.082.378.6 1.005 1.958 1.24 2.686.237.74.525 1.126.943 1.264.4.132.914.052 1.236-.194.502-.383 1.465-.348 2.475.09.591.257.872.197.91-.196.056-.58-.785-1.814-1.237-1.814-.425 0-.527.434-.186.79l.204.213-.301-.07a4.21 4.21 0 00-.751-.072c-.247 0-.45-.03-.45-.066 0-.143.491-.793.747-.988.34-.26.84-.481 1.246-.553 1.31-.23.191-1.377-1.352-1.386-.519-.003-.629.026-1.207.322-.474.242-.652.3-.698.228-.147-.228-.385-.97-.47-1.459-.168-.982.075-1.4 1.45-2.501.522-.419 1.347-1.363 1.575-1.805.085-.163.209-.249.448-.31.64-.165 1.12-.334 1.933-.68.452-.191 1.037-.43 1.3-.53l.48-.182.38.257c.475.321.642.506.716.793.1.387.018.636-.343 1.037-.777.864-1.58.928-2.45.195-.21-.176-.287-.2-.46-.139-.314.11-.317.465-.008 1.044.493.925 1.547 1.792 2.263 1.86.712.069.945-.083 2.264-1.475.727-.768 1.238-1.376 1.326-1.577.409-.943.205-1.937-.567-2.764l-.232-.248.4-.203c.22-.111.4-.173.4-.137 0 .035.24.326.535.645.818.89.866 1.056.482 1.661a6.163 6.163 0 00-.783 1.694c-.19.608-.232.676-.494.801-.235.113-.287.18-.287.37 0 .158.06.27.187.354.169.11.215.11.509-.008.423-.17.597-.404.797-1.078.153-.512.39-1.02.892-1.916.224-.398.26-1.024.085-1.444-.06-.143-.359-.535-.664-.87-.306-.335-.556-.634-.556-.665 0-.031.194-.206.43-.388.562-.433 1.631-1.56 2.083-2.194a14.045 14.045 0 001.464-2.689c.565-1.417.882-3.586.885-6.054.004-2.694-.425-4.56-1.444-6.295-.52-.885-1.818-2.217-2.52-2.587-.707-.373-1.409-.506-2.148-.407zm-.585.928c-1.591.332-3.16.367-4.718.106-.934-.157-1.182-.092-1.678.439-.467.5-.487.746-.07.855.681.178 2.473.491 3.644.636 1.538.191 2.338.424 3.058.89.507.329.58.353 1.07.355.474.001.538.02.654.197.116.177.117.212.006.381-.093.142-.22.198-.544.238-.42.053-1.11-.062-1.194-.199-.023-.037-.256.077-.516.254-1.377.934-3.618 1.629-5.263 1.63-.434 0-.66.087-.66.252 0 .036.145.222.322.414.416.451.68.52 1.63.427 1.004-.098 2.698-.094 3.555.009.387.046.835.086.996.088.359.005.863-.309 1.07-.665.405-.693.517-.832.787-.985.406-.228.984-.222 1.335.014.306.206.376.472.181.687-.164.182-.28.188-.592.027-.362-.188-.58-.091-.807.356-.25.495-.58.87-.933 1.059-.153.082-.279.18-.279.217 0 .036.117.213.261.392a7.469 7.469 0 011.307 2.636c.151.602.118 1.635-.076 2.368-.09.339-.339.95-.554 1.359-.345.655-.391.8-.392 1.22 0 .59-.26 1.192-.635 1.474a6.034 6.034 0 01-.731.432 9.287 9.287 0 00-1.602 1.057c-.297.253-.337.181.496.9l.456.395.426-.188c1.239-.548 2.981-2.059 3.802-3.298.832-1.255 1.449-2.643 1.658-3.732.356-1.852.508-4.33.359-5.844-.268-2.717-1.034-4.478-2.583-5.935-1.072-1.008-1.81-1.217-3.246-.918zm-5.74.621c-.12.223-.1.355.078.515.33.298.828-.137.573-.5-.15-.216-.539-.224-.651-.015zm6.033.2a.762.762 0 00-.347.313c-.079.174-.069.225.071.365.132.132.218.153.448.11.536-.1.73-.524.371-.807-.155-.122-.226-.12-.544.019zM7.44 7.113c-1.294.23-2.689 1.073-3.557 2.147-.501.62-1.025 1.681-1.202 2.434-.104.445-.143.92-.143 1.748v1.136l.302.613c.23.464.456.764.94 1.245 1.296 1.288 3.267 2.147 5.945 2.591.43.071.86.18.957.24.237.15.23.46-.013.619-.174.114-.262.111-1.113-.04-2.334-.414-4.206-1.11-5.456-2.03-.595-.438-.626-.449-.46-.165.227.389.935 1.142 1.425 1.519 1.162.891 2.683 1.567 5.324 2.365 1.851.56 2.675.92 4.325 1.89.596.35 1.095.637 1.11.637.014 0-.027-.184-.092-.41-.179-.626-.67-1.606-1.068-2.132-.31-.41-.415-.49-.797-.61-.493-.157-.668-.379-.517-.66.138-.258.367-.278.923-.082.442.156.566.245.88.634a7.207 7.207 0 011.538 3.402c.15.918.08 1.276-.343 1.743-.43.477-.65.56-1.662.623-1.114.07-1.666.24-2.448.755-.622.41-1.081.595-1.692.68-.664.093-.815.345-.742 1.24.06.726-.063 2.239-.247 3.055-.069.303-.264.861-.433 1.24-.4.888-.459 1.394-.222 1.882.272.564.544.712 1.292.705a3.934 3.934 0 001.211-.192c.45-.144.764-.188 1.354-.19l.768-.003-.243-.203a1.844 1.844 0 00-1.053-.383c-.711 0-1.472-.49-1.724-1.112-.197-.484-.24-1.543-.088-2.187.407-1.728 1.478-2.803 3.017-3.026.52-.076 1.677.023 2.754.235.661.13.864.143 1.207.071.61-.126 1.261-.6 2.409-1.75 1.092-1.094 1.74-1.953 2.498-3.308.67-1.198.722-1.267.983-1.267.153 0 .265.063.352.196.123.188.117.213-.183.722-.171.29-.438.756-.592 1.036-.154.279-.422.718-.596.976-.31.461-.313.47-.14.52.28.08 1.293.073 2.014-.015.875-.107 1.67-.327 2.576-.714.408-.174.83-.35.937-.393.188-.073.182-.08-.185-.221-.527-.202-.922-.49-1.2-.879-.23-.32-.49-.955-.49-1.197 0-.1-.072-.111-.43-.066-.499.062-.664-.026-.664-.355 0-.286.121-.372.685-.489.443-.09.491-.123.735-.488.33-.495.823-.825 1.62-1.082.346-.111.763-.287.927-.39.365-.231.783-.698.922-1.028.15-.358.313-.471.557-.384.11.04.23.149.264.243.098.266-.327 1.04-.812 1.479-.427.386-1.297.837-1.794.93-.376.07-.747.32-.973.656-.137.203-.178.373-.178.744 0 .868.51 1.391 1.68 1.726 1.087.31 2.182 1.038 2.514 1.67.354.672.192 1.456-.444 2.146-.476.517-.997.821-1.592.931l-.513.095.382.261c.414.283.823.342 1.076.156.345-.255 2.148-2.274 2.252-2.522.231-.554.093-1.253-.34-1.715-.115-.124-.542-.491-.948-.817-.682-.546-2.222-2.056-2.373-2.326-.094-.168.146-.5.36-.5.098 0 .302.104.454.23l.278.229.697-.523a11.76 11.76 0 011.343-.86c.672-.348.827-.505.915-.93.083-.4-.024-.704-.396-1.123-.386-.433-.413-.547-.188-.772.213-.213.338-.197.659.084l.273.24.16-.26c.258-.418.559-1.463.604-2.096.054-.76-.1-1.379-.582-2.343l-.371-.742-.092.585a6.29 6.29 0 01-.209.91c-.393 1.09-1.471 2-2.62 2.215-.232.043-.85.079-1.374.079-.894 0-.963.01-1.122.18a.672.672 0 00-.17.39c0 .255-.306.483-.547.406-.209-.066-.312-.337-.312-.813v-.373l-.667-.168c-.863-.219-1.005-.215-1.203.036-.14.18-.162.315-.162 1.04 0 .901-.046 1.02-.396 1.02-.353 0-.388-.125-.398-1.434-.009-1.044-.028-1.224-.135-1.255-.27-.079-1.066-.201-1.303-.201a.774.774 0 00-.42.136c-.154.126-.175.249-.246 1.465-.043.73-.11 1.407-.15 1.504-.052.125-.138.176-.3.176-.41 0-.431-.1-.373-1.663.03-.783.061-1.493.07-1.58.018-.148-.023-.155-.84-.14-1.243.023-1.23 0-1.359 2.475-.042.813-.068.942-.205 1.033-.127.083-.195.085-.352.006-.194-.096-.194-.1-.194-1.227 0-.622.03-1.37.065-1.664l.066-.533-.378.049c-.734.095-1.474.21-1.616.25-.163.046-.364.468-.364.765 0 .19-.239.51-.382.51-.038 0-.15-.065-.247-.144-.147-.119-.175-.212-.164-.537l.014-.393-.723.15c-1.778.37-3.546.471-4.552.26-1.238-.26-2.528-1.202-2.97-2.17-1.057-2.305.445-4.588 3.019-4.588 1.145 0 1.737.236 3.561 1.418 1.31.847 2.05 1.115 2.948 1.066.43-.024.727-.086.942-.197.666-.347 1.052-1 1.05-1.779l-.002-.469-.135.254c-.182.34-.602.777-.902.937-.357.19-1.102.173-1.498-.035-.454-.238-.963-.684-1.515-1.328-.876-1.021-1.908-1.725-3.142-2.142-.64-.216-.854-.25-1.708-.27-.537-.014-1.161.009-1.387.049zm22.84.29c.028.16.063.305.077.32.03.035.58-.298.58-.35 0-.047-.515-.264-.627-.264-.054 0-.065.103-.03.293zm5.347 3.06c-.124.232-.099.363.121.625.234.278.437.304.657.084.206-.207.197-.33-.046-.62-.24-.284-.604-.329-.732-.088zm-23.895 9.114a.424.424 0 00-.105.561c.034.055.179.132.321.173.32.092.53-.007.6-.281.093-.374-.477-.69-.816-.453zm8.702.546c-.27.27-.037.893.334.893.21 0 .403-.25.403-.522 0-.416-.46-.648-.737-.371zm-.109 7.923c-1.04 1.057-1.416 1.596-1.419 2.036 0 .29.066.408.935 1.637.562.796 1.304 2.265 1.65 3.267.282.82.455 1.01.804.877.114-.044.23-.142.255-.217.32-.934.934-1.76 1.645-2.21l.366-.233h-.275c-.445 0-.956.217-1.397.594-.583.497-.793.467-1.145-.164a8.456 8.456 0 01-.504-1.211c-.326-1-.337-1.734-.036-2.392.256-.56.358-.672 1.278-1.415.692-.558 1.514-1.443 1.372-1.477a32.392 32.392 0 00-1.316-.043l-1.25-.026-.963.977z" fill="#F56200"/></svg><svg fill="none" viewBox="0 0 40 40" id="dino-3" xmlns="http://www.w3.org/2000/svg"><path fill-rule="evenodd" clip-rule="evenodd" d="M25.11 3.559c-1.016 1.19-2.872 2.222-3.994 2.222-.436 0-.537.183-.595 1.07-.071 1.085-.359 2.144-.872 3.21-.409.851-.426.91-.312 1.084.118.18.38.238.557.123.315-.203 1.05-1.978 1.282-3.093.079-.38.154-.703.168-.716.013-.014.27.275.57.641.301.366.881 1.014 1.29 1.44.561.587.79.775.94.774.49-.003.525-.462.068-.904-.692-.669-2.415-2.69-2.415-2.832 0-.042.132-.1.292-.131.756-.142 1.919-.765 2.753-1.476.278-.237.52-.417.537-.4.017.018.164.552.326 1.187.477 1.866 1.135 3.454 1.93 4.656.193.292.435.586.538.653.17.112.204.111.382-.005.278-.182.245-.38-.167-1-.993-1.493-1.824-3.77-2.219-6.078-.17-1.001-.465-1.12-1.059-.425zm7.483.158c-.14.098-.154.244-.194 2.081-.024 1.087-.084 2.234-.133 2.55-.079.511-.074.59.046.722.182.202.472.189.608-.027.121-.191.249-1.217.33-2.653l.052-.915.607.563c.611.568 1.52 1.158 2.204 1.431.204.082.371.171.371.2 0 .028-.351.376-.78.772-.614.566-.782.766-.782.93 0 .114.042.25.094.3.216.217.465.096 1.182-.573.713-.665.715-.666.763-.449.027.12.11.49.183.823.127.572.611 1.667.984 2.227.2.302.217.294-.743.398-.558.06-.727.11-.832.24a.393.393 0 00.061.564c.148.123 2.48-.127 2.742-.293.277-.176.214-.418-.235-.897-.785-.839-1.304-2.186-1.366-3.547-.042-.942-.105-1.087-.507-1.176-1.31-.287-3.11-1.602-3.912-2.857-.301-.47-.502-.583-.743-.414zm-1.695 6.002c-.717.227-1.041.513-1.777 1.57-.24.344-.565.748-.723.899a2.038 2.038 0 00-.636 1.203c-.044.32-.084.37-.584.712-.454.31-.537.401-.537.591a.39.39 0 00.19.348c.221.146.32.106 1.098-.454.535-.384.662-.585.664-1.053 0-.292.051-.388.412-.782.226-.246.61-.73.853-1.073.698-.99.997-1.211 1.634-1.211.404 0 .731.143 1.164.508.446.377 1.023.643 1.558.72.552.08.746.311.626.744l-.082.293h-2.166c-2.383 0-2.514.024-2.514.454 0 .35.743 1.404 1.578 2.24l.779.78-.206.177c-.39.336-.54.26-2.214-1.104-.4-.327-.778-.594-.84-.594-.143 0-.425.28-.425.421 0 .142.168.324.76.823l.487.41-.148.29c-.282.552-.715 1.92-.903 2.857-.151.748-.352 2.493-.352 3.055 0 .069-.165.04-.567-.1a7.55 7.55 0 00-2.46-.409c-.398-.002-.723-.02-.723-.04s.18-.343.402-.717c.38-.643.396-.693.29-.882-.123-.22-.407-.3-.574-.162-.059.05-.293.404-.52.788-.228.383-.436.698-.463.698-.027 0-.21-.202-.405-.45-.726-.918-1.808-1.898-2.628-2.381l-.342-.202 1.391-.672c1.589-.767 3.04-1.554 3.298-1.788.213-.193.224-.377.033-.55-.218-.197-.363-.162-1.136.274-1.146.647-3.935 2.02-4.102 2.018-.027 0-.05-.5-.051-1.113-.003-1.252-.127-1.99-.535-3.194l-.256-.753 2.118.042c1.93.038 2.13.03 2.252-.093.157-.156.176-.461.036-.57-.053-.043-1.267-.12-2.697-.174-2.832-.105-2.883-.1-2.805.304.022.11.167.509.324.885.157.377.378 1.028.491 1.446.19.7.205.875.197 2.205-.005.795-.02 1.567-.034 1.715-.022.223.007.285.169.364l.86.41c1.133.538 2.28 1.594 3.264 3.006.361.518.528.607.954.505.15-.035.695-.066 1.211-.067 1.09-.003 1.85.16 2.762.592.645.305.803.328.987.144.17-.169.457-.043.619.27.17.331.236 1.156.13 1.662-.146.706-.707 1.243-1.299 1.243-.112 0-.19-.026-.174-.059.341-.663.449-1.33.301-1.873-.049-.182-.15-.362-.223-.4-.074-.038-.574-.091-1.11-.119-1.167-.06-1.579-.146-1.987-.415-.24-.158-.349-.187-.5-.133-.308.11-.356.374-.118.656.196.233.197.244.058.397-.196.218-1.145.8-1.712 1.052-.482.214-1.91.61-1.974.547-.02-.019-.128-.31-.241-.645a5.404 5.404 0 00-.502-1.052c-.61-.911-1.904-1.937-2.446-1.94-.221 0-.441.258-.41.481.02.138.151.242.534.425.294.141.69.422.94.668.843.83 1.237 1.643 1.305 2.693.037.563.02.682-.155 1.064-.108.236-.428.682-.71.99a5.155 5.155 0 00-1.193 2.194c-.264 1.051-.005 2.748.514 3.37.117.14.453.38.747.532.566.295.717.45.637.658-.042.11-.204.128-1.17.128-1.431 0-1.4.026-1.528-1.263-.096-.969-.363-2.123-.638-2.762-.273-.635-.23-.96.218-1.66.543-.848.694-1.166 1-2.11.321-.992.33-1.146.072-1.314-.178-.117-.211-.117-.384-.005a.668.668 0 00-.24.363c-.05.226-.07.237-.34.192-1.872-.312-2.82-1.238-2.426-2.369.111-.318-.07-.635-.363-.635-.43 0-.672.875-.463 1.675.14.54.154.521-.588.742-.958.286-1.502.349-3.008.35-2.643.003-4.307-.412-5.849-1.458-2.774-1.882-4.108-6.447-2.882-9.864.878-2.45 2.892-4.19 5.059-4.37.598-.05.621-.074-.343.36-1.723.773-2.94 2.4-3.32 4.434-.092.492-.1.503-.402.588-.391.11-.536.418-.312.666a.52.52 0 00.33.158c.176 0 .187.025.165.371-.024.37-.026.372-.337.413-.42.057-.508.123-.508.388 0 .306.239.464.623.413.316-.043.317-.042.42.447.036.175-.007.217-.424.406-.496.225-.586.34-.509.647.071.283.376.333.785.129.183-.092.365-.167.403-.167.038 0 .175.203.303.45.288.555 1.32 1.602 1.934 1.962.246.144.756.372 1.133.505.644.23.75.244 1.817.245.951.002 1.231-.026 1.749-.176a9.027 9.027 0 002.197-.95c.473-.286.56-.315.715-.232.271.145.592-.091.559-.412-.02-.199.029-.283.295-.503l.32-.264.243.39c.262.422.51.51.752.269.176-.176.155-.31-.125-.8l-.248-.434.344-.296.344-.296.22.484c.381.84.669 1.23.909 1.23.455 0 .517-.35.162-.927-.206-.335-.58-1.26-.526-1.3.134-.102.774-.44.789-.419.011.016.085.177.163.359.08.181.212.39.295.466.136.123.17.125.36.019.27-.151.293-.346.093-.812l-.162-.379.159-.168c.214-.228.2-.48-.035-.634-.185-.121-.22-.115-.712.115-1.196.56-2.34 1.358-3.602 2.515-1.741 1.595-3.423 2.356-5.22 2.359-1.002.002-1.763-.203-2.606-.704-.625-.37-1.389-1.176-1.676-1.767-.418-.862-.547-1.59-.5-2.823.028-.738.095-1.3.205-1.72.629-2.414 2.38-3.87 4.812-4.001.84-.046 1.055-.139 1.055-.459 0-.434-1.211-.893-2.511-.952-1.76-.08-3.234.563-4.646 2.024C1.762 13.784 1.14 14.92.72 16.48c-.177.66-.201.902-.205 2.076-.004 1.457.086 2.05.516 3.396.784 2.452 2.432 4.35 4.571 5.266 1.144.49 2.191.71 3.939.828 1.821.122 3.759-.122 4.876-.616l.363-.16.25.19c.364.277 1.032.556 1.717.715.539.126.592.155.548.299-.084.27-.506 1.079-.747 1.43-.625.91-.66 1.317-.223 2.592.334.975.55 2.039.55 2.713 0 .724.31 1.248.898 1.52.26.119.512.144 1.485.145 1.026.001 1.203-.018 1.421-.15.93-.568.633-1.74-.566-2.236-.453-.187-.556-.31-.75-.883-.238-.703-.236-1.72.004-2.419.215-.625.462-1.017 1.035-1.645.536-.586.818-1.122.942-1.791.067-.358.123-.483.217-.483.246 0 1.45-.335 1.867-.518.23-.102.43-.186.443-.186.013 0 .046.22.074.489.1.955-.079 1.59-.816 2.897-.485.86-.399 1.906.274 3.306.46.958.904 1.428 1.748 1.848.517.257.69.386.802.601l.142.274-1.016.021c-.794.017-1.066-.004-1.248-.098-.285-.148-.336-.24-.631-1.152-.324-1-.93-2.197-1.398-2.756a8.087 8.087 0 01-.6-.82c-.442-.741-.415-.714-.678-.688-.582.056-.397.785.454 1.78.54.632 1.115 1.746 1.448 2.8.298.945.556 1.337 1.03 1.566.314.153.472.167 1.84.167 1.45 0 1.498-.005 1.585-.168.214-.399-.18-1.524-.663-1.892a4.39 4.39 0 00-.72-.402c-.73-.323-1.168-.845-1.542-1.84-.447-1.185-.424-1.709.111-2.537.56-.865.653-1.238.66-2.628l.007-1.225.497-.377c.274-.207.58-.442.682-.521.17-.134.251-.138 1.066-.059.484.048.94.086 1.014.086.103 0 .132.072.132.332 0 .412-.222.792-.587 1.007-.228.135-.272.206-.272.431 0 .247.032.285.37.438.537.242 1.495.241 1.952-.002.492-.262.824-.584 1.078-1.048.203-.37.232-.506.258-1.246.05-1.372-.27-2.052-1.115-2.375l-.356-.136v-.506c0-.45.015-.5.137-.452.15.059.995.243 1.431.312a.98.98 0 01.508.282c.22.23.23.273.254 1.074.023.772.01.863-.176 1.21-.218.408-.253.674-.107.82.165.165.432.103.644-.15.386-.458.463-.74.468-1.71.006-1.01-.08-1.353-.444-1.768-.316-.359-.56-.476-1.285-.615a9.632 9.632 0 01-.966-.235l-.36-.12.073-.486c.155-1.035.766-3.109.988-3.356.029-.032.191.037.362.153.439.3 1.13.337 1.535.084.308-.191 1.391-1.422 1.391-1.58 0-.336-.497-.498-.77-.25-.182.165-.239.16-.449-.037-.136-.128-.165-.222-.133-.422.035-.215.009-.28-.157-.389-.153-.1-.235-.11-.355-.046-.153.082-.308-.062-.818-.757-.054-.074.023-.097.329-.097.337 0 .4.023.4.144 0 .08.073.21.162.29.147.134.18.136.37.03.116-.065.222-.196.235-.291.02-.14.077-.173.285-.173.212 0 .268.036.309.198.106.423.689.42.795-.005.062-.248.422-.281.422-.039 0 .085.088.212.196.283.177.116.212.116.38.007.246-.162.637-1.542.573-2.021-.08-.594-.562-1.027-1.247-1.121-.578-.079-.705-.14-1.391-.656-.8-.603-1.414-.752-2.144-.521zm-5.69 1.127c-.194.214-.16.362.146.63.427.375.818.298.818-.16 0-.151-.077-.273-.261-.414-.309-.235-.526-.252-.704-.056zm5.852.449c-.154.154-.158.453-.008.577.062.053.252.114.422.136.26.035.322.015.4-.131.128-.24.043-.505-.196-.614-.274-.124-.472-.114-.618.032zm7.142 2.378c-.227.425-.26 1.864-.065 2.876.044.23.062.434.04.456-.063.064-1.266-.57-1.962-1.033-.352-.234-.716-.425-.808-.425-.094 0-.226.087-.297.195-.119.182-.118.21.004.398.161.245 1.066.836 2.093 1.365l.762.393-.621.468c-.787.593-1.63 1.503-2.105 2.27l-.368.596-.182-.48c-.234-.612-1.13-2.39-1.34-2.657-.204-.258-.496-.267-.658-.02-.14.215-.121.28.302 1.027.392.694.964 1.976 1.3 2.918.199.555.306.75.45.816.28.128.42-.005.65-.618.272-.729.461-1.081.883-1.642.517-.688 1.32-1.415 2.233-2.023.912-.607.871-.487.554-1.639-.2-.726-.286-1.987-.18-2.636.058-.352.05-.483-.036-.606-.148-.21-.536-.21-.649.001zm-12.074 4.68c-.166.25-.187.335-.117.467.201.375.61.345.82-.062.158-.304.154-.424-.02-.582-.24-.216-.46-.159-.683.177zm-7.71 2.356c-.3.175-.038.854.33.854.37 0 .512-.468.233-.767-.172-.185-.348-.212-.563-.087z" fill="#F56200"/></svg><svg fill="none" viewBox="0 0 40 40" id="dino-4" xmlns="http://www.w3.org/2000/svg"><path fill-rule="evenodd" clip-rule="evenodd" d="M35.156 1.387c-.219.1-.715.136-2.5.18-1.252.032-2.35.095-2.508.144-.437.135-.897.51-1.133.922-.302.53-.38.61-1.124 1.16-.893.658-1.875 1.672-1.875 1.935 0 .405.106.43 1.574.384l1.347-.042-.684.688c-.764.77-.922 1.01-.827 1.262.099.262.322.284 1.126.11a7.708 7.708 0 011.622-.163c.485-.001 1.037-.038 1.227-.082.345-.08.35-.078.687.26.4.4.549.845.62 1.855.053.763-.086 1.452-.391 1.932-.246.386-.414.53-.835.714-.44.193-.712.215-1.647.138-1.793-.15-3.558.316-5.412 1.426-.856.513-1.338.676-2.435.828-1.389.192-2.143.48-3.054 1.164a6.633 6.633 0 00-.768.68c-.26.29-.366.341-1.044.513-4.289 1.085-7.602 3.318-9.797 6.602-.927 1.386-1.545 2.738-2.1 4.589-.524 1.75-1.103 2.72-2.238 3.751-.874.793-1.213 1.465-1.576 3.128-.087.4-.25.924-.363 1.165a6.756 6.756 0 00-.269.654c-.166.553.364 1.232.962 1.231.982 0 2.444-1.686 3.059-3.529.248-.743.248-.81.002-.972-.33-.216-.536-.058-.741.57-.399 1.218-1.019 2.19-1.788 2.801-.479.381-.468.377-.623.278-.089-.055-.058-.188.169-.721.152-.36.336-.946.408-1.304.152-.761.331-1.31.606-1.852.182-.36.233-.4.653-.53.654-.201 1.368-.557 1.802-.899.614-.482.585-.493.53.195-.1 1.231-.358 2.775-.555 3.327-.436 1.224-1.023 2.012-1.498 2.012-.342 0-.5.158-.47.47.07.73 1.22.396 1.93-.56l.265-.356.346.193c.277.155.422.186.728.157.582-.056.88-.326 1.147-1.038.165-.44.248-.573.336-.54.807.314 1.668-.1 1.91-.918.305-1.024.339-2.918.089-4.908-.183-1.452-.227-2.835-.129-3.983l.091-1.053.318-.412a6.93 6.93 0 01.331-.412c.008 0 .017.536.02 1.192.005.823.073 1.674.22 2.754.115.859.216 1.902.223 2.318.012.725.004.764-.202.98-.251.264-.27.417-.072.596.283.256.634.1.943-.418.139-.231.164-.401.164-1.104v-.832l.264-.05c.717-.134 1.182-.818 1.271-1.87l.05-.583.305-.138c.168-.076.409-.256.535-.4.557-.634.766-1.395.864-3.146.04-.71.092-1.4.117-1.532.084-.447-.464-.702-.7-.325-.157.25-.209.62-.284 2.043-.042.81-.113 1.401-.2 1.662-.13.396-.522.963-.665.963-.041 0-.072-.515-.072-1.201 0-1.345.124-2.231.451-3.205.212-.632.214-.634.676-.88.255-.135.595-.29.756-.342.282-.093.309-.085.709.202l.444.319c.015.011-.049.145-.143.297-.162.262-.165.59-.005.59.037 0 .401.309.81.684.794.73 1.33 1.093 2.06 1.392.74.305 1.117.235 1.117-.206 0-.249-.092-.332-.508-.462-.627-.196-1.391-.663-1.968-1.201l-.588-.55.282-.226c.364-.292.393-.637.067-.772-.708-.293-1.035-.454-1.034-.51.001-.034.322-.23.713-.437a26.77 26.77 0 001.643-.976c1.774-1.146 2.241-1.4 3.092-1.683.462-.153.98-.301 1.152-.329l.313-.05-.011.463c-.011.45-.022.473-.438.888-.342.342-.446.508-.525.84-.055.227-.08.534-.056.681.039.241.018.281-.206.397-.77.398-1.08.864-1.084 1.63-.002.399.04.599.19.887l.193.372-.215.24c-.205.23-.437.972-.349 1.116.022.035-.145.196-.37.358-.62.445-1.27 1.091-1.842 1.83-.85 1.099-1.257 1.546-1.857 2.043-.805.665-.891.871-.891 2.12 0 .545-.038 1.44-.084 1.988-.07.851-.117 1.063-.312 1.448-.373.733-.267 1.204.35 1.55.442.247 1.101.883 1.457 1.407.368.54.692.82 1.072.925.16.044.997.08 1.86.08 1.8.001 1.83-.009 1.827-.63-.005-.916-.76-1.634-1.719-1.634-.535 0-.764-.136-1.258-.748l-.576-.711c-.145-.178-.158-.33-.181-1.994l-.025-1.802.25-.366c.346-.507.636-.683 1.571-.95.444-.128 1.14-.397 1.549-.6.686-.34.744-.387.766-.617.019-.194-.018-.277-.169-.376-.184-.12-.219-.113-.805.18-.668.332-.97.446-1.99.75-.543.163-.753.272-1.07.557-.218.196-.47.477-.562.625-.162.263-.182.27-.665.27h-.497l.08-.23c.047-.133.308-.417.615-.668.582-.476 1.116-1.063 1.85-2.031.478-.63 1.291-1.458 1.682-1.712.21-.137.213-.136.494.137.156.15.453.335.66.41.348.125.38.16.427.45a1.677 1.677 0 002.008 1.384c.213-.046.398-.083.413-.083.014 0 .069.105.122.233.053.129.234.358.402.51.254.23.292.3.225.425-.13.244-.09.727.083 1.011l.162.266-.505.516c-.556.567-.68.758-.68 1.055 0 .178-.056.215-.558.368a4.51 4.51 0 01-.996.178c-.387.007-.44-.01-.46-.155-.017-.115.082-.25.331-.455.393-.321.454-.558.204-.784-.142-.128-.182-.13-.65-.012a4.407 4.407 0 01-.863.125c-.303 0-.367-.025-.367-.143 0-.096.134-.205.407-.332a8.749 8.749 0 001.761-1.142c.31-.262.41-.4.41-.56 0-.435-.458-.55-.787-.198-.241.258-1.299.96-1.908 1.265-.519.26-.742.551-.742.966.001.55.512 1.003 1.13 1.003.166 0 .266.032.238.077-.091.148.133.736.363.95.128.12.352.24.497.268.296.055 1.337-.135 1.985-.362.233-.082.441-.133.461-.112.02.02-.351.417-.826.882-.474.465-.937.966-1.027 1.114-.214.351-.217.886-.006 1.232.178.292.769.596 1.053.541.149-.028.188.007.227.201.066.331.41.753.718.882.358.15.71.134 1.117-.05.189-.087.347-.147.351-.136.121.32.38.682.594.827.238.162.339.181.781.148 1.124-.084 3.73-1.192 5.094-2.164 1.28-.914 2.736-2.512 3.514-3.859.176-.306.506-.841.733-1.19 1.145-1.761 1.604-3.333 1.61-5.51.003-1.29-.103-1.812-.493-2.424-.752-1.183-1.985-1.668-4.505-1.773l-1.197-.05.761-.848.762-.848.474.032c.64.044 1.043.247 1.192.603.254.603.303.671.505.695.314.037.482-.183.423-.553-.126-.787-.796-1.4-1.679-1.535-.197-.03-.35-.088-.339-.128.108-.417.362-.955.67-1.418.69-1.04 1.039-1.965 1.501-3.992.675-2.956.538-5.615-.405-7.864a8.795 8.795 0 01-.261-.665c0-.022.196-.144.436-.269.526-.275.692-.49.589-.763-.104-.274-.808-.883-1.264-1.095l-.388-.18.046-.36c.081-.644-.163-1.18-.527-1.157a1.658 1.658 0 00-.377.131zm-.586.96c-.215.034-1.191.064-2.17.068-2.218.009-2.424.072-2.831.866-.189.37-.517.712-.975 1.017-.15.1-.465.343-.7.54l-.426.357.426.056c.51.066 2.563-.057 3.005-.181.848-.238 1.447-.721 1.789-1.442.177-.375.228-.425.434-.425.164 0 .273.06.363.197.123.188.118.218-.114.69-.445.903-1.402 1.607-2.504 1.84-.408.086-.976.437-1.622 1.002l-.247.216 1.067-.011c.588-.006 1.17-.052 1.295-.1.124-.05.423-.258.664-.466.522-.45.658-.525 1.128-.63.498-.112 1.049.019 1.486.352.547.418 1.345 1.477 1.822 2.418l.435.86-.05-.578a10.07 10.07 0 00-1-3.55c-.291-.582-.3-.623-.184-.802.068-.103.155-.188.194-.188.038 0 .235-.07.436-.157.318-.136.354-.174.266-.28-.144-.173-.77-.478-1.117-.543-.177-.033-.339-.125-.41-.234-.107-.163-.103-.208.043-.495.263-.515.261-.516-.503-.397zm-4.033.974c-.253.137-.32.295-.228.536.095.251.374.31.665.14.29-.169.34-.418.125-.633-.188-.188-.282-.195-.562-.043zm2.393 3.595c-.557.377-.55.34-.17.734.802.828 1.258 1.61 1.572 2.697.419 1.444.325 2.82-.27 3.926l-.301.563.427.124c.536.156.972.574 1.18 1.131l.152.406.202-.455c.573-1.289.723-2.057.716-3.66-.006-1.56-.13-2.139-.698-3.287-.349-.705-1.215-1.868-1.61-2.162-.113-.084-.36-.17-.547-.19-.28-.032-.397 0-.653.173zm.556 4.146c-.071.633-.428 1.356-.901 1.83-.215.214-.341.39-.282.39.339 0 .47.544.178.736-.157.103-.24.098-.759-.038-1.245-.327-1.877-.407-2.855-.362-1.437.066-2.542.409-3.823 1.187-.916.555-1.517.802-2.283.936-1.782.312-1.959.357-2.566.658-.928.46-1.604 1.113-2.228 2.15-.243.404-.177.377 1.09-.456 2.295-1.51 3.453-1.865 6.507-2a67.442 67.442 0 002.6-.16c.874-.084 2.583-.464 3.62-.805.945-.312 1.53-.91 1.82-1.861.143-.471.161-.678.126-1.421-.023-.478-.075-.956-.116-1.061-.064-.166-.082-.129-.128.277zM31.68 16.02c-.559.168-1.28.363-1.602.434-.322.07-.616.155-.652.189-.036.033-.116.354-.177.713-.173 1.017-.479 1.877-.946 2.665-.562.945-.663 1.234-.668 1.909-.004.482.032.636.25 1.079.291.591.666.911 1.283 1.094.488.145 1.271.148 1.887.007 1.14-.26 1.796-.218 2.343.153.186.127.391.191.61.192 1.148.004 2.27.619 2.96 1.622.431.627.8 1.918.85 2.985.01.2.287-.656.436-1.343.101-.47.14-.99.14-1.898 0-1.132-.017-1.287-.178-1.64-.488-1.078-1.41-1.517-3.534-1.682-.87-.068-1.303-.047-3.432.16-1.118.108-1.767.038-1.927-.207-.111-.169-.11-.203.006-.38.12-.185.168-.196.817-.196.38 0 .958-.023 1.287-.05l.596-.05.229-.4c.125-.219.499-.697.83-1.063 1.294-1.427 1.6-2.037 1.6-3.191 0-1.079-.343-1.422-1.407-1.412-.444.004-.83.079-1.601.31zm-3.71.91c-.468.203-.719.427-.877.785-.084.19-.141.356-.127.37.026.022 1.115.275 1.188.275.032 0 .156-.503.322-1.308.06-.296-.048-.322-.506-.123zm-2.587.019c-.777.046-.967.122-1.086.436-.107.28-.006.537.26.663.177.084.255.18.273.337.04.355-.113.468-.555.41-.366-.05-.392-.04-.691.26-.288.288-.31.34-.288.687.024.374.026.376.337.42.47.065.664.198.664.457 0 .346-.149.416-.759.355-.462-.045-.587-.028-.913.125-.49.23-.692.545-.646 1 .055.541.259.749.763.779.232.014.557-.015.723-.064.258-.077.322-.07.453.049.102.092.144.217.129.376-.02.21-.07.255-.414.372a3.487 3.487 0 01-.911.137c-.483.003-.535.02-.723.243-.386.46-.206 1.144.37 1.405.44.2.688.19 1.159-.05.466-.236.742-.207.815.086.074.295-.001.402-.472.668-.343.193-.433.284-.433.437 0 .276.127.476.389.612.476.246 1.069.062 1.514-.471.339-.405.6-.457.796-.159.137.21.082.394-.217.722-.115.126-.14.229-.102.404.06.27.394.638.58.636.069-.001.361-.2.649-.443l.523-.442-.346-.304a1.654 1.654 0 01-.482-.688c-.13-.363-.154-.386-.513-.463-.524-.112-.778-.259-1.1-.636-.333-.388-.48-.944-.423-1.604.03-.356.006-.525-.113-.76a1.93 1.93 0 01.265-2.124c.212-.241.231-.314.245-.916.012-.572.042-.696.232-.983.12-.181.356-.424.524-.541.23-.159.308-.266.31-.43.003-.258.193-.737.37-.931.143-.159.259-.152-1.156-.067zm-8.39 1.318c-.444.097-2.09.684-2.757.984-2.643 1.188-4.804 3.003-6.287 5.281-.821 1.262-1.51 2.817-1.974 4.453-.237.836-.681 1.843-1.049 2.377-.135.197-.221.358-.192.358.122 0 .725-.56 1.026-.95.177-.23.621-1.015.988-1.746.908-1.807 1.838-3.23 3.218-4.921 1.476-1.81 3.236-3.16 4.995-3.83 1.47-.56 1.458-.551 1.868-1.314.204-.38.36-.699.345-.708a.467.467 0 00-.182.016zm9.265.841c-.254.213-.431.66-.387.97.03.202.154.254.817.341l.398.053.372-.63c.205-.347.352-.65.328-.675-.06-.06-.91-.257-1.12-.259-.093 0-.277.09-.409.2zm-.744 2.215c-.26.27-.353.813-.202 1.176.104.251.055.246.782.08l.482-.11c.2-.044.21-.07.234-.626l.026-.58-.43-.05a5.55 5.55 0 01-.551-.084c-.067-.02-.22.068-.341.194zm-13.116 1.453c-.286.236-.57.508-.633.604-.316.49-.346 2.998-.059 4.902.123.813.15.896.29.873.295-.05.498-.25.588-.58.064-.234.075-.848.037-2.09-.056-1.802.003-2.704.235-3.625.063-.253.104-.472.09-.487-.015-.014-.261.167-.548.403zm14.32.512l-.722.149-.45.09v.468c0 .257.052.566.115.687.14.27.551.475.955.475.263 0 .358-.055.718-.42l.414-.418-.367-.538a21.22 21.22 0 00-.378-.545 2.532 2.532 0 00-.284.052zm1.227 1.993c-.524.5-.531.513-.447.767.222.674 1.09.946 2.386.75.778-.118 1.293-.309 1.907-.706.264-.17.565-.31.67-.31.223 0 .385.25.322.497-.044.176-.816.727-1.302.929-.233.097-.3.184-.424.55-.127.373-.133.453-.04.565.084.1.18.119.424.08.268-.043.443-.175 1.137-.854.838-.82 1.307-1.122 1.857-1.196.23-.031.324-.004.443.127.233.257.092.56-.315.677-.553.16-.752.308-1.682 1.255-.934.952-1.073 1.15-1.328 1.89-.13.378-.135.448-.036.547.095.094.17.097.459.016.285-.08.526-.278 1.39-1.144.682-.683 1.103-1.048 1.21-1.048.197 0 .424.23.424.428 0 .08-.55.703-1.235 1.4-1.032 1.051-1.27 1.338-1.45 1.748-.12.27-.205.551-.19.625.036.194.317.207.663.03.36-.183 1.44-1.29 2.13-2.18.4-.519.538-.645.704-.645.26 0 .394.132.394.389 0 .245-.72 1.176-1.725 2.23-.751.789-1.079 1.348-1.147 1.959-.035.31-.023.34.162.386.703.177 3.113-2.72 3.465-4.165.164-.671.22-2.07.108-2.727l-.094-.562-.332.347c-.34.355-.49.407-.755.265-.23-.123-.19-.457.09-.745.407-.42.412-1.12.01-1.493-.452-.42-.939-.598-1.735-.633-.636-.028-.77-.058-.938-.21-.432-.394-.9-.453-1.747-.222-.625.17-1.896.168-2.433-.004a4.256 4.256 0 00-.43-.124c-.02.001-.278.23-.57.51zM8.547 27.476c-.263.421-.796 1.399-1.186 2.172l-.708 1.407-.04 1.289c-.04 1.35-.255 2.89-.506 3.632-.113.336-.125.472-.058.679.076.236.111.26.396.26.308 0 .314-.006.499-.47.102-.258.275-.873.383-1.367.178-.817.197-1.075.204-2.851.004-1.075.037-1.997.071-2.051.035-.054.163-.098.284-.098.422 0 .435.071.43 2.336-.003 1.155-.041 2.242-.087 2.447-.07.31-.063.386.043.48.164.147.311.173.573.104.339-.09.462-.623.51-2.203.029-1.006.006-1.574-.097-2.344-.075-.558-.159-1.73-.186-2.602l-.048-1.586-.477.766zm20.786.175l-.785.044-.66.517c-.686.537-1.404 1.25-1.404 1.396 0 .172.241.165.874-.024.357-.107.836-.233 1.064-.28.228-.047.521-.14.653-.209.306-.158.596-.088.658.158.114.459-.131.623-1.361.91-.789.183-1.52.603-2.22 1.272-.613.587-.598.956.032.761 1.24-.382 2.077-.734 2.606-1.093.324-.22.654-.4.732-.4.218 0 .426.275.372.492-.09.355-1.292 1.078-2.307 1.386-.423.128-.737.298-1.199.645-.833.628-2.325 2.107-2.325 2.304 0 .236.196.354.493.298.564-.106 2.34-1.075 3.725-2.033.764-.529.994-.603 1.206-.391.302.302.077.55-1.323 1.462-.43.28-1.185.734-1.68 1.01-.773.43-.902.53-.923.715-.078.662.624.546 1.822-.3.603-.427.987-.62 1.565-.786.575-.165.96-.357 1.538-.764.392-.277.47-.305.638-.228.23.105.32.347.209.556-.149.279-1.231.932-1.884 1.139-.756.238-1.214.461-1.5.73-.282.264-.287.589-.012.769.194.127.235.123 1.035-.121 1.122-.342 2.333-.86 3.137-1.344.366-.219.678-.411.694-.427.017-.016-.08-.153-.213-.306-.353-.401-.395-.709-.198-1.427.036-.133.015-.176-.086-.176-.255 0-.663-.252-.82-.505-.188-.304-.203-.754-.04-1.214.064-.182.117-.344.117-.36 0-.015-.115-.077-.254-.136a1.57 1.57 0 01-.45-.32c-.28-.305-.27-.999.023-1.634.116-.253.212-.468.212-.479 0-.01-.099-.04-.219-.063-.5-.1-.87-.776-.718-1.308.093-.322.092-.312.019-.295a19.05 19.05 0 01-.843.059zm-12.485 3.931c-.022.269-.08.978-.127 1.577-.066.839-.121 1.147-.24 1.338-.295.477-.25.556 1.026 1.828l1.18 1.175h1.323c1.3 0 1.322-.003 1.24-.156-.134-.251-.395-.37-.937-.426-.754-.077-1.09-.274-1.697-.995-1.002-1.188-.917-.918-.944-3.007l-.024-1.822h-.76l-.04.488zm13.28.846c-.267.21-.27.496-.006.668.189.124.21.123.41-.025.278-.207.314-.517.08-.68-.226-.159-.237-.158-.484.037z" fill="#F56200"/></svg><svg fill="none" viewBox="0 0 263 48" id="logo" xmlns="http://www.w3.org/2000/svg"><path d="M48 24c0 13.255-10.745 24-24 24S0 37.255 0 24 10.745 0 24 0s24 10.745 24 24z" fill="#F56200"/><path fill-rule="evenodd" clip-rule="evenodd" d="M14.76 9.339c-.303.074-.36.204-.36.816 0 .517.017.6.159.77.087.104.3.262.474.351.174.09.441.277.594.418.472.434.475.46.475 4.147v3.224l.18.044c.29.07 1.065.482 1.24.659.632.637.793.758.958.716.227-.057.227-.056.5-1.582.032-.181.105-.494.163-.694.057-.2.132-.57.167-.825.093-.68.125-.805.364-1.403.251-.63.481-.988.904-1.405.166-.163.301-.338.302-.388 0-.05.27-.37.602-.71.65-.67.646-.668 1.674-.88.335-.07.707-.189.828-.264.275-.172.788-.353 1.674-.59a15.999 15.999 0 001.407-.469c1.279-.503 1.763-.444 2.507.307l.357.36-.046.405c-.046.415-.186.776-.3.776-.034 0-.063.084-.063.186 0 .267-.143.438-.326.39-.15-.04-.328.075-.328.212 0 .04-.046.071-.1.071a.161.161 0 00-.139.1c-.02.054-.11.098-.197.098-.12 0-.178.051-.229.198-.038.11-.09.198-.117.198-.027 0-.082.075-.123.166-.041.09-.12.165-.174.165-.055 0-.1.029-.1.064 0 .124-.383.264-.685.25-.167-.007-.324.019-.35.057-.024.04-.126.09-.225.115-.099.025-.18.081-.18.126 0 .106-.39.477-.503.478-.047 0-.335.164-.64.364-.58.38-.63.462-.496.818.06.158.488.436.672.436.047 0 .195.06.33.132.134.073.284.132.333.132.113 0 .649.425.695.551.054.148.46.636.815.982.393.382.794.581 1.17.581.358 0 .539.124.485.332-.046.178.1.323.332.326.168.003.258.16.162.284a.853.853 0 00-.107.263c-.05.211-.4.463-.81.584-.4.117-.88-.009-1.718-.452-.81-.428-1.19-.57-2.029-.755-1.004-.223-1.07-.223-1.485-.011-.36.183-.871.72-.871.913 0 .046-.208.432-.462.858s-.49.839-.522.917c-.057.134-.178.333-.697 1.14-.248.386-.693.784-1.643 1.47-.88.635-1.51.97-2.122 1.128a7.684 7.684 0 00-.756.237c-.247.1-.278.136-.278.327v.214l.507.051a25.37 25.37 0 001.62.065c.622.007 1.234.048 1.388.092.295.085.674.365.674.5 0 .044.077.153.172.241.216.201.356.525.308.711-.05.19-.14.18-.364-.036-.137-.133-.283-.192-.56-.228a8 8 0 01-.716-.13c-.188-.046-.362-.063-.387-.038-.066.067.165.301.483.49.153.09.279.213.279.274 0 .06.077.226.173.368.326.485.418 1.095.18 1.187-.111.043-.26-.106-.481-.481-.095-.161-.21-.272-.281-.272-.252 0-.627-.26-.781-.544-.099-.18-.207-.29-.3-.303-.18-.026-.181.007-.016.352.1.209.14.459.165 1.061.036.854-.027 1.118-.265 1.118-.103 0-.147-.076-.219-.381-.054-.232-.16-.457-.269-.575-.145-.157-.185-.274-.213-.619-.018-.233-.081-.51-.14-.614a2.85 2.85 0 01-.166-.361c-.049-.137-.118-.182-.341-.218-.154-.025-.318-.077-.365-.116-.07-.058-.085.422-.085 2.633 0 3.102-.01 3.181-.473 3.628-.154.15-.437.356-.63.46-.541.29-.599.399-.599 1.123 0 .56.013.623.146.717.128.09.675.103 4.617.103h4.472l.16-.162c.143-.143.161-.22.161-.657 0-.273-.035-.574-.078-.67-.05-.108-.27-.286-.587-.47-.532-.31-.8-.572-.948-.929-.072-.172-.088-1.192-.088-5.367v-5.154h.245c.416.003 1.08.193 1.445.415.395.241.75.677 1.062 1.302.117.237 1.077 2.864 2.133 5.84 1.055 2.975 1.971 5.468 2.035 5.54.267.303.366.312 3.478.312 2.703 0 2.951-.01 3.08-.115.132-.108.14-.167.122-.842l-.019-.727-.522-.282c-.651-.352-.97-.661-1.214-1.177-.105-.221-.696-1.916-1.314-3.765-.617-1.85-1.204-3.547-1.304-3.771-.26-.584-.708-1.253-1.115-1.667-.618-.63-1.816-1.325-3.027-1.759-.28-.1-.487-.203-.458-.228.029-.025.318-.114.642-.198 2.966-.765 5.037-2.177 5.98-4.077.485-.977.725-2.417.598-3.586-.166-1.52-.668-2.602-1.67-3.6-1.717-1.712-4.494-2.631-8.672-2.872-1.133-.065-8.747-.083-9-.02z" fill="#F2F2F2"/><path d="M65.794 7.198h3.19c1.726 0 2.969.161 3.728.484.766.315 1.368.83 1.805 1.547.444.709.666 1.56.666 2.556 0 1.103-.29 2.02-.87 2.75-.573.73-1.354 1.24-2.342 1.526-.58.164-1.637.247-3.17.247V23h-3.007V7.198zm3.008 6.177h.956c.752 0 1.275-.054 1.568-.161.294-.108.523-.283.688-.527.172-.25.258-.55.258-.902 0-.609-.237-1.053-.71-1.332-.343-.208-.98-.311-1.912-.311h-.848v3.233zm18.05-2.063h2.921V23h-2.922v-1.235c-.573.544-1.15.938-1.73 1.181a4.855 4.855 0 01-1.868.355c-1.511 0-2.819-.584-3.921-1.751-1.103-1.175-1.655-2.632-1.655-4.372 0-1.805.534-3.284 1.6-4.437 1.068-1.153 2.364-1.73 3.89-1.73.701 0 1.36.133 1.976.398a5.393 5.393 0 011.708 1.193v-1.29zm-3.084 2.407c-.91 0-1.665.322-2.266.966-.602.638-.903 1.458-.903 2.46 0 1.01.305 1.841.913 2.493a2.997 2.997 0 002.267.977c.924 0 1.69-.318 2.299-.956.608-.644.913-1.486.913-2.524 0-1.017-.305-1.84-.913-2.47-.609-.631-1.379-.946-2.31-.946zm20.81-.043l-2.438 1.343c-.458-.48-.913-.813-1.364-1-.444-.186-.967-.279-1.569-.279-1.095 0-1.983.33-2.664.989-.673.651-1.01 1.49-1.01 2.513 0 .996.326 1.808.978 2.439.652.63 1.507.945 2.567.945 1.311 0 2.331-.448 3.062-1.343l2.309 1.58c-1.253 1.625-3.022 2.438-5.306 2.438-2.056 0-3.667-.609-4.834-1.826-1.16-1.218-1.74-2.643-1.74-4.276a6.01 6.01 0 01.848-3.126 5.998 5.998 0 012.364-2.245c1.016-.544 2.151-.816 3.405-.816 1.16 0 2.202.232 3.126.698a5.884 5.884 0 012.266 1.966zM110.564 23h-2.943V11.312h10.248V23h-2.943v-8.862h-4.362V23zm22.39-4.995h-9.421c.136.83.497 1.493 1.085 1.987.594.487 1.35.73 2.266.73a3.908 3.908 0 002.825-1.149l2.471 1.16c-.616.874-1.353 1.522-2.213 1.945-.859.415-1.88.623-3.061.623-1.834 0-3.327-.577-4.48-1.73-1.153-1.16-1.729-2.61-1.729-4.35 0-1.784.573-3.262 1.718-4.437 1.153-1.182 2.596-1.772 4.33-1.772 1.84 0 3.337.59 4.49 1.772 1.153 1.175 1.729 2.729 1.729 4.662l-.01.559zm-2.944-2.31a2.93 2.93 0 00-1.149-1.59c-.566-.408-1.225-.612-1.977-.612-.816 0-1.532.23-2.148.688-.387.286-.745.791-1.074 1.514h6.348zm12.066 2.664h-2.352c-1.59 0-2.815-.304-3.674-.913-.852-.616-1.279-1.625-1.279-3.029v-3.104h2.944v2.878c0 1.024.684 1.536 2.052 1.536l1.138-.01h1.171v-4.405h2.944V23h-2.944v-4.64zm14.945-7.047h2.922V23h-2.922v-1.235c-.573.544-1.149.938-1.729 1.181a4.856 4.856 0 01-1.87.355c-1.511 0-2.818-.584-3.92-1.751-1.103-1.175-1.655-2.632-1.655-4.372 0-1.805.534-3.284 1.601-4.437 1.067-1.153 2.363-1.73 3.889-1.73.701 0 1.36.133 1.976.398a5.393 5.393 0 011.708 1.193v-1.29zm-3.083 2.407c-.909 0-1.665.322-2.267.966-.601.638-.902 1.458-.902 2.46 0 1.01.305 1.841.913 2.493a2.999 2.999 0 002.267.977c.924 0 1.69-.318 2.299-.956.608-.644.913-1.486.913-2.524 0-1.017-.305-1.84-.913-2.47-.609-.631-1.379-.946-2.31-.946zm8.328-2.406h10.892v2.792h-3.878V23h-2.943v-8.895h-4.071v-2.793zm18.705-.301c1.102 0 2.137.275 3.104.827a5.961 5.961 0 012.277 2.245c.545.945.817 1.966.817 3.061a6.112 6.112 0 01-.827 3.094 5.932 5.932 0 01-2.235 2.256c-.945.537-1.987.806-3.126.806-1.676 0-3.108-.595-4.297-1.783-1.181-1.196-1.772-2.647-1.772-4.351 0-1.826.67-3.348 2.009-4.565 1.174-1.06 2.524-1.59 4.05-1.59zm.042 2.76c-.909 0-1.668.32-2.277.957-.601.63-.902 1.439-.902 2.427 0 1.017.297 1.84.891 2.471.602.63 1.361.945 2.278.945.916 0 1.679-.318 2.288-.956.609-.637.913-1.457.913-2.46 0-1.002-.301-1.815-.902-2.438-.595-.63-1.358-.945-2.289-.945zm11.873-2.46v1.29a5.515 5.515 0 011.719-1.193 4.948 4.948 0 011.976-.397c1.526 0 2.822.576 3.889 1.73 1.067 1.152 1.601 2.631 1.601 4.436 0 1.74-.552 3.197-1.655 4.372-1.102 1.167-2.409 1.75-3.92 1.75-.674 0-1.3-.117-1.88-.354-.58-.243-1.157-.637-1.73-1.181v5.51h-2.911V11.313h2.911zm3.083 2.407c-.924 0-1.69.315-2.299.945-.608.63-.913 1.454-.913 2.47 0 1.04.305 1.88.913 2.525.609.638 1.375.956 2.299.956.895 0 1.647-.326 2.256-.977.616-.652.924-1.483.924-2.493 0-1.002-.301-1.822-.903-2.46-.601-.644-1.36-.966-2.277-.966z" fill="#F2F2F2"/><path d="M65.043 44v-8.62h4.318v.85h-3.468v2.754h.404c1.074 0 1.853.096 2.338.288.488.187.87.486 1.148.896.281.406.422.86.422 1.36 0 .656-.246 1.232-.738 1.728S68.289 44 67.41 44h-2.367zm.85-4.148v3.304h1.06c.629 0 1.09-.06 1.383-.181.293-.125.525-.315.697-.569.176-.258.264-.545.264-.861 0-.398-.123-.736-.37-1.014a1.726 1.726 0 00-.92-.545c-.366-.09-.911-.134-1.634-.134h-.48zm9.317-2.391c.981 0 1.794.355 2.438 1.066a3.32 3.32 0 01.879 2.303c0 .89-.31 1.67-.932 2.338-.617.664-1.412.996-2.385.996-.976 0-1.775-.332-2.396-.996-.617-.668-.926-1.447-.926-2.338 0-.883.293-1.648.88-2.297.644-.715 1.458-1.072 2.442-1.072zm0 .803c-.68 0-1.263.252-1.751.755a2.531 2.531 0 00-.733 1.829c0 .46.112.89.334 1.289.223.398.524.707.903.925.378.215.794.323 1.248.323.453 0 .869-.108 1.248-.322a2.39 2.39 0 00.902-.926c.223-.399.334-.828.334-1.29a2.52 2.52 0 00-.738-1.828c-.489-.503-1.07-.755-1.746-.755zM85.853 44h-.873l-2.133-4.64L80.732 44h-.88l2.919-6.375h.146L85.853 44zm2.474-3.85h.78c.62 0 1.107.05 1.458.147.352.098.654.314.908.65.254.332.381.715.381 1.149 0 .523-.183.972-.55 1.347-.368.372-.924.557-1.67.557h-2.121v-6.375h.814v2.525zm.03.75v2.409h.943c1.109 0 1.664-.391 1.664-1.172 0-.223-.06-.442-.182-.657a.955.955 0 00-.522-.45c-.226-.087-.628-.13-1.207-.13h-.697zM103.1 44h-9.527v-6.375h.826v5.602h3.51v-5.602h.837v5.602h3.516v-5.602h.838V44zm7.595-2.115l.692.363c-.227.445-.489.805-.785 1.078a3.163 3.163 0 01-1.002.627c-.371.14-.791.211-1.26.211-1.039 0-1.852-.34-2.438-1.02-.586-.683-.879-1.454-.879-2.314 0-.808.248-1.53.745-2.162.628-.805 1.47-1.207 2.525-1.207 1.086 0 1.953.412 2.602 1.236.46.582.695 1.309.703 2.18h-5.731c.016.742.252 1.351.709 1.828a2.263 2.263 0 001.694.71c.324 0 .638-.058.943-.17.308-.114.57-.264.785-.452.215-.188.447-.49.697-.908zm0-1.717c-.109-.438-.269-.787-.48-1.049a2.239 2.239 0 00-.826-.633 2.538 2.538 0 00-1.084-.24c-.625 0-1.162.201-1.612.604-.328.293-.576.732-.744 1.318h4.746zm9.419.955h-1.441c-.652 0-1.137-.168-1.453-.504-.313-.336-.469-.803-.469-1.4v-1.594h.803v1.154c0 .742.105 1.203.316 1.383.211.176.559.264 1.043.264h1.201v-2.801h.815V44h-.815v-2.877zm8.41.762l.692.363c-.227.445-.489.805-.786 1.078-.296.274-.63.483-1.001.627-.372.14-.791.211-1.26.211-1.039 0-1.852-.34-2.438-1.02-.586-.683-.879-1.454-.879-2.314 0-.808.248-1.53.744-2.162.629-.805 1.471-1.207 2.526-1.207 1.086 0 1.953.412 2.601 1.236.461.582.696 1.309.704 2.18h-5.731c.016.742.252 1.351.709 1.828a2.263 2.263 0 001.693.71c.325 0 .639-.058.944-.17.308-.114.57-.264.785-.452.215-.188.447-.49.697-.908zm0-1.717c-.109-.438-.269-.787-.48-1.049a2.239 2.239 0 00-.826-.633 2.538 2.538 0 00-1.084-.24c-.625 0-1.163.201-1.612.604-.328.293-.576.732-.744 1.318h4.746zm9.758-2.543h.234L140.678 44h-.855l-1.577-4.693L135.797 44h-.152l-2.455-4.693L131.62 44h-.856l2.174-6.375h.223l2.566 4.986 2.555-4.986zm7.755 0h5.349V44h-.82v-5.602h-3.709V44h-.82v-6.375zm7.595 0h.814v1.172c.325-.445.698-.78 1.12-1.002a2.977 2.977 0 011.412-.334c.906 0 1.681.326 2.326.979.644.652.967 1.437.967 2.355 0 .937-.321 1.734-.961 2.39-.637.653-1.406.98-2.309.98a3.11 3.11 0 01-1.4-.317 3.53 3.53 0 01-1.155-.944v3.428h-.814v-8.707zm3.281.627c-.711 0-1.31.248-1.799.744-.484.496-.726 1.113-.726 1.852 0 .484.107.92.322 1.306.219.387.529.694.932.92.406.227.834.34 1.283.34.441 0 .855-.113 1.242-.34.391-.23.701-.55.932-.96a2.6 2.6 0 00.346-1.29c0-.453-.116-.883-.346-1.289a2.43 2.43 0 00-.92-.943 2.461 2.461 0 00-1.266-.34zm8.316-.791c.981 0 1.793.355 2.438 1.066a3.32 3.32 0 01.879 2.303c0 .89-.311 1.67-.932 2.338-.617.664-1.412.996-2.385.996-.976 0-1.775-.332-2.396-.996-.617-.668-.926-1.447-.926-2.338 0-.883.293-1.648.879-2.297.644-.715 1.459-1.072 2.443-1.072zm0 .803c-.679 0-1.263.252-1.752.755a2.532 2.532 0 00-.732 1.829c0 .46.111.89.334 1.289.223.398.523.707.902.925.379.215.795.323 1.248.323.453 0 .869-.108 1.248-.322.379-.22.68-.528.903-.926.222-.399.334-.828.334-1.29 0-.714-.246-1.324-.739-1.828-.488-.503-1.07-.755-1.746-.755zm11.433.685l-.65.404c-.562-.746-1.33-1.119-2.303-1.119-.777 0-1.423.25-1.939.75a2.452 2.452 0 00-.768 1.823c0 .465.118.902.352 1.312.238.41.562.729.973.955.414.227.877.34 1.388.34.938 0 1.703-.373 2.297-1.12l.65.429a3.076 3.076 0 01-1.23 1.066c-.512.25-1.096.375-1.752.375-1.008 0-1.844-.32-2.508-.96a3.126 3.126 0 01-.996-2.339c0-.617.154-1.19.463-1.717a3.3 3.3 0 011.283-1.242 3.739 3.739 0 011.823-.445c.421 0 .828.064 1.218.193a3.38 3.38 0 011.002.504c.274.207.506.47.697.791zm1.268-1.324h4.195v.709h-1.687V44h-.827v-5.666h-1.681v-.709zm8.726-.164c.98 0 1.793.355 2.437 1.066a3.32 3.32 0 01.879 2.303c0 .89-.31 1.67-.931 2.338-.618.664-1.412.996-2.385.996-.977 0-1.776-.332-2.397-.996-.617-.668-.925-1.447-.925-2.338 0-.883.293-1.648.879-2.297.644-.715 1.458-1.072 2.443-1.072zm0 .803c-.68 0-1.264.252-1.752.755a2.533 2.533 0 00-.733 1.829c0 .46.112.89.334 1.289.223.398.524.707.903.925.379.215.795.323 1.248.323.453 0 .869-.108 1.248-.322.379-.22.68-.528.902-.926.223-.399.334-.828.334-1.29 0-.714-.246-1.324-.738-1.828-.488-.503-1.07-.755-1.746-.755zm8.974-.639h.826v2.684l2.947-2.684h1.143l-3.229 2.918L200.804 44h-1.161l-2.929-2.947-.258.228V44h-.826v-6.375zm9.441-.164c.98 0 1.793.355 2.437 1.066a3.32 3.32 0 01.879 2.303c0 .89-.31 1.67-.932 2.338-.617.664-1.412.996-2.384.996-.977 0-1.776-.332-2.397-.996-.617-.668-.926-1.447-.926-2.338 0-.883.293-1.648.879-2.297.645-.715 1.459-1.072 2.444-1.072zm0 .803c-.68 0-1.264.252-1.752.755a2.529 2.529 0 00-.733 1.829c0 .46.112.89.334 1.289.223.398.524.707.903.925.379.215.795.323 1.248.323.453 0 .869-.108 1.248-.322.379-.22.679-.528.902-.926.223-.399.334-.828.334-1.29 0-.714-.246-1.324-.738-1.828-.488-.503-1.071-.755-1.746-.755zm5.245-.639h5.35V44h-.82v-5.602h-3.709V44h-.821v-6.375zm8.404 0v4.717l4.682-4.717h.064V44h-.82v-4.676L218 44h-.1v-6.375h.82zM231.654 44h-5.959v-6.375h.826v5.602h3.703v-5.602h.826v5.602h1.377v1.78h-.773V44zm7.648-2.115l.691.363c-.227.445-.488.805-.785 1.078a3.163 3.163 0 01-1.002.627c-.371.14-.791.211-1.26.211-1.039 0-1.851-.34-2.437-1.02-.586-.683-.879-1.454-.879-2.314 0-.808.248-1.53.744-2.162.629-.805 1.471-1.207 2.525-1.207 1.086 0 1.953.412 2.602 1.236.461.582.695 1.309.703 2.18h-5.731c.016.742.252 1.351.709 1.828a2.263 2.263 0 001.694.71c.324 0 .638-.058.943-.17.309-.114.57-.264.785-.452.215-.188.448-.49.698-.908zm0-1.717c-.11-.438-.27-.787-.481-1.049a2.23 2.23 0 00-.826-.633 2.538 2.538 0 00-1.084-.24c-.625 0-1.162.201-1.611.604-.329.293-.577.732-.745 1.318h4.747zm7.366.762h-3.703V44h-.826v-6.375h.826v2.531h3.703v-2.531h.821V44h-.821v-3.07zm2.34-3.305h4.195v.709h-1.687V44h-.827v-5.666h-1.681v-.709zm5.72 0h.815v1.172c.324-.445.697-.78 1.119-1.002a2.977 2.977 0 011.412-.334c.906 0 1.681.326 2.326.979.645.652.967 1.437.967 2.355 0 .937-.321 1.734-.961 2.39-.637.653-1.406.98-2.309.98a3.11 3.11 0 01-1.4-.317 3.516 3.516 0 01-1.154-.944v3.428h-.815v-8.707zm3.281.627c-.711 0-1.31.248-1.798.744-.485.496-.727 1.113-.727 1.852 0 .484.107.92.322 1.306.219.387.53.694.932.92.406.227.834.34 1.283.34.441 0 .856-.113 1.242-.34.391-.23.701-.55.932-.96a2.6 2.6 0 00.346-1.29c0-.453-.116-.883-.346-1.289a2.43 2.43 0 00-.92-.943 2.461 2.461 0 00-1.266-.34z" fill="#B3B3B3"/></svg><svg fill="none" viewBox="0 0 40 40" id="telegram" xmlns="http://www.w3.org/2000/svg"><path fill-rule="evenodd" clip-rule="evenodd" d="M18.542 11.075C10.75 14.381 4.14 17.401 3.854 17.788c-.626.847-.668 1.992-.11 3.033.225.422 2.066 1.453 4.09 2.292l3.679 1.525 1.11 3.41c1.962 6.024 3.07 6.575 6.802 3.386l2.223-1.899 2.91 2.732C26.736 34.314 27.765 35 28.655 35c1.355 0 2.897-1.251 3.222-2.616.801-3.363 4.79-23.98 4.79-24.759 0-1.315-1.429-2.632-2.813-2.592-.63.019-7.52 2.737-15.312 6.042zm1.906 2.948c-6.743 2.832-12.329 5.22-12.413 5.304-.085.084 1.08.648 2.589 1.251l2.743 1.099 7.302-4.214c4.017-2.318 7.421-4.095 7.567-3.95.146.147-2.01 2.556-4.79 5.355-4.71 4.742-5.099 5.257-5.68 7.524-.698 2.724-.948 2.731 2.365-.07l1.59-1.344 3.375 3.136c1.857 1.725 3.42 3.09 3.474 3.032.227-.241 4.39-21.635 4.27-21.94-.072-.184-5.649 1.984-12.392 4.817z" fill="#08C"/></svg><svg fill="none" viewBox="0 0 40 40" id="vk" xmlns="http://www.w3.org/2000/svg"><path fill-rule="evenodd" clip-rule="evenodd" d="M14.792 4.183C9.987 5.723 5.674 10.088 4.16 14.94c-4.022 12.888 8.012 24.922 20.9 20.9 4.925-1.537 9.243-5.855 10.78-10.78C39.875 12.132 27.688.044 14.792 4.183zM10.22 14.564c-.622 1.007 1.802 6.471 3.962 8.931 1.548 1.764 4.538 3.278 6.114 3.097 1.069-.123 1.173-.293 1.29-2.113.08-1.264.319-1.979.66-1.979.293 0 1.42.938 2.505 2.083 1.608 1.699 2.232 2.084 3.378 2.084 1.843 0 2.17-.638 1.087-2.123l-1.761-2.416-.879-1.205 1.748-2.943c.962-1.618 1.627-3.138 1.48-3.378-.149-.24-.924-.435-1.723-.435-1.195 0-1.58.23-2.163 1.291C24.57 17.91 22.91 20 22.308 20c-.455 0-.633-.692-.726-2.813l-.124-2.812-2.449-.127c-2.231-.115-2.418-.06-2.106.625.189.414.417 1.945.507 3.403.22 3.545-.468 3.303-2.544-.892-1.514-3.06-1.66-3.217-2.996-3.217-.772 0-1.515.178-1.65.397z" fill="#597DA3"/></svg><svg fill="none" viewBox="0 0 40 40" id="whatsapp" xmlns="http://www.w3.org/2000/svg"><path fill-rule="evenodd" clip-rule="evenodd" d="M14.825 4.21c-4.673 1.607-7.78 4.437-9.99 9.104C3.665 15.78 3.543 16.42 3.556 20c.012 3.234.194 4.361.995 6.16l.98 2.2-1.086 4.027c-.598 2.215-1.026 4.087-.952 4.161.074.074 2.04-.326 4.367-.89l4.232-1.024 1.975.902c1.575.72 2.775.904 5.933.912 3.575.01 4.223-.115 6.686-1.283 4.708-2.23 7.523-5.342 9.12-10.082C40.077 12.403 27.47-.14 14.825 4.209zm-2.294 9.388c-1.753 2.227-.74 5.621 2.806 9.413 2.264 2.42 4.53 3.829 7.259 4.509 2.268.565 3.745.306 4.915-.864 1.47-1.47 1.075-2.645-1.252-3.735l-2.075-.972-.872 1.109c-.48.61-1.108 1.109-1.396 1.109-.948 0-4.19-2.44-5.159-3.884-.928-1.382-.933-1.449-.216-2.698.713-1.243.708-1.337-.19-3.183-1.104-2.275-2.443-2.556-3.82-.804z" fill="#43D854"/></svg></svg>