<svg width="40" height="40" viewBox="0 0 40 40" fill="none" xmlns="http://www.w3.org/2000/svg">
<path fill-rule="evenodd" clip-rule="evenodd" d="M25.1103 3.55884C24.0939 4.74852 22.238 5.78126 21.1165 5.78126C20.6805 5.78126 20.579 5.96368 20.5208 6.85102C20.4497 7.9361 20.1623 8.99454 19.6491 10.0618C19.2401 10.9124 19.2231 10.9715 19.3366 11.1448C19.4547 11.3249 19.7162 11.3829 19.8936 11.2684C20.209 11.0647 20.9444 9.2904 21.1759 8.17493C21.2549 7.79415 21.3304 7.47181 21.3436 7.4586C21.3568 7.4454 21.6136 7.73415 21.9143 8.10032C22.215 8.46642 22.795 9.11446 23.2032 9.5404C23.7655 10.1271 23.9936 10.3145 24.1446 10.3137C24.6344 10.3108 24.6686 9.85212 24.212 9.4104C23.5204 8.74134 21.7969 6.71985 21.7969 6.57759C21.7969 6.53587 21.9286 6.47712 22.0894 6.44688C22.8454 6.30509 24.008 5.68188 24.8418 4.97142C25.1201 4.73438 25.3618 4.55446 25.379 4.57165C25.3961 4.58876 25.543 5.12282 25.7054 5.75845C26.182 7.62376 26.8403 9.2122 27.6347 10.4139C27.8278 10.706 28.0699 11.0002 28.1726 11.0674C28.3428 11.179 28.3768 11.1784 28.5547 11.0619C28.8327 10.8798 28.7996 10.6815 28.3876 10.0619C27.3954 8.56923 26.564 6.29126 26.1695 3.98438C25.9983 2.98251 25.7037 2.86423 25.1103 3.55884ZM32.5933 3.71696C32.4526 3.81548 32.4391 3.96056 32.3987 5.79813C32.3748 6.88454 32.3153 8.03181 32.2663 8.34759C32.187 8.85899 32.192 8.9379 32.3117 9.07024C32.494 9.27165 32.7837 9.25868 32.9202 9.04298C33.0414 8.85157 33.1689 7.82642 33.2504 6.38962L33.3022 5.47462L33.9088 6.03806C34.5201 6.60595 35.4283 7.19556 36.113 7.46907C36.317 7.55056 36.484 7.6404 36.4841 7.66884C36.4843 7.6972 36.1329 8.04485 35.7032 8.44134C35.0898 9.00727 34.9219 9.20696 34.9219 9.37017C34.9219 9.48454 34.9641 9.62032 35.0157 9.67188C35.2319 9.88813 35.4809 9.76735 36.1977 9.09845C36.911 8.4329 36.9128 8.43181 36.9611 8.64923C36.9877 8.76915 37.0701 9.13954 37.1442 9.47235C37.2713 10.0436 37.755 11.1387 38.1276 11.6988C38.3286 12.0012 38.3447 11.9926 37.3854 12.097C36.8268 12.1578 36.6581 12.2063 36.5529 12.3363C36.4093 12.5135 36.4354 12.7527 36.6143 12.9012C36.7618 13.0235 39.0945 12.7742 39.3555 12.6082C39.6333 12.4316 39.5701 12.1897 39.1211 11.7106C38.3358 10.8724 37.8167 9.52454 37.7553 8.16407C37.7128 7.22212 37.6501 7.07665 37.2483 6.98837C35.9377 6.70056 34.1376 5.38602 33.3358 4.13126C33.0347 3.66032 32.834 3.54837 32.5933 3.71696ZM30.8985 9.71868C30.1809 9.94563 29.8567 10.232 29.1205 11.2891C28.8811 11.6328 28.5561 12.0371 28.3983 12.1875C28.0431 12.5259 27.8242 12.9403 27.7624 13.391C27.7184 13.7118 27.6781 13.7609 27.1779 14.1027C26.7237 14.4131 26.6407 14.5044 26.6407 14.694C26.6407 14.8452 26.7024 14.9588 26.8301 15.0424C27.0524 15.1881 27.1506 15.1475 27.9287 14.5885C28.4641 14.2039 28.5911 14.0025 28.5926 13.5345C28.5936 13.2426 28.6443 13.1467 29.0051 12.7532C29.2314 12.5066 29.615 12.0234 29.8575 11.6797C30.5558 10.69 30.8545 10.4688 31.492 10.4688C31.8958 10.4688 32.2234 10.6118 32.6563 10.9772C33.1022 11.3536 33.6792 11.6205 34.2137 11.6975C34.7658 11.7772 34.9604 12.0084 34.8399 12.4414L34.7583 12.7344H32.5919C30.2094 12.7344 30.0782 12.7581 30.0782 13.1881C30.0782 13.5374 30.8209 14.5917 31.6563 15.4281L32.435 16.2078L32.2288 16.3852C31.8387 16.7206 31.6886 16.6458 30.0149 15.2807C29.6149 14.9545 29.2369 14.6875 29.1751 14.6875C29.0315 14.6875 28.7501 14.9663 28.7501 15.1085C28.7501 15.2504 28.9181 15.4322 29.5101 15.9309L29.9968 16.3408L29.8491 16.6302C29.5668 17.1835 29.1343 18.5513 28.9456 19.4877C28.7948 20.2357 28.5938 21.9814 28.5938 22.5426C28.5938 22.612 28.429 22.5832 28.0274 22.4434C27.2558 22.1748 26.4291 22.0373 25.5665 22.034C25.169 22.0325 24.8438 22.0148 24.8438 21.9946C24.8438 21.9745 25.0248 21.6514 25.2461 21.2768C25.626 20.6337 25.6422 20.5845 25.5365 20.3955C25.4131 20.1749 25.1293 20.0947 24.9623 20.2333C24.9033 20.2822 24.669 20.6365 24.4417 21.0206C24.2143 21.4045 24.0061 21.7188 23.9789 21.7188C23.9516 21.7188 23.7695 21.5166 23.5742 21.2695C22.8476 20.3505 21.7665 19.3706 20.9464 18.8877L20.6037 18.6859L21.9954 18.0139C23.5836 17.2471 25.0351 16.4601 25.293 16.226C25.5061 16.0327 25.517 15.8491 25.3259 15.6762C25.1078 15.4788 24.9632 15.5137 24.1904 15.9498C23.0435 16.5971 20.2547 17.9694 20.088 17.9685C20.0611 17.9684 20.038 17.4674 20.0367 16.8552C20.0339 15.6029 19.9104 14.8657 19.5015 13.6613L19.2458 12.9084L21.3639 12.9499C23.2946 12.9877 23.4938 12.9795 23.616 12.8573C23.7729 12.7005 23.7922 12.3959 23.6524 12.2865C23.5987 12.2445 22.3847 12.1665 20.9546 12.1131C18.1226 12.0077 18.0723 12.0131 18.1502 12.4174C18.1715 12.5273 18.3172 12.9256 18.4743 13.3024C18.6314 13.6792 18.8522 14.3296 18.9652 14.7477C19.1542 15.4474 19.1698 15.6226 19.1621 16.9531C19.1575 17.7481 19.1419 18.5196 19.1276 18.6677C19.1061 18.891 19.1351 18.9533 19.2969 19.0317C19.4043 19.0838 19.7911 19.2682 20.1563 19.4416C21.2901 19.9799 22.4371 21.0362 23.4213 22.4485C23.7822 22.9663 23.9487 23.0545 24.3751 22.9534C24.5254 22.9178 25.0704 22.8874 25.586 22.8859C26.6762 22.8827 27.4352 23.0453 28.348 23.4778C28.9925 23.7831 29.1512 23.8064 29.3352 23.6224C29.5043 23.4533 29.7917 23.5788 29.954 23.8928C30.1248 24.2231 30.1898 25.0484 30.0847 25.5542C29.9383 26.2599 29.3766 26.7969 28.7851 26.7969C28.6727 26.7969 28.5943 26.7706 28.6109 26.7383C28.9525 26.0749 29.0596 25.4089 28.9123 24.8646C28.8631 24.6827 28.7626 24.503 28.6888 24.4652C28.6151 24.4274 28.1153 24.3738 27.5782 24.3461C26.4118 24.2859 26.0005 24.2001 25.5918 23.9313C25.3512 23.7731 25.2434 23.7444 25.0925 23.7984C24.7839 23.9087 24.7362 24.1718 24.9737 24.454C25.1699 24.6871 25.1714 24.6976 25.0323 24.8513C24.8356 25.0686 23.8874 25.651 23.3204 25.9028C22.8385 26.1168 21.4091 26.5132 21.3462 26.4504C21.3268 26.431 21.2182 26.1407 21.1047 25.8052C20.9911 25.4698 20.7652 24.9965 20.6027 24.7534C19.993 23.842 18.6993 22.8158 18.1567 22.8133C17.9357 22.8123 17.716 23.0706 17.7477 23.2944C17.7672 23.4318 17.8982 23.5362 18.2813 23.7195C18.5751 23.86 18.9708 24.1413 19.2203 24.387C20.0639 25.2177 20.4581 26.0304 20.5264 27.0797C20.563 27.6429 20.5456 27.7623 20.3709 28.1438C20.2627 28.3802 19.9428 28.8257 19.6601 29.1338C19.0893 29.7557 18.668 30.5312 18.468 31.3277C18.204 32.3791 18.4627 34.0758 18.9818 34.6975C19.0991 34.8381 19.4354 35.0779 19.729 35.2305C20.2949 35.5245 20.4461 35.6804 20.3665 35.8878C20.3243 35.998 20.1622 36.0156 19.1958 36.0156C17.7649 36.0156 17.7968 36.042 17.6683 34.7531C17.5716 33.784 17.3051 32.63 17.0301 31.9906C16.7573 31.3561 16.8001 31.0312 17.2485 30.3305C17.7906 29.4832 17.9415 29.1645 18.2474 28.2208C18.569 27.2287 18.5775 27.0753 18.3204 26.9069C18.1418 26.7899 18.1089 26.7895 17.9365 26.9024C17.8329 26.9704 17.7243 27.1337 17.6954 27.2652C17.6458 27.4913 17.6269 27.5019 17.3566 27.4568C15.4841 27.1446 14.5359 26.2191 14.9301 25.0884C15.0411 24.7699 14.8603 24.4531 14.5674 24.4531C14.1372 24.4531 13.8951 25.3276 14.1038 26.1284C14.244 26.6671 14.2584 26.6491 13.5157 26.8703C12.5582 27.1556 12.014 27.2189 10.5079 27.2202C7.86513 27.2226 6.20099 26.8075 4.65896 25.7615C1.88529 23.88 0.551224 19.3151 1.77654 15.8984C2.65513 13.4487 4.66935 11.7089 6.83599 11.5284C7.43435 11.4786 7.45747 11.4544 6.49279 11.8874C4.77044 12.6606 3.55255 14.2874 3.17271 16.322C3.08076 16.8144 3.07326 16.8254 2.77115 16.9102C2.37966 17.02 2.23497 17.3284 2.45888 17.5758C2.53779 17.663 2.68677 17.7344 2.7899 17.7344C2.96482 17.7344 2.97575 17.7592 2.95357 18.1055C2.9299 18.4743 2.92786 18.4768 2.61724 18.5184C2.1963 18.5747 2.10943 18.6411 2.10943 18.9064C2.10943 19.2123 2.34779 19.3701 2.73193 19.3185C3.04825 19.2761 3.04943 19.2774 3.1513 19.7656C3.18786 19.941 3.14466 19.9825 2.72786 20.1719C2.2324 20.3971 2.14224 20.5119 2.21935 20.8193C2.29036 21.1021 2.59513 21.152 3.00404 20.9477C3.18747 20.8562 3.3688 20.7813 3.40708 20.7814C3.44529 20.7816 3.58154 20.9837 3.70974 21.2306C3.99802 21.7858 5.0299 22.8327 5.64372 23.1926C5.89029 23.3372 6.40005 23.5649 6.77654 23.6984C7.42075 23.9271 7.52755 23.9416 8.5938 23.9433C9.54529 23.9449 9.82521 23.9167 10.3426 23.7669C11.1554 23.5315 11.8811 23.218 12.5405 22.8174C13.0126 22.5306 13.1001 22.502 13.2545 22.5847C13.5261 22.7301 13.8474 22.4935 13.814 22.1728C13.7933 21.9744 13.8429 21.8899 14.1093 21.67L14.4294 21.4056L14.6725 21.7966C14.9344 22.2181 15.1824 22.3065 15.4242 22.0648C15.5999 21.8891 15.5787 21.7543 15.2988 21.265L15.0506 20.8313L15.3947 20.5349L15.7386 20.2386L15.9585 20.723C16.3403 21.5639 16.6279 21.9531 16.8676 21.9531C17.3234 21.9531 17.385 21.6024 17.0303 21.026C16.824 20.6909 16.4497 19.7658 16.5037 19.7252C16.6384 19.6241 17.2778 19.2852 17.2929 19.307C17.304 19.3229 17.3776 19.4843 17.4565 19.6656C17.5353 19.847 17.6676 20.0568 17.7506 20.1318C17.8872 20.2555 17.9211 20.2573 18.1108 20.151C18.3817 19.9995 18.4041 19.8048 18.2043 19.3386L18.0422 18.9604L18.2008 18.7916C18.4149 18.5637 18.4009 18.312 18.1655 18.1578C17.9811 18.037 17.9465 18.0426 17.454 18.2731C16.2579 18.8327 15.1149 19.6309 13.8516 20.7884C12.1108 22.3834 10.429 23.1436 8.63286 23.147C7.6299 23.1488 6.86919 22.9435 6.0263 22.4434C5.40122 22.0725 4.63732 21.267 4.35029 20.6761C3.93169 19.8141 3.80255 19.0856 3.84997 17.8529C3.87841 17.1151 3.94529 16.5539 4.05505 16.1328C4.68396 13.7192 6.43497 12.2634 8.86724 12.1317C9.70763 12.0862 9.92193 11.9931 9.92193 11.6733C9.92193 11.2394 8.71068 10.7802 7.41068 10.7214C5.65076 10.6417 4.17677 11.2839 2.76497 12.7454C1.76216 13.7835 1.13951 14.9204 0.720365 16.4786C0.542552 17.1395 0.518646 17.3813 0.515052 18.5547C0.510521 20.0118 0.600677 20.6049 1.03107 21.9513C1.81482 24.4026 3.4631 26.3013 5.60247 27.2169C6.7463 27.7065 7.79325 27.9265 9.54052 28.0445C11.362 28.1675 13.2998 27.9228 14.4166 27.4288L14.7796 27.2683L15.0305 27.4597C15.3935 27.7365 16.0623 28.0149 16.7474 28.1743C17.286 28.2996 17.3393 28.3288 17.2947 28.473C17.2113 28.7427 16.7887 29.552 16.5483 29.9027C15.9233 30.8138 15.8883 31.2199 16.3254 32.4949C16.6594 33.4696 16.8751 34.5338 16.8751 35.2081C16.8751 35.9324 17.1843 36.4555 17.7735 36.7274C18.0328 36.847 18.2855 36.8718 19.2579 36.873C20.2835 36.8742 20.4609 36.8554 20.6794 36.7222C21.6094 36.1551 21.3123 34.9824 20.113 34.4868C19.6604 34.2998 19.5567 34.1778 19.3628 33.6042C19.1251 32.9008 19.1268 31.8842 19.3672 31.1852C19.5821 30.5599 19.8288 30.168 20.4025 29.54C20.9377 28.9542 21.2196 28.4181 21.344 27.749C21.4107 27.3906 21.4668 27.2656 21.5615 27.2656C21.8068 27.2656 23.0115 26.9313 23.4277 26.7477C23.6586 26.6459 23.858 26.5625 23.8708 26.5625C23.8835 26.5625 23.9168 26.7823 23.945 27.0508C24.045 28.0059 23.8662 28.6403 23.1287 29.9482C22.6436 30.8086 22.7302 31.8541 23.4027 33.2542C23.8629 34.2122 24.3072 34.6817 25.1509 35.1018C25.668 35.3592 25.8404 35.4884 25.9525 35.7031L26.0954 35.9766L25.0794 35.9984C24.2851 36.0154 24.0129 35.9939 23.831 35.8999C23.5456 35.7523 23.4947 35.6595 23.1997 34.7482C22.8761 33.7486 22.2693 32.5513 21.8025 31.9919C21.5876 31.7342 21.3175 31.3652 21.2022 31.1719C20.7602 30.4306 20.7872 30.4581 20.524 30.4837C19.9415 30.5404 20.1272 31.2687 20.978 32.2648C21.5174 32.8963 22.0934 34.0096 22.426 35.0634C22.7243 36.0086 22.9823 36.4013 23.4552 36.6302C23.7698 36.7826 23.928 36.7969 25.2954 36.7969C26.7462 36.7969 26.7941 36.7918 26.8813 36.6289C27.0947 36.2302 26.7003 35.1051 26.2184 34.7375C26.0742 34.6275 25.7499 34.4463 25.4976 34.3349C24.7679 34.0123 24.3297 33.4896 23.9556 32.4956C23.5091 31.3095 23.5322 30.7863 24.0675 29.9576C24.6261 29.0926 24.7196 28.7201 24.7272 27.3295L24.734 26.1045L25.2314 25.728C25.505 25.5209 25.8118 25.2865 25.9133 25.207C26.0837 25.0732 26.164 25.0688 26.9787 25.1484C27.4634 25.1956 27.9196 25.2344 27.9925 25.2344C28.0964 25.2344 28.125 25.3061 28.1247 25.5664C28.1244 25.9777 27.9027 26.3583 27.5384 26.5733C27.3104 26.7077 27.2657 26.7785 27.2657 27.0043C27.2657 27.2509 27.2979 27.289 27.6368 27.442C28.1725 27.6838 29.1311 27.683 29.5877 27.4401C30.0797 27.1784 30.4116 26.8559 30.6662 26.3921C30.8694 26.022 30.8976 25.8859 30.9243 25.1463C30.9737 23.7744 30.654 23.0936 29.8087 22.7708L29.4532 22.635V22.1295C29.4532 21.6798 29.4683 21.6298 29.5899 21.6772C29.7408 21.736 30.5846 21.9198 31.0215 21.989C31.1902 22.0157 31.3913 22.1276 31.5294 22.2715C31.7486 22.5002 31.7589 22.5437 31.7829 23.3448C31.8059 24.1174 31.7928 24.2077 31.6071 24.5549C31.3885 24.9634 31.3539 25.2288 31.5001 25.375C31.6649 25.5399 31.9318 25.4777 32.1444 25.2249C32.5295 24.7674 32.6069 24.4844 32.6123 23.5156C32.6179 22.5046 32.5316 22.1617 32.1677 21.7471C31.8525 21.3881 31.6076 21.2709 30.8828 21.1323C30.5495 21.0685 30.1149 20.9625 29.9169 20.8968L29.5571 20.7773L29.6301 20.2909C29.7854 19.2557 30.3958 17.1823 30.6182 16.9346C30.6466 16.903 30.8092 16.972 30.9795 17.088C31.4186 17.3872 32.1094 17.4251 32.5154 17.1721C32.8227 16.9806 33.9063 15.7499 33.9063 15.5924C33.9063 15.2561 33.4092 15.0945 33.1358 15.3418C32.9536 15.5067 32.8972 15.502 32.6871 15.3047C32.5514 15.1773 32.5218 15.0831 32.5543 14.8827C32.5891 14.6678 32.5629 14.603 32.3971 14.4943C32.2443 14.3942 32.1618 14.3833 32.0418 14.4475C31.8887 14.5295 31.734 14.3863 31.2244 13.6914C31.1696 13.6167 31.2467 13.5938 31.553 13.5938C31.8899 13.5938 31.9532 13.6166 31.9532 13.7379C31.9532 13.8172 32.0259 13.9478 32.1147 14.0283C32.2623 14.1618 32.2946 14.1643 32.4858 14.0573C32.6011 13.9928 32.7066 13.8622 32.7204 13.767C32.7404 13.6279 32.7965 13.5938 33.0048 13.5938C33.2175 13.5938 33.2733 13.6295 33.314 13.7917C33.4202 14.2148 34.0026 14.2112 34.1092 13.7868C34.1714 13.5388 34.5313 13.5059 34.5313 13.7482C34.5313 13.8331 34.6192 13.9602 34.7266 14.0306C34.9036 14.1466 34.9392 14.1473 35.1063 14.0378C35.3526 13.8764 35.7442 12.4963 35.6798 12.0165C35.6003 11.4231 35.1179 10.9896 34.4328 10.8959C33.8552 10.817 33.7277 10.7568 33.0418 10.2399C32.2418 9.6372 31.6281 9.4879 30.8985 9.71868ZM25.2075 10.846C25.0141 11.0596 25.0486 11.2079 25.3543 11.4763C25.781 11.8509 26.1719 11.7745 26.1719 11.3165C26.1719 11.1648 26.0953 11.0432 25.9107 10.9024C25.602 10.667 25.3852 10.6496 25.2075 10.846ZM31.0603 11.2946C30.9061 11.4488 30.9017 11.748 31.0517 11.8724C31.1144 11.9245 31.3043 11.9858 31.4736 12.0084C31.7346 12.0434 31.7956 12.0234 31.874 11.877C32.002 11.6378 31.9172 11.3724 31.6779 11.2634C31.4039 11.1385 31.2065 11.1485 31.0603 11.2946ZM38.2023 13.6734C37.9752 14.0978 37.9425 15.5374 38.1368 16.5491C38.1808 16.7781 38.199 16.9834 38.1772 17.0052C38.1136 17.0687 36.9114 16.4359 36.2147 15.9723C35.863 15.7383 35.4994 15.5469 35.4067 15.5469C35.313 15.5469 35.1811 15.6337 35.1101 15.7422C34.9912 15.9236 34.9915 15.9519 35.1143 16.1395C35.2754 16.3852 36.1804 16.9758 37.2072 17.505L37.9691 17.8977L37.3477 18.3659C36.5608 18.9588 35.7175 19.8685 35.2435 20.6355L34.875 21.2318L34.6925 20.7527C34.4591 20.14 33.5629 18.3623 33.3526 18.0949C33.1494 17.8367 32.8573 17.8278 32.6954 18.0749C32.5548 18.2895 32.5739 18.3544 32.9968 19.1016C33.3895 19.7956 33.9611 21.0777 34.2974 22.0195C34.4957 22.5748 34.6033 22.7706 34.7461 22.8356C35.0275 22.9638 35.1677 22.8308 35.3964 22.2181C35.6686 21.4892 35.8583 21.1366 36.2801 20.5755C36.7972 19.8876 37.5991 19.161 38.5125 18.553C39.4245 17.9459 39.384 18.0657 39.0669 16.9141C38.8669 16.1877 38.781 14.9267 38.8872 14.2777C38.9447 13.9263 38.9368 13.795 38.8509 13.6723C38.7035 13.4618 38.3152 13.4625 38.2023 13.6734ZM26.1278 18.353C25.9622 18.6033 25.9409 18.6884 26.0113 18.8199C26.2122 19.1954 26.6217 19.1645 26.8319 18.7579C26.9893 18.4536 26.9848 18.3342 26.8103 18.1762C26.5712 17.9599 26.3501 18.0171 26.1278 18.353ZM18.418 20.7094C18.1183 20.884 18.3803 21.5625 18.7476 21.5625C19.1172 21.5625 19.2598 21.0949 18.9814 20.796C18.809 20.611 18.6333 20.584 18.418 20.7094Z" fill="#F56200"/>
</svg>
