<svg width="40" height="40" viewBox="0 0 40 40" fill="none" xmlns="http://www.w3.org/2000/svg">
<path fill-rule="evenodd" clip-rule="evenodd" d="M35.1563 1.38749C34.9371 1.48749 34.4414 1.52328 32.6563 1.56773C31.4042 1.59898 30.3062 1.66156 30.1476 1.71078C29.7113 1.84601 29.2508 2.2214 29.0155 2.63343C28.7134 3.16249 28.635 3.24328 27.8907 3.79242C26.9975 4.4514 26.0157 5.46476 26.0157 5.72765C26.0157 6.13257 26.1218 6.15851 27.5903 6.11226L28.9366 6.06992L28.2531 6.75804C27.4887 7.52765 27.3312 7.7682 27.4263 8.02046C27.5249 8.2821 27.748 8.30374 28.5515 8.12968C29.0491 8.02187 29.5847 7.96812 30.1745 7.96687C30.6587 7.96578 31.2108 7.92898 31.4015 7.88499C31.7461 7.80562 31.7506 7.80734 32.0881 8.14484C32.4878 8.54453 32.6367 8.99038 32.7076 9.99999C32.7612 10.7631 32.6219 11.4518 32.3169 11.9319C32.0714 12.3184 31.9033 12.4621 31.4815 12.6465C31.0417 12.8387 30.7703 12.8613 29.8348 12.7837C28.0424 12.6349 26.277 13.1002 24.4229 14.21C23.5665 14.7226 23.0852 14.8862 21.9883 15.038C20.5992 15.2301 19.8454 15.5174 18.9344 16.2023C18.6718 16.3997 18.3262 16.7059 18.1665 16.8826C17.9052 17.1718 17.8005 17.2232 17.1217 17.3949C12.8333 18.4801 9.51983 20.7129 7.32467 23.9965C6.39764 25.3831 5.77951 26.7345 5.2253 28.5859C4.70131 30.3364 4.12217 31.3069 2.9867 32.3371C2.11256 33.1302 1.7742 33.8022 1.41115 35.4655C1.32412 35.8644 1.16076 36.3887 1.04811 36.6305C0.93553 36.8724 0.814514 37.1663 0.779202 37.2837C0.612639 37.8369 1.14287 38.5159 1.74108 38.5153C2.72342 38.5144 4.18451 36.8287 4.79983 34.9862C5.04795 34.2432 5.04803 34.1757 4.80155 34.0141C4.47162 33.798 4.26647 33.9559 4.06076 34.5844C3.66217 35.8025 3.04248 36.7735 2.27334 37.3853C1.7942 37.7664 1.80483 37.7617 1.64959 37.6634C1.56123 37.6075 1.59233 37.4748 1.81881 36.9419C1.97147 36.5829 2.15498 35.996 2.22655 35.6378C2.37881 34.8767 2.55834 34.3287 2.83319 33.7863C3.01537 33.4268 3.06615 33.3856 3.48647 33.2562C4.1399 33.055 4.85358 32.6989 5.28803 32.3574C5.90217 31.8747 5.87334 31.8641 5.8174 32.5516C5.71725 33.7834 5.46014 35.3274 5.26326 35.8793C4.82662 37.1033 4.24006 37.8906 3.76475 37.8906C3.42326 37.8906 3.26483 38.0493 3.29467 38.3614C3.36444 39.0908 4.51584 38.7568 5.22576 37.8013L5.49045 37.445L5.83615 37.6382C6.11319 37.793 6.25787 37.8241 6.56428 37.7947C7.14631 37.7387 7.4442 37.4691 7.71076 36.7572C7.87553 36.317 7.95873 36.1835 8.04694 36.2178C8.85412 36.5312 9.71475 36.1174 9.9578 35.299C10.2619 34.2747 10.2958 32.3808 10.0456 30.3906C9.86303 28.9387 9.8185 27.5558 9.91748 26.4082L10.0082 25.3555L10.3262 24.9434C10.501 24.7167 10.6501 24.5312 10.6573 24.5312C10.6647 24.5312 10.6738 25.0674 10.6776 25.7227C10.6825 26.5457 10.7501 27.3971 10.8961 28.4766C11.0124 29.3359 11.1133 30.3791 11.1202 30.7948C11.1324 31.5205 11.1244 31.5594 10.918 31.7756C10.667 32.0387 10.6484 32.1919 10.8461 32.3707C11.1288 32.6266 11.4801 32.4711 11.7894 31.9531C11.9275 31.7217 11.9526 31.5519 11.9529 30.8485L11.9532 30.0174L12.2174 29.9678C12.9344 29.8333 13.3993 29.1487 13.4882 28.0963L13.5374 27.5139L13.8429 27.3762C14.0109 27.3004 14.2519 27.1205 14.3784 26.9764C14.9351 26.3424 15.1441 25.5807 15.2419 23.8299C15.2815 23.1199 15.3344 22.4305 15.3594 22.2977C15.4434 21.8506 14.8951 21.5961 14.659 21.9727C14.5016 22.2237 14.4504 22.5927 14.3754 24.0157C14.3326 24.8264 14.2616 25.4172 14.1758 25.678C14.0452 26.0742 13.6535 26.6406 13.51 26.6406C13.4687 26.6406 13.4376 26.1255 13.4376 25.4399C13.4376 24.0952 13.5624 23.2089 13.8891 22.2351C14.1011 21.6031 14.1027 21.6009 14.5651 21.3555C14.82 21.2201 15.1603 21.0659 15.3213 21.0127C15.6029 20.9198 15.63 20.9276 16.0297 21.2149C16.2583 21.3793 16.4582 21.5229 16.4738 21.534C16.4894 21.5452 16.4254 21.6787 16.3315 21.8306C16.1693 22.093 16.1665 22.4219 16.3264 22.4219C16.3626 22.4219 16.727 22.7295 17.1361 23.1055C17.9297 23.8348 18.4667 24.1979 19.1952 24.4974C19.936 24.802 20.3126 24.7324 20.3126 24.2908C20.3126 24.0421 20.2214 23.9592 19.8047 23.8288C19.1779 23.6327 18.414 23.1664 17.8375 22.6279L17.2486 22.078L17.5305 21.8517C17.8945 21.5597 17.9245 21.2148 17.5977 21.0798C16.8897 20.7871 16.5627 20.6262 16.5641 20.5707C16.565 20.5361 16.8856 20.3392 17.2766 20.1332C17.6676 19.9272 18.407 19.4877 18.9198 19.1566C20.6939 18.0112 21.1613 17.7569 22.0119 17.4744C22.4737 17.321 22.9922 17.173 23.1641 17.1455L23.4766 17.0955L23.4657 17.5575C23.455 18.0076 23.4438 18.0305 23.0283 18.4459C22.686 18.7882 22.5823 18.9539 22.5027 19.2859C22.4481 19.5134 22.423 19.8202 22.4469 19.9675C22.486 20.2084 22.4654 20.2483 22.2413 20.3641C21.4719 20.762 21.1617 21.2284 21.1573 21.9939C21.155 22.393 21.1977 22.5925 21.3473 22.8808L21.5403 23.2527L21.3252 23.4934C21.1201 23.723 20.8876 24.4654 20.9761 24.6085C20.998 24.6438 20.8312 24.8052 20.6056 24.9671C19.9862 25.4115 19.3351 26.0584 18.7637 26.7969C17.9132 27.896 17.5069 28.3429 16.9065 28.8395C16.1023 29.5047 16.0157 29.711 16.0157 30.9607C16.0157 31.5049 15.9782 32.3991 15.9323 32.9477C15.8612 33.7991 15.8154 34.0113 15.6198 34.3957C15.2465 35.1294 15.3527 35.6002 15.9696 35.9453C16.4118 36.1927 17.071 36.8292 17.4274 37.3528C17.7949 37.8928 18.1186 38.1723 18.4986 38.2778C18.6583 38.3222 19.4956 38.3587 20.359 38.3589C22.1596 38.3594 22.189 38.3493 22.1858 37.7282C22.1813 36.8124 21.4258 36.0937 20.4674 36.0937C19.9322 36.0937 19.7032 35.9578 19.2087 35.3464C18.9779 35.0612 18.7188 34.741 18.6329 34.6349C18.4885 34.4568 18.4747 34.3048 18.4517 32.6407L18.4268 30.8393L18.6771 30.4726C19.0226 29.9661 19.3133 29.7903 20.248 29.5225C20.6917 29.3954 21.3887 29.1256 21.7969 28.923C22.4826 28.5827 22.541 28.5357 22.5633 28.3056C22.582 28.1116 22.5447 28.0285 22.3944 27.9301C22.2098 27.8091 22.1754 27.8168 21.5891 28.1091C20.9209 28.4422 20.6186 28.5563 19.5986 28.8608C19.0556 29.0227 18.8463 29.1316 18.5286 29.4173C18.3113 29.6126 18.0585 29.8939 17.9667 30.0425C17.8047 30.3047 17.7854 30.3125 17.3024 30.3125H16.8051L16.8855 30.0818C16.9318 29.9491 17.1929 29.6654 17.5002 29.414C18.0823 28.9376 18.6165 28.3513 19.3507 27.3828C19.8284 26.7526 20.6411 25.9251 21.032 25.6708C21.2425 25.5339 21.2452 25.5346 21.5265 25.8078C21.6821 25.9589 21.9787 26.1434 22.1858 26.2179C22.5337 26.343 22.5661 26.3771 22.6126 26.6679C22.7656 27.6248 23.6782 28.2539 24.6205 28.0518C24.8335 28.0061 25.0194 27.9687 25.0335 27.9687C25.0476 27.9687 25.1028 28.0738 25.156 28.2023C25.2092 28.3307 25.3901 28.5599 25.558 28.7116C25.8123 28.9414 25.8499 29.0124 25.7833 29.137C25.6528 29.3808 25.6922 29.8637 25.8656 30.1484L26.0275 30.4138L25.5226 30.9296C24.9668 31.4973 24.8438 31.6884 24.8438 31.9848C24.8438 32.1627 24.7865 32.2004 24.2849 32.3527C23.9776 32.4461 23.5293 32.5262 23.2888 32.5308C22.9017 32.5381 22.849 32.5204 22.8283 32.3758C22.8119 32.2613 22.9112 32.1255 23.1603 31.9213C23.5528 31.5998 23.6143 31.3634 23.3643 31.1372C23.2222 31.0087 23.182 31.0079 22.7147 31.1251C22.4408 31.1937 22.0519 31.25 21.8505 31.25C21.548 31.25 21.4844 31.2252 21.4844 31.1071C21.4844 31.0112 21.6181 30.902 21.8913 30.7751C22.4379 30.521 23.153 30.0573 23.6524 29.6331C23.9615 29.3706 24.0626 29.2323 24.0626 29.0721C24.0626 28.6376 23.6043 28.5227 23.2754 28.8745C23.0339 29.1329 21.9761 29.8344 21.3672 30.14C20.8482 30.4005 20.6249 30.6912 20.6254 31.1058C20.626 31.6554 21.1369 32.1094 21.7547 32.1094C21.9208 32.1094 22.0208 32.1413 21.9933 32.1857C21.9018 32.3339 22.126 32.9216 22.3562 33.1366C22.4844 33.2564 22.708 33.3766 22.8531 33.4038C23.1487 33.4593 24.1902 33.2693 24.8383 33.0416C25.0715 32.9597 25.2791 32.9093 25.2995 32.9296C25.3199 32.95 24.948 33.347 24.4733 33.8119C23.9985 34.2768 23.5362 34.7782 23.4459 34.9262C23.2319 35.2773 23.2294 35.8122 23.4399 36.1576C23.6183 36.4501 24.2089 36.7538 24.4935 36.6994C24.6415 36.6711 24.6812 36.7062 24.72 36.9002C24.7861 37.231 25.1297 37.6531 25.4376 37.7817C25.796 37.9315 26.1485 37.9155 26.5547 37.7312C26.7437 37.6455 26.9019 37.5848 26.9062 37.5962C27.0272 37.9166 27.2869 38.2784 27.5001 38.4231C27.7383 38.585 27.8387 38.604 28.2813 38.5708C29.4047 38.4866 32.0107 37.3792 33.3746 36.4066C34.6557 35.493 36.1115 33.8947 36.8889 32.5482C37.0655 32.2424 37.3955 31.7067 37.6222 31.3578C38.7666 29.5966 39.2256 28.0249 39.2313 25.8474C39.2347 24.5581 39.1287 24.0356 38.7394 23.424C37.9869 22.2412 36.7536 21.7561 34.2335 21.6513L33.0372 21.6016L33.7985 20.7535L34.5598 19.9055L35.0338 19.9375C35.6743 19.9809 36.0765 20.184 36.2261 20.5396C36.4799 21.1432 36.5292 21.211 36.731 21.2347C37.0452 21.2716 37.2133 21.0518 37.1541 20.6815C37.0283 19.8948 36.358 19.2823 35.4751 19.1473C35.2783 19.1172 35.1258 19.0594 35.1362 19.0189C35.2436 18.602 35.4976 18.0637 35.8051 17.601C36.4969 16.5605 36.8447 15.6361 37.3074 13.6085C37.9819 10.6531 37.8447 7.99367 36.9017 5.74453C36.7582 5.4021 36.6408 5.10328 36.6408 5.08046C36.641 5.05773 36.8374 4.93648 37.0774 4.81109C37.603 4.5364 37.7693 4.32054 37.6655 4.04765C37.5616 3.77429 36.8579 3.16492 36.4016 2.95312L36.0144 2.77343L36.06 2.41296C36.1414 1.76913 35.8972 1.23374 35.5326 1.2564C35.476 1.25984 35.3067 1.3189 35.1563 1.38749ZM34.5704 2.34734C34.3555 2.38078 33.3788 2.41124 32.3999 2.41499C30.1818 2.42359 29.9755 2.48671 29.5689 3.28124C29.38 3.65046 29.0515 3.99296 28.5938 4.29812C28.4434 4.39835 28.1287 4.64124 27.8943 4.83781L27.4682 5.19531L27.8943 5.25093C28.404 5.31749 30.4573 5.19382 30.8985 5.06999C31.7467 4.83195 32.3463 4.34859 32.6876 3.62781C32.865 3.2532 32.9162 3.20312 33.1222 3.20312C33.2857 3.20312 33.3946 3.26226 33.4848 3.39992C33.6083 3.58843 33.6034 3.61773 33.3707 4.09054C32.9263 4.9932 31.9687 5.69663 30.8669 5.92984C30.4595 6.01601 29.8912 6.36734 29.2451 6.93234L28.998 7.14843L30.0655 7.13687C30.6526 7.13054 31.2349 7.08546 31.3597 7.03663C31.4844 6.98788 31.7832 6.77851 32.0237 6.5714C32.5461 6.12163 32.682 6.04554 33.1516 5.94031C33.6497 5.82867 34.201 5.95953 34.6379 6.29312C35.1855 6.71124 35.9832 7.76968 36.46 8.71093L36.8954 9.57031L36.8446 8.99312C36.7373 7.77382 36.3837 6.51749 35.845 5.44218C35.5538 4.86101 35.5444 4.82015 35.6615 4.6414C35.7294 4.53788 35.8163 4.45312 35.8547 4.45312C35.8932 4.45312 36.0897 4.38234 36.2914 4.29585C36.6094 4.1596 36.6447 4.12234 36.5567 4.01632C36.4127 3.84288 35.7867 3.53835 35.4405 3.47343C35.2632 3.44015 35.101 3.34757 35.0298 3.23898C34.923 3.07601 34.927 3.03062 35.0733 2.74382C35.3358 2.22945 35.3344 2.22835 34.5704 2.34734ZM30.5367 3.32109C30.2843 3.4582 30.2172 3.61617 30.3087 3.85718C30.4041 4.10796 30.6832 4.16663 30.9743 3.9971C31.2642 3.82828 31.3132 3.57874 31.0986 3.36413C30.9106 3.17617 30.8166 3.16898 30.5367 3.32109ZM32.9297 6.91585C32.3725 7.29281 32.3808 7.25687 32.7604 7.64953C33.5617 8.47843 34.0177 9.26078 34.3324 10.3466C34.751 11.7911 34.6565 13.1674 34.0628 14.2734L33.7608 14.8358L34.1882 14.96C34.7242 15.1159 35.1605 15.5341 35.3684 16.0915L35.5197 16.4973L35.7222 16.0416C36.2948 14.753 36.4451 13.9855 36.4383 12.3828C36.4316 10.8221 36.3087 10.2431 35.7401 9.09468C35.391 8.38976 34.5248 7.22663 34.1301 6.93288C34.0169 6.84867 33.7708 6.76281 33.5832 6.7421C33.3039 6.71132 33.1858 6.74273 32.9297 6.91585ZM33.4864 11.0625C33.4148 11.6948 33.0584 12.4178 32.5848 12.8914C32.3705 13.1058 32.2436 13.2812 32.3029 13.2812C32.642 13.2812 32.7733 13.8259 32.4805 14.0178C32.3237 14.1206 32.2419 14.1165 31.7221 13.9801C30.4768 13.6531 29.8451 13.573 28.8672 13.6178C27.4303 13.6837 26.3247 14.0268 25.0436 14.8045C24.128 15.3603 23.5269 15.6069 22.7612 15.7409C20.9791 16.0527 20.8025 16.0979 20.1954 16.399C19.2671 16.8593 18.5912 17.5115 17.967 18.5493C17.7243 18.953 17.7899 18.9255 19.0571 18.0925C21.3523 16.5837 22.5104 16.2279 25.5638 16.093C26.521 16.0507 27.691 15.9788 28.1638 15.9333C29.0382 15.849 30.747 15.4687 31.7836 15.1276C32.7291 14.8165 33.3147 14.2177 33.6037 13.2666C33.7467 12.7955 33.765 12.5893 33.7296 11.846C33.7069 11.3678 33.6547 10.8902 33.6139 10.7848C33.5495 10.6188 33.5323 10.6562 33.4864 11.0625ZM31.6797 16.0194C31.1212 16.1872 30.4005 16.3823 30.0782 16.4529C29.7559 16.5234 29.4625 16.6085 29.4261 16.6419C29.3898 16.6752 29.31 16.9962 29.2488 17.3552C29.0757 18.3716 28.77 19.2324 28.3026 20.0196C27.7413 20.9648 27.6402 21.2538 27.6347 21.9289C27.6309 22.4105 27.6666 22.5645 27.8849 23.0079C28.1761 23.5993 28.551 23.9192 29.1676 24.1023C29.6555 24.2472 30.4395 24.25 31.0547 24.1091C32.1943 23.8481 32.8507 23.8911 33.398 24.2625C33.5844 24.389 33.7894 24.4535 34.0074 24.4543C35.1555 24.4583 36.2778 25.073 36.9677 26.0759C37.3994 26.7032 37.7672 27.994 37.8183 29.0605C37.8278 29.2601 38.1049 28.4053 38.2535 27.7177C38.3552 27.2473 38.3934 26.7285 38.3935 25.8203C38.3935 24.6881 38.3768 24.5335 38.2164 24.1797C37.7277 23.1021 36.8055 22.6634 34.6821 22.4982C33.8128 22.4305 33.3792 22.4506 31.2501 22.6573C30.1319 22.7658 29.4832 22.6965 29.3226 22.4513C29.2119 22.2825 29.2125 22.2478 29.3288 22.0703C29.4494 21.8864 29.497 21.875 30.1463 21.875C30.5256 21.875 31.1044 21.8523 31.4326 21.8245L32.0292 21.7741L32.2576 21.3753C32.3832 21.156 32.7569 20.6777 33.088 20.3125C34.3819 18.8852 34.6876 18.275 34.6874 17.1207C34.6872 16.0421 34.3455 15.699 33.2813 15.7087C32.8367 15.7129 32.4504 15.7878 31.6797 16.0194ZM27.9701 16.9281C27.5015 17.1321 27.2513 17.3563 27.093 17.7141C27.009 17.9043 26.9519 18.0703 26.9662 18.0832C26.9917 18.106 28.0811 18.3594 28.1537 18.3594C28.1862 18.3594 28.31 17.8562 28.4758 17.0508C28.5367 16.7551 28.4281 16.7287 27.9701 16.9281ZM25.3827 16.9475C24.6055 16.9938 24.4159 17.0699 24.2966 17.3836C24.1903 17.6634 24.2915 17.9212 24.5571 18.0469C24.7344 18.1308 24.8119 18.2264 24.8299 18.3836C24.8706 18.7387 24.7171 18.8522 24.2751 18.7935C23.9088 18.7449 23.8834 18.7545 23.5836 19.0543C23.2955 19.3424 23.2741 19.3935 23.2964 19.7414C23.3203 20.1154 23.3219 20.1174 23.6329 20.1605C24.1035 20.2258 24.2969 20.3591 24.2969 20.6182C24.2969 20.9638 24.1481 21.0335 23.538 20.9734C23.0762 20.9279 22.9512 20.945 22.6254 21.0981C22.1358 21.3283 21.9329 21.6426 21.9794 22.0987C22.0344 22.6391 22.238 22.8466 22.7423 22.8767C22.9744 22.8905 23.2993 22.8617 23.4645 22.8127C23.7225 22.7362 23.7865 22.7431 23.9176 22.8617C24.0195 22.954 24.0624 23.079 24.0469 23.2382C24.0263 23.4477 23.9762 23.4927 23.6329 23.6098C23.418 23.6832 23.0081 23.7447 22.7219 23.7466C22.2386 23.7498 22.187 23.7671 21.9992 23.9904C21.6127 24.4497 21.7925 25.1335 22.3685 25.3951C22.8087 25.5948 23.0565 25.5843 23.5277 25.3455C23.9936 25.1094 24.2698 25.1383 24.3433 25.4307C24.4173 25.7259 24.3418 25.8327 23.8707 26.0986C23.5281 26.2919 23.4376 26.3834 23.4376 26.536C23.4376 26.8124 23.5646 27.0121 23.8266 27.1476C24.303 27.394 24.8959 27.2097 25.3413 26.6769C25.6798 26.2719 25.9411 26.2198 26.1366 26.5182C26.2739 26.7277 26.2187 26.9116 25.9202 27.2397C25.8052 27.3661 25.7792 27.4687 25.8177 27.6441C25.8772 27.9148 26.2122 28.282 26.3974 28.2796C26.4668 28.2787 26.759 28.0794 27.0469 27.8367L27.5702 27.3955L27.2239 27.0906C26.9938 26.8881 26.8319 26.6574 26.7418 26.4034C26.6126 26.0396 26.5877 26.0172 26.2288 25.9402C25.7047 25.8278 25.451 25.6812 25.1284 25.3044C24.7958 24.9157 24.6494 24.36 24.7061 23.7004C24.7367 23.3441 24.7115 23.1748 24.5926 22.9392C24.2441 22.2483 24.3511 21.3934 24.8584 20.8156C25.07 20.5746 25.0894 20.5022 25.1027 19.8999C25.1154 19.3285 25.1447 19.2043 25.3351 18.9169C25.455 18.736 25.6909 18.4926 25.8595 18.376C26.0894 18.217 26.1668 18.1098 26.169 17.9467C26.1725 17.6878 26.3622 17.2095 26.5386 17.0146C26.6816 16.8565 26.7979 16.8633 25.3827 16.9475ZM16.9922 18.2659C16.5486 18.3627 14.9039 18.9499 14.2357 19.2502C11.5926 20.4381 9.43194 22.2532 7.94912 24.5312C7.12803 25.7927 6.43834 27.3482 5.97467 28.9844C5.73795 29.8198 5.29358 30.827 4.92608 31.3612C4.79076 31.5578 4.70451 31.7187 4.73436 31.7187C4.85553 31.7187 5.4592 31.1597 5.76014 30.7687C5.9367 30.5393 6.38139 29.7539 6.74834 29.0234C7.65639 27.2158 8.58647 25.7934 9.96631 24.1016C11.4424 22.2919 13.2019 20.9429 14.961 20.2723C16.4318 19.7115 16.4189 19.7205 16.8287 18.9578C17.0326 18.578 17.1881 18.2593 17.174 18.2495C17.16 18.2398 17.0782 18.2472 16.9922 18.2659ZM26.2575 19.1073C26.0041 19.3205 25.8265 19.7664 25.8714 20.0763C25.9008 20.2791 26.0251 20.3312 26.6875 20.4185L27.0858 20.471L27.458 19.8407C27.6627 19.494 27.8103 19.1905 27.7859 19.1661C27.7251 19.1052 26.8752 18.909 26.6662 18.9075C26.5728 18.9068 26.3889 18.9967 26.2575 19.1073ZM25.514 21.3217C25.2544 21.5927 25.1612 22.1346 25.3117 22.4979C25.4158 22.7491 25.367 22.7441 26.0938 22.5781C26.2442 22.5437 26.4612 22.4946 26.5759 22.4688C26.776 22.4239 26.7856 22.3982 26.8103 21.8423L26.836 21.2627L26.4063 21.2127C26.17 21.1852 25.9219 21.1469 25.855 21.1276C25.7881 21.1085 25.6347 21.1958 25.514 21.3217ZM12.3983 22.7749C12.1122 23.011 11.8271 23.283 11.7648 23.3794C11.4494 23.8682 11.4194 26.3768 11.7064 28.2812C11.829 29.0944 11.8564 29.1773 11.9951 29.154C12.2915 29.1043 12.4945 28.9046 12.5843 28.5744C12.6481 28.3397 12.6588 27.7265 12.6208 26.4844C12.5655 24.6824 12.624 23.7799 12.8556 22.8594C12.9194 22.6059 12.9597 22.3866 12.9451 22.3721C12.9306 22.3576 12.6845 22.5388 12.3983 22.7749ZM26.7188 23.2866C26.5684 23.3184 26.2433 23.3855 25.9962 23.4356L25.5469 23.5267V23.9938C25.5469 24.2507 25.5981 24.5598 25.6607 24.6809C25.8006 24.9515 26.2122 25.1562 26.6161 25.1562C26.8794 25.1562 26.9742 25.1009 27.3336 24.7369L27.7476 24.3176L27.3809 23.7799C27.1793 23.4841 27.0094 23.2391 27.0033 23.2354C26.9972 23.2317 26.8692 23.2548 26.7188 23.2866ZM27.9445 25.2799C27.4212 25.7805 27.4138 25.7933 27.4976 26.047C27.7198 26.7207 28.5875 26.9932 29.884 26.7967C30.662 26.6787 31.1771 26.4883 31.7915 26.0912C32.0551 25.9207 32.3564 25.7812 32.4609 25.7812C32.6838 25.7812 32.8455 26.0302 32.7833 26.2777C32.739 26.4541 31.9674 27.0048 31.4813 27.207C31.2484 27.3039 31.1813 27.3908 31.0569 27.7569C30.93 28.1301 30.9244 28.2103 31.0172 28.3221C31.1005 28.4226 31.1978 28.4409 31.4414 28.4019C31.7086 28.3591 31.8844 28.227 32.578 27.5481C33.4159 26.7278 33.8851 26.4256 34.4355 26.3519C34.6658 26.3209 34.7593 26.3478 34.878 26.479C35.1108 26.7362 34.9703 27.0381 34.5631 27.156C34.0096 27.3163 33.8111 27.4644 32.8813 28.4114C31.9469 29.363 31.8076 29.5613 31.5528 30.3017C31.4229 30.6794 31.4183 30.7487 31.5172 30.8475C31.6122 30.9424 31.6861 30.9451 31.9755 30.8641C32.2609 30.7841 32.5019 30.5858 33.3663 29.7196C34.0481 29.0365 34.4693 28.6719 34.5767 28.6719C34.7734 28.6719 35.0001 28.9012 35.0001 29.1002C35.0001 29.1792 34.4494 29.8035 33.765 30.5003C32.733 31.551 32.4944 31.8384 32.3143 32.2482C32.1958 32.5179 32.1103 32.7991 32.1244 32.8732C32.1614 33.067 32.4418 33.0798 32.7876 32.9034C33.1476 32.7197 34.2284 31.6129 34.9172 30.7227C35.3183 30.2042 35.4563 30.0781 35.6221 30.0781C35.8826 30.0781 36.0157 30.2096 36.0157 30.4669C36.0157 30.7116 35.2958 31.6427 34.2914 32.6969C33.54 33.4856 33.2124 34.0447 33.1436 34.6557C33.1087 34.9653 33.1215 34.9962 33.3056 35.0423C34.0087 35.2188 36.4189 32.322 36.7711 30.8772C36.9347 30.2059 36.9903 28.8063 36.8794 28.1496L36.7845 27.5884L36.4526 27.9348C36.1126 28.2896 35.9631 28.3422 35.698 28.2004C35.4678 28.0772 35.5079 27.743 35.7875 27.4546C36.1947 27.0344 36.1996 26.3354 35.7977 25.9617C35.3462 25.542 34.8591 25.3644 34.0626 25.3291C33.4267 25.301 33.2924 25.2709 33.1251 25.1187C32.6927 24.7253 32.2244 24.6658 31.3785 24.8966C30.7532 25.0673 29.4816 25.0653 28.9454 24.8929C28.7305 24.8238 28.5372 24.7681 28.5157 24.7691C28.4942 24.77 28.2372 24.9999 27.9445 25.2799ZM8.54662 27.476C8.28444 27.8974 7.75092 28.875 7.36123 29.6484L6.65264 31.0547L6.61342 32.3437C6.57233 33.6934 6.35756 35.2341 6.10701 35.9762C5.99373 36.3116 5.98217 36.4477 6.04912 36.6549C6.12545 36.8911 6.16045 36.9141 6.44498 36.9141C6.7535 36.9141 6.75912 36.9088 6.94373 36.4453C7.04647 36.1875 7.21881 35.5723 7.32662 35.0781C7.50506 34.2608 7.5235 34.0034 7.53092 32.2266C7.53545 31.1523 7.56756 30.2295 7.60233 30.1758C7.63709 30.1221 7.76459 30.0781 7.88576 30.0781C8.30772 30.0781 8.32076 30.1491 8.31576 32.4144C8.31319 33.5691 8.27451 34.6559 8.22865 34.8607C8.15912 35.1716 8.16592 35.2469 8.27233 35.3419C8.43553 35.4877 8.58303 35.5143 8.8449 35.4451C9.18389 35.3555 9.30717 34.8222 9.35412 33.2422C9.38405 32.2359 9.36061 31.668 9.25756 30.8984C9.18272 30.3398 9.09944 29.1689 9.07248 28.2963L9.0235 26.7098L8.54662 27.476ZM29.3326 27.6509L28.5481 27.6953L27.8873 28.2123C27.2018 28.7487 26.4844 29.4627 26.4844 29.6085C26.4844 29.7799 26.7255 29.7731 27.3581 29.5837C27.7155 29.4768 28.1942 29.3509 28.4219 29.304C28.6497 29.2571 28.9435 29.1631 29.0749 29.0952C29.3811 28.9369 29.6705 29.0065 29.7325 29.2534C29.8475 29.7116 29.6019 29.8757 28.3715 30.1625C27.583 30.3464 26.8514 30.7659 26.1524 31.4349C25.5387 32.0222 25.5542 32.3909 26.1844 32.1962C27.4232 31.8137 28.2609 31.4622 28.7901 31.1031C29.1144 30.8831 29.4435 30.7031 29.5215 30.7031C29.7402 30.7031 29.9483 30.9783 29.8938 31.1953C29.8048 31.55 28.6015 32.2727 27.5869 32.5809C27.164 32.7093 26.8496 32.8786 26.3883 33.2261C25.5551 33.8539 24.0626 35.3326 24.0626 35.5302C24.0626 35.7657 24.2586 35.884 24.5563 35.8281C25.1203 35.7223 26.8958 34.753 28.2813 33.7947C29.0454 33.2661 29.2745 33.1919 29.4867 33.404C29.7885 33.7059 29.5637 33.9544 28.1641 34.8658C27.7344 35.1456 26.9786 35.5998 26.4844 35.8752C25.7108 36.3062 25.5825 36.4057 25.5608 36.5911C25.4834 37.253 26.1852 37.1373 27.3829 36.2905C27.9862 35.8641 28.37 35.6714 28.9477 35.5051C29.5225 35.3396 29.9072 35.1484 30.4859 34.7406C30.8782 34.4642 30.956 34.4364 31.1237 34.5128C31.3537 34.6177 31.4449 34.86 31.333 35.0692C31.184 35.3476 30.102 36.0013 29.4488 36.2077C28.6931 36.4464 28.2355 36.669 27.9493 36.9373C27.6669 37.2019 27.6616 37.5268 27.9367 37.707C28.131 37.8344 28.1715 37.8296 28.9719 37.5859C30.0942 37.2441 31.3049 36.7256 32.1094 36.2424C32.4747 36.023 32.7869 35.8307 32.8034 35.815C32.8199 35.7993 32.7237 35.6616 32.5897 35.509C32.2374 35.1078 32.1948 34.8005 32.3919 34.082C32.4283 33.9493 32.4073 33.9062 32.3062 33.9062C32.0513 33.9062 31.6426 33.6543 31.4857 33.4005C31.298 33.0968 31.283 32.6475 31.4454 32.1875C31.5098 32.0048 31.5626 31.8427 31.5626 31.8272C31.5626 31.8116 31.4483 31.7503 31.3087 31.6908C31.169 31.6313 30.9669 31.4873 30.8594 31.3708C30.5786 31.0661 30.5881 30.3722 30.8819 29.7366C30.9984 29.4844 31.0938 29.2691 31.0938 29.2581C31.0938 29.2472 30.9955 29.2186 30.8752 29.1945C30.3759 29.0947 30.0049 28.4187 30.1574 27.8868C30.2497 27.5651 30.249 27.5746 30.1758 27.5923C30.1436 27.6 29.7642 27.6264 29.3326 27.6509ZM16.8475 31.582C16.8255 31.8506 16.7687 32.5604 16.7212 33.1594C16.6549 33.9977 16.5997 34.3056 16.4816 34.4967C16.1864 34.9744 16.2303 35.0527 17.5073 36.3252L18.6865 37.5H20.0101C21.3094 37.5 21.3322 37.4971 21.2501 37.3437C21.1156 37.0926 20.8548 36.9742 20.3126 36.9184C19.5593 36.8408 19.2234 36.6437 18.6155 35.9228C17.6141 34.7354 17.6988 35.0053 17.6719 32.9164L17.6483 31.0937H17.2679H16.8875L16.8475 31.582ZM30.1278 32.4276C29.8611 32.6373 29.8585 32.9236 30.1217 33.096C30.311 33.2201 30.3326 33.2187 30.5319 33.0706C30.8101 32.8638 30.8465 32.5545 30.6122 32.3904C30.3863 32.2322 30.3751 32.233 30.1278 32.4276Z" fill="#F56200"/>
</svg>
