<svg width="40" height="40" viewBox="0 0 40 40" fill="none" xmlns="http://www.w3.org/2000/svg">
<path fill-rule="evenodd" clip-rule="evenodd" d="M32.1874 3.0551C31.9511 3.08674 31.4589 3.16994 31.0937 3.24002C30.1545 3.4201 28.4744 3.47791 27.6171 3.35955C26.4854 3.20338 25.8197 3.17822 25.511 3.2801C25.1254 3.40736 24.3766 4.11775 24.1081 4.61096C23.7034 5.35463 23.552 6.27525 23.7945 6.51783C24.044 6.76728 24.453 6.57978 24.453 6.21603C24.453 6.03877 24.4566 6.03814 24.8046 6.15275C25.1123 6.254 25.1562 6.29635 25.1562 6.49174C25.1562 6.64377 25.2185 6.75596 25.3515 6.84307C25.5324 6.96158 25.5612 6.96158 25.7421 6.84307C25.8495 6.77268 25.9374 6.6415 25.9374 6.5515C25.9374 6.42002 25.9719 6.39721 26.1132 6.4351C26.2099 6.46096 26.333 6.48268 26.3866 6.48322C26.4427 6.48385 26.4843 6.58346 26.4843 6.71689C26.4843 6.87877 26.5437 6.98838 26.6796 7.07744C26.8585 7.19463 26.8909 7.19494 27.0643 7.08135C27.1684 7.01307 27.2744 6.89213 27.2996 6.8126C27.3345 6.70275 27.4018 6.67619 27.579 6.70213C27.7717 6.73049 27.8124 6.77299 27.8124 6.94627C27.8124 7.21721 27.9438 7.34369 28.2255 7.34369C28.4043 7.34369 28.4693 7.29518 28.5395 7.10932C28.6161 6.90619 28.6671 6.87494 28.9213 6.87494C29.1671 6.87494 29.234 6.91228 29.3338 7.10541C29.4745 7.37744 29.4859 7.69478 29.3673 8.03518C29.2638 8.33221 29.1732 8.34377 28.9703 8.08588C28.8859 7.97846 28.7544 7.89057 28.6782 7.89057C28.484 7.89057 28.2812 8.13885 28.2812 8.37666C28.2812 8.56963 28.1572 8.67182 27.9232 8.67182C27.8623 8.67182 27.8124 8.62455 27.8124 8.56674C27.8124 8.43127 27.5605 8.20307 27.411 8.20307C27.2025 8.20307 26.9982 8.41627 26.9887 8.64385C26.9808 8.83299 26.9429 8.8708 26.7409 8.89096C26.5374 8.91127 26.4907 8.88072 26.4215 8.68213C26.3769 8.55424 26.2649 8.40916 26.1727 8.35978C25.9294 8.22955 25.6249 8.44252 25.6249 8.74291C25.6249 8.92588 25.5859 8.9733 25.4101 9.00346C25.292 9.02377 25.1417 9.06361 25.0763 9.09205C24.9922 9.12853 24.9315 9.07549 24.8695 8.91127C24.7508 8.59674 24.4229 8.51103 24.198 8.73588C24.048 8.8858 24.0432 8.92471 24.1359 9.23439C24.3037 9.79455 24.7547 10.6166 25.1017 10.9946C25.282 11.191 25.6052 11.4335 25.8199 11.5334C26.2052 11.7127 26.2348 11.7144 28.1246 11.6663C30.0296 11.6179 31.2747 11.6673 31.4891 11.7997C31.577 11.8541 31.6015 12.0781 31.6015 12.8291C31.6015 13.957 31.4927 14.2784 30.8941 14.9183C30.1689 15.6936 29.266 15.9264 27.5514 15.7805C26.5082 15.6917 25.9053 15.5713 24.6093 15.1935C22.7112 14.64 21.5099 14.4952 19.3004 14.5531C17.5314 14.5995 16.487 14.7217 14.4921 15.1155C12.4708 15.5146 12.2935 15.5433 11.3388 15.6272C10.3554 15.7137 9.35922 15.6301 8.80282 15.4146C7.86047 15.0495 7.04992 14.279 6.82617 13.5355C6.69446 13.0978 6.68711 12.3499 6.81055 11.938C7.02742 11.214 7.96219 10.5392 8.8986 10.4305C9.84305 10.3209 10.6913 10.6316 12.2421 11.6553C13.3084 12.3592 14.0285 12.7024 14.7683 12.8596C16.9946 13.3328 18.7377 11.901 18.5721 9.73502C18.5003 8.79518 18.011 7.81244 17.6149 7.81244C17.3705 7.81244 17.2194 8.0576 17.1576 8.55463C17.0912 9.08861 16.7077 9.84869 16.4184 10.0195C15.8063 10.3809 15.4038 10.1478 13.9452 8.58689C12.3208 6.84854 10.0317 5.97338 7.81274 6.24228C6.86039 6.35768 6.38125 6.49439 5.66414 6.85525C3.77649 7.8051 2.48914 9.33424 1.95539 11.2606C1.43203 13.149 1.67516 15.5715 2.56977 17.3828C3.65117 19.5721 5.62524 20.9151 9.57024 22.1454C10.2148 22.3464 11.0185 22.5969 11.3563 22.702C12.1381 22.9453 13.0695 23.4088 14.6622 24.3475C15.8545 25.0503 15.9227 25.1031 15.8475 25.268C15.7142 25.5606 15.399 25.6789 14.6093 25.733C13.3899 25.8163 12.5184 26.0885 11.8359 26.599C11.4085 26.9186 10.9505 27.1081 10.4254 27.1824C9.84141 27.2652 9.49586 27.4631 9.21164 27.8777C9.03266 28.1388 9.02086 28.2317 8.9725 29.7597C8.9136 31.6202 8.71367 32.7266 8.32922 33.319C8.1318 33.6232 7.95305 34.3106 7.95305 34.7656C7.95305 35.701 8.42071 36.4692 9.20016 36.814C9.71906 37.0435 10.5563 37.0231 11.5321 36.7574C12.494 36.4953 13.3501 36.5028 13.9113 36.7781C14.1075 36.8743 14.3377 36.9531 14.423 36.9531C14.9853 36.9531 14.8305 35.9976 14.1414 35.2148C13.7352 34.7532 13.192 34.4749 12.4928 34.3699C12.1745 34.3222 11.8295 34.2422 11.7263 34.1923C11.4245 34.0463 11.2256 33.7144 11.2179 33.3435C11.2113 33.0274 11.2291 32.9986 11.5234 32.8515C11.9851 32.6206 12.8223 32.6313 13.062 32.871L13.2377 33.0468H12.9445C12.5884 33.0468 12.1241 33.2298 12.0607 33.395C11.9835 33.5961 12.0992 33.8924 12.2769 33.9488C12.3689 33.9781 12.5775 33.9579 12.7404 33.9042C13.0117 33.8146 13.0699 33.8238 13.4309 34.0125C13.9205 34.2685 14.0254 34.2697 14.1881 34.0213C14.2832 33.8763 14.3048 33.7312 14.2695 33.4742C14.1525 32.6206 13.5167 31.9644 12.6765 31.8301C12.4066 31.7869 11.6638 31.8891 11.3379 32.0142C11.2501 32.0478 11.2384 32.0087 11.2827 31.8292C11.4973 30.9601 12.1279 30.1631 12.8736 29.8186C13.3848 29.5824 14.6161 29.5913 15.8511 29.84C16.7179 30.0146 17.5471 30.0319 17.9101 29.8831C18.024 29.8363 18.0473 29.8708 18.0502 30.0892C18.0558 30.5134 18.2263 30.8793 18.7605 31.6135C19.0371 31.9936 19.3744 32.4804 19.51 32.6953C19.8884 33.2946 20.5149 34.6528 20.7491 35.3809C20.987 36.1211 21.2752 36.5071 21.6928 36.6449C22.0939 36.7773 22.6066 36.697 22.9287 36.4513C23.4306 36.0684 24.3938 36.1035 25.4039 36.5417C25.9955 36.7981 26.2755 36.7375 26.3136 36.3447C26.3698 35.7643 25.5293 34.5312 25.0774 34.5312C24.6524 34.5312 24.5502 34.9653 24.8913 35.3214L25.0952 35.5342L24.7937 35.4642C24.6278 35.4258 24.29 35.3935 24.0429 35.3924C23.7958 35.3914 23.5937 35.3614 23.5937 35.3258C23.5937 35.1826 24.0843 34.5331 24.3396 34.3383C24.6805 34.0783 25.1791 33.857 25.5859 33.7853C26.8953 33.5542 25.7771 32.4076 24.2339 32.3989C23.7153 32.396 23.6052 32.4254 23.0272 32.7207C22.5533 32.9628 22.3753 33.0209 22.3288 32.9486C22.1821 32.7208 21.9436 31.9792 21.8598 31.4904C21.6913 30.5078 21.9336 30.0895 23.3084 28.9888C23.8313 28.5703 24.656 27.6259 24.8844 27.1843C24.9688 27.0212 25.0927 26.9353 25.3325 26.8735C25.9716 26.709 26.4523 26.5403 27.2655 26.1947C27.7167 26.003 28.3017 25.7642 28.5656 25.6642L29.0454 25.4821L29.425 25.7389C29.8998 26.06 30.067 26.2453 30.141 26.5321C30.2409 26.9189 30.1585 27.1679 29.798 27.5689C29.0214 28.4327 28.2177 28.4968 27.3473 27.7644C27.1377 27.5881 27.0609 27.5649 26.8877 27.6254C26.5741 27.7349 26.5714 28.0905 26.8799 28.6693C27.3727 29.5938 28.4271 30.4606 29.1427 30.5294C29.8553 30.5978 30.0884 30.446 31.4066 29.0543C32.1341 28.2863 32.6451 27.6783 32.7327 27.4766C33.1416 26.5344 32.9375 25.5398 32.1656 24.7131L31.9342 24.4653L32.3342 24.2625C32.5543 24.151 32.7343 24.089 32.7343 24.1246C32.7343 24.1603 32.9748 24.4509 33.2687 24.7705C34.087 25.6603 34.135 25.8255 33.7509 26.431C33.3661 27.0378 33.1865 27.4264 32.968 28.1249C32.7777 28.7331 32.736 28.8006 32.4738 28.9263C32.2392 29.0388 32.1874 29.1056 32.1874 29.2956C32.1874 29.4538 32.2466 29.5664 32.3736 29.6496C32.543 29.7606 32.5891 29.7599 32.8829 29.6424C33.3065 29.4728 33.4798 29.2385 33.6805 28.564C33.8328 28.0522 34.0692 27.5442 34.5723 26.6478C34.7959 26.2495 34.8325 25.6239 34.6569 25.2036C34.5971 25.0606 34.2983 24.6695 33.9928 24.3343C33.6873 23.9992 33.4374 23.6998 33.4374 23.6688C33.4374 23.638 33.6311 23.4633 33.8677 23.2807C34.4288 22.8479 35.4984 21.7208 35.9498 21.0869C36.4896 20.3288 37.0668 19.2687 37.4137 18.3984C37.9786 16.9813 38.2958 14.8119 38.2991 12.3437C38.3027 9.64955 37.8745 7.78353 36.8549 6.04853C36.3352 5.16424 35.0373 3.83158 34.3359 3.46197C33.6277 3.08885 32.9264 2.95603 32.1874 3.0551ZM31.6015 3.98322C30.0108 4.31478 28.4413 4.35002 26.8838 4.08893C25.95 3.93244 25.7023 3.99721 25.206 4.52775C24.7389 5.02713 24.7189 5.27377 25.1366 5.38307C25.8172 5.56119 27.6094 5.87424 28.7801 6.01947C30.3183 6.21041 31.1184 6.44322 31.8382 6.90947C32.3452 7.23791 32.4189 7.26236 32.9083 7.26393C33.3817 7.26541 33.4465 7.28494 33.5618 7.46088C33.6781 7.63846 33.6787 7.67307 33.568 7.84197C33.4747 7.98447 33.3481 8.03994 33.0241 8.08049C32.6036 8.13299 31.9146 8.01799 31.83 7.88111C31.8068 7.84353 31.5744 7.95768 31.3136 8.13478C29.9375 9.06924 27.6964 9.76354 26.0507 9.7651C25.6165 9.76557 25.3905 9.85189 25.3905 10.0173C25.3905 10.0527 25.5355 10.2388 25.7126 10.431C26.1286 10.8822 26.3925 10.9513 27.3437 10.8581C28.3472 10.7598 30.0409 10.7639 30.8984 10.8668C31.2851 10.9132 31.7331 10.9529 31.8941 10.9549C32.2527 10.9596 32.7567 10.6465 32.9648 10.2898C33.369 9.59729 33.4805 9.4576 33.7513 9.30541C34.157 9.07736 34.7353 9.0833 35.086 9.319C35.392 9.52471 35.4623 9.79111 35.2675 10.0063C35.1027 10.1885 34.9864 10.1936 34.6752 10.0327C34.313 9.84541 34.0945 9.94189 33.8679 10.389C33.6173 10.8835 33.2872 11.2581 32.9348 11.448C32.7816 11.5305 32.6562 11.628 32.6562 11.6647C32.6562 11.7014 32.7735 11.878 32.917 12.0571C33.4891 12.7713 34.0023 13.8061 34.2245 14.6931C34.3754 15.2954 34.3421 16.3279 34.1482 17.0611C34.0587 17.3999 33.8094 18.0113 33.5942 18.42C33.2492 19.0754 33.203 19.2193 33.2023 19.6401C33.2013 20.2308 32.9423 20.8317 32.567 21.1138C32.4227 21.2221 32.0937 21.4168 31.8359 21.5463C31.3312 21.7999 30.6506 22.2488 30.2343 22.6028C29.9368 22.8558 29.8974 22.7842 30.7299 23.5034L31.1865 23.8978L31.6118 23.7096C32.851 23.1616 34.593 21.651 35.4143 20.412C36.2464 19.1568 36.8626 17.7694 37.072 16.6796C37.4277 14.8278 37.5798 12.3506 37.4307 10.836C37.1631 8.11869 36.3972 6.35846 34.8484 4.90143C33.7762 3.89268 33.0375 3.68385 31.6015 3.98322ZM25.862 4.60416C25.7427 4.82728 25.7625 4.95885 25.9398 5.11924C26.2693 5.41744 26.7677 4.98197 26.5131 4.6183C26.3626 4.40346 25.974 4.39502 25.862 4.60416ZM31.8945 4.80393C31.7549 4.86455 31.5991 5.00533 31.5484 5.11666C31.4691 5.2908 31.479 5.34182 31.6192 5.48205C31.7508 5.61361 31.8372 5.63478 32.0673 5.59158C32.6026 5.49119 32.7973 5.06752 32.438 4.7851C32.2832 4.66338 32.2122 4.6658 31.8945 4.80393ZM7.4411 7.11299C6.14703 7.34392 4.75219 8.18572 3.88414 9.25963C3.38281 9.87986 2.85867 10.9414 2.68211 11.6943C2.57789 12.1388 2.53899 12.6135 2.53899 13.4416V14.5785L2.84149 15.1905C3.07133 15.6554 3.29719 15.9548 3.78164 16.4363C5.07742 17.7245 7.04766 18.5831 9.72649 19.0271C10.1562 19.0982 10.5868 19.2065 10.6835 19.2675C10.92 19.4169 10.9132 19.7267 10.67 19.886C10.4957 20.0002 10.4077 19.997 9.55672 19.8462C7.22258 19.4324 5.3511 18.736 4.10149 17.8166C3.50586 17.3782 3.47453 17.3671 3.64102 17.6515C3.86805 18.0395 4.57578 18.7933 5.06649 19.1697C6.22844 20.061 7.7493 20.7368 10.3901 21.5353C12.241 22.095 13.0655 22.4553 14.7155 23.4256C15.3111 23.7759 15.8102 24.0624 15.8246 24.0624C15.8391 24.0624 15.798 23.8778 15.7334 23.6523C15.5541 23.0263 15.0627 22.0456 14.6649 21.5198C14.3542 21.1092 14.2502 21.0294 13.8684 20.9091C13.3748 20.7535 13.2005 20.5311 13.3512 20.2495C13.4891 19.9918 13.7181 19.9716 14.2741 20.1678C14.7158 20.3238 14.84 20.4132 15.1546 20.802C15.9693 21.8089 16.4883 22.9577 16.6916 24.204C16.8413 25.1224 16.7711 25.4799 16.3492 25.9469C15.9181 26.4242 15.6985 26.5064 14.6874 26.5697C13.5727 26.6395 13.0214 26.8096 12.2392 27.3253C11.617 27.7356 11.1576 27.9201 10.5468 28.0052C9.88266 28.0976 9.73156 28.3503 9.80508 29.2451C9.86477 29.9709 9.74235 31.4836 9.55789 32.3003C9.48938 32.6035 9.29446 33.161 9.12461 33.5394C8.72594 34.4277 8.66625 34.934 8.90266 35.4224C9.17547 35.986 9.44664 36.1338 10.1952 36.1273C10.627 36.1235 11.0014 36.0639 11.4062 35.9346C11.8562 35.7908 12.1702 35.7467 12.76 35.7447L13.5279 35.7421L13.2846 35.5388C13.0231 35.3203 12.5719 35.1562 12.2325 35.1562C11.5205 35.1562 10.7601 34.666 10.5076 34.0442C10.311 33.5603 10.2687 32.5006 10.4201 31.857C10.8267 30.1291 11.8983 29.0543 13.4374 28.8306C13.9577 28.755 15.1142 28.854 16.1909 29.0662C16.852 29.1965 17.0555 29.2085 17.3984 29.1374C18.0076 29.0109 18.6592 28.5374 19.807 27.3872C20.8988 26.2934 21.5475 25.434 22.3046 24.0792C22.9741 22.8809 23.0273 22.8124 23.2884 22.8124C23.4406 22.8124 23.5527 22.8747 23.6399 23.0078C23.7634 23.1963 23.7571 23.2213 23.4568 23.7304C23.2857 24.0204 23.0195 24.4863 22.8653 24.7656C22.7111 25.0449 22.4428 25.4843 22.2692 25.7421C21.9586 26.2033 21.9563 26.2117 22.1291 26.2617C22.4084 26.3425 23.4223 26.3352 24.1426 26.2471C25.0183 26.1401 25.8135 25.9196 26.7187 25.5332C27.1269 25.3589 27.5488 25.1822 27.6562 25.1405C27.8444 25.0675 27.8376 25.0594 27.4705 24.919C26.944 24.7174 26.5489 24.4281 26.2706 24.04C26.0407 23.7195 25.7812 23.0848 25.7812 22.8431C25.7812 22.7431 25.7092 22.732 25.3509 22.7768C24.8523 22.8392 24.6874 22.751 24.6874 22.4218C24.6874 22.1359 24.8081 22.0499 25.3724 21.9335C25.8149 21.8423 25.8631 21.8103 26.1066 21.4453C26.4373 20.9495 26.9303 20.6202 27.7268 20.3633C28.0727 20.2517 28.4898 20.0758 28.6537 19.9723C29.0189 19.7418 29.4374 19.2752 29.5755 18.9447C29.7252 18.5865 29.889 18.4736 30.1327 18.5607C30.2437 18.6003 30.3627 18.7099 30.3974 18.8042C30.495 19.0697 30.0695 19.8443 29.5852 20.2826C29.1584 20.669 28.2885 21.12 27.791 21.213C27.4151 21.2831 27.0445 21.533 26.8182 21.8688C26.6812 22.0721 26.6405 22.2425 26.6405 22.6134C26.6405 23.4806 27.1502 24.0042 28.3202 24.339C29.4066 24.6499 30.5016 25.3771 30.8341 26.0083C31.1884 26.6808 31.0263 27.4653 30.3905 28.155C29.9143 28.6717 29.393 28.9764 28.7977 29.0863L28.2845 29.181L28.667 29.4421C29.081 29.7246 29.4902 29.7838 29.7428 29.5976C30.0877 29.3435 31.891 27.3242 31.9948 27.076C32.2264 26.5216 32.0884 25.8226 31.6559 25.3609C31.5401 25.2371 31.113 24.8696 30.707 24.5442C30.0252 23.9979 28.4853 22.488 28.334 22.2175C28.2401 22.0498 28.4797 21.7187 28.6948 21.7187C28.7915 21.7187 28.9956 21.8218 29.1485 21.9478L29.4264 22.1769L30.1234 21.6535C30.5066 21.3657 31.1108 20.9793 31.4659 20.7949C32.1383 20.4457 32.2926 20.2887 32.3813 19.8632C32.4643 19.4649 32.3566 19.1603 31.9846 18.7415C31.5992 18.3076 31.5716 18.1939 31.7968 17.9687C32.0099 17.7556 32.1355 17.7716 32.4557 18.0528L32.7294 18.2931L32.8893 18.0332C33.147 17.6146 33.4479 16.5701 33.493 15.9374C33.5473 15.1772 33.3937 14.5584 32.9111 13.5937L32.5398 12.8515L32.4479 13.4374C32.3973 13.7597 32.3034 14.1688 32.2392 14.3465C31.8455 15.4366 30.7678 16.3474 29.6182 16.562C29.3867 16.6053 28.7688 16.6406 28.2451 16.6406C27.3507 16.6406 27.2824 16.6516 27.1229 16.8213C27.0295 16.9208 26.953 17.0958 26.953 17.2102C26.953 17.4659 26.6466 17.6935 26.4055 17.6169C26.1974 17.5509 26.0937 17.2805 26.0937 16.8044V16.4314L25.4267 16.2626C24.5641 16.0442 24.4218 16.0485 24.2244 16.2995C24.0835 16.4785 24.0624 16.6139 24.0624 17.3386C24.0624 18.2401 24.0161 18.3593 23.6657 18.3593C23.3131 18.3593 23.2783 18.2339 23.2677 16.9249C23.2591 15.8806 23.2398 15.701 23.1327 15.6699C22.8624 15.5915 22.0673 15.4687 21.8302 15.4687C21.6924 15.4687 21.5038 15.5303 21.4109 15.6055C21.2561 15.7307 21.2354 15.8537 21.1641 17.0703C21.1213 17.8007 21.0535 18.4775 21.0135 18.5742C20.9617 18.6993 20.8756 18.7499 20.7143 18.7499C20.3049 18.7499 20.2827 18.6507 20.341 17.0866C20.3702 16.3042 20.4021 15.5937 20.4119 15.5078C20.4288 15.3591 20.3881 15.3523 19.5702 15.3674C18.3285 15.3903 18.3416 15.3664 18.2124 17.8423C18.17 18.6547 18.1444 18.7835 18.007 18.8745C17.8803 18.9584 17.8125 18.9597 17.6555 18.8813C17.4615 18.7845 17.4609 18.7803 17.4609 17.6538C17.4609 17.032 17.4903 16.2835 17.5263 15.9903L17.5917 15.4571L17.2138 15.506C16.4798 15.601 15.7404 15.7152 15.5983 15.7555C15.4352 15.8017 15.2343 16.2242 15.2343 16.5209C15.2343 16.7117 14.9952 17.0312 14.8523 17.0312C14.8141 17.0312 14.7029 16.9664 14.6052 16.8873C14.4584 16.7685 14.4298 16.6747 14.4413 16.3503L14.4552 15.9572L13.7315 16.1077C11.9538 16.4774 10.1855 16.578 9.17961 16.3668C7.94211 16.107 6.65188 15.1649 6.20914 14.1978C5.15328 11.8915 6.65524 9.60932 9.22899 9.60932C10.3738 9.60932 10.9664 9.84518 12.7902 11.0265C14.0992 11.8743 14.8394 12.1421 15.7376 12.0928C16.1689 12.0691 16.4655 12.007 16.6796 11.8956C17.3463 11.5487 17.7319 10.8955 17.7293 10.1171L17.7277 9.64838L17.5927 9.9015C17.4112 10.2417 16.9907 10.6786 16.6905 10.839C16.3339 11.0294 15.5893 11.0122 15.1929 10.8044C14.739 10.5664 14.2299 10.1202 13.678 9.47643C12.8021 8.45471 11.7702 7.75096 10.5363 7.33377C9.89664 7.11752 9.68172 7.08346 8.82805 7.06307C8.29094 7.05025 7.6668 7.07268 7.4411 7.11299ZM30.2802 7.40228C30.3093 7.56346 30.3442 7.70807 30.3577 7.72369C30.3873 7.75799 30.9374 7.42463 30.9374 7.37236C30.9374 7.32557 30.4229 7.10932 30.3114 7.10932C30.2568 7.10932 30.2459 7.21221 30.2802 7.40228ZM35.6277 10.4635C35.5035 10.6955 35.529 10.8261 35.7491 11.0877C35.9834 11.3663 36.1859 11.3921 36.4062 11.1718C36.6125 10.9655 36.6033 10.8417 36.3602 10.5528C36.1202 10.2677 35.7563 10.2233 35.6277 10.4635ZM11.733 19.5768C11.5606 19.6975 11.5121 19.956 11.6277 20.1381C11.6623 20.1926 11.8069 20.2705 11.949 20.3113C12.269 20.4031 12.4794 20.3042 12.5483 20.0296C12.642 19.6562 12.0718 19.3395 11.733 19.5768ZM20.4352 20.1227C20.1652 20.3927 20.3981 21.0156 20.7691 21.0156C20.9787 21.0156 21.1718 20.7656 21.1718 20.4942C21.1718 20.0781 20.7117 19.8462 20.4352 20.1227ZM20.3261 28.046C19.2852 29.1027 18.9096 29.6417 18.9075 30.0823C18.9061 30.3724 18.9733 30.4901 19.8416 31.7187C20.4043 32.515 21.1462 33.9844 21.4914 34.9864C21.7738 35.8061 21.9474 35.9951 22.2961 35.8626C22.4104 35.8191 22.5252 35.7215 22.5511 35.6456C22.8705 34.7117 23.485 33.886 24.1958 33.4352L24.5618 33.2031H24.287C23.8423 33.2031 23.3308 33.4204 22.8898 33.7969C22.3071 34.2942 22.0973 34.2642 21.745 33.6328C21.6012 33.3749 21.3745 32.83 21.2413 32.4218C20.9148 31.4214 20.9038 30.6878 21.2051 30.0296C21.4609 29.4708 21.5634 29.3575 22.4834 28.6148C23.1749 28.0565 23.9969 27.1717 23.8555 27.1377C23.8189 27.1288 23.2265 27.1097 22.539 27.0952L21.289 27.0687L20.3261 28.046Z" fill="#F56200"/>
</svg>
