<svg width="263" height="48" viewBox="0 0 263 48" fill="none" xmlns="http://www.w3.org/2000/svg">
<path d="M48 24C48 37.2548 37.2548 48 24 48C10.7452 48 0 37.2548 0 24C0 10.7452 10.7452 0 24 0C37.2548 0 48 10.7452 48 24Z" fill="#F56200"/>
<path fill-rule="evenodd" clip-rule="evenodd" d="M14.76 9.33861C14.4573 9.41305 14.4 9.54298 14.4 10.155C14.4 10.6715 14.4172 10.7548 14.5586 10.9245C14.6458 11.0291 14.8594 11.1874 15.0331 11.2763C15.2069 11.3652 15.4742 11.5531 15.6272 11.6939C16.0988 12.1281 16.1018 12.1546 16.1018 15.8413V19.0648L16.2818 19.1086C16.5722 19.1793 17.347 19.5913 17.5222 19.768C18.1536 20.4052 18.3151 20.5261 18.4797 20.4844C18.7072 20.4267 18.7068 20.4279 18.9797 18.9021C19.0121 18.7205 19.0855 18.4084 19.1428 18.2085C19.2 18.0087 19.2753 17.6372 19.31 17.3829C19.403 16.7033 19.4354 16.5781 19.674 15.9798C19.925 15.3503 20.1554 14.9924 20.5778 14.5755C20.7435 14.412 20.8792 14.2371 20.8795 14.1868C20.8798 14.1365 21.1507 13.8168 21.4815 13.4764C22.1316 12.8074 22.1277 12.8094 23.1564 12.5961C23.4905 12.5268 23.8629 12.4083 23.9841 12.3328C24.2589 12.1613 24.7718 11.9804 25.6582 11.7422C26.0362 11.6406 26.6695 11.4299 27.0655 11.274C28.3439 10.7707 28.828 10.8301 29.5722 11.581L29.9288 11.9409L29.8834 12.3458C29.8369 12.7606 29.6973 13.1223 29.5838 13.1223C29.5487 13.1223 29.52 13.2058 29.52 13.3079C29.52 13.5751 29.3769 13.7463 29.194 13.698C29.0437 13.6583 28.8655 13.7735 28.8655 13.9103C28.8655 13.9492 28.8204 13.981 28.7652 13.981C28.7101 13.981 28.648 14.0256 28.6273 14.0801C28.6066 14.1346 28.5176 14.1792 28.4296 14.1792C28.3106 14.1792 28.252 14.23 28.2011 14.3774C28.1635 14.4863 28.1108 14.5755 28.0841 14.5755C28.0574 14.5755 28.002 14.6498 27.961 14.7407C27.92 14.8315 27.8416 14.9058 27.7868 14.9058C27.7321 14.9058 27.6873 14.9347 27.6873 14.9701C27.6873 15.0937 27.3039 15.2336 27.0019 15.2203C26.8349 15.213 26.6778 15.2387 26.6528 15.2774C26.6278 15.3161 26.5262 15.3678 26.4273 15.3923C26.3282 15.4167 26.2473 15.4734 26.2473 15.5183C26.2473 15.6243 25.8568 15.9955 25.7443 15.9964C25.6966 15.9968 25.4085 16.1602 25.1041 16.3597C24.5236 16.74 24.4741 16.8217 24.6083 17.1777C24.6679 17.3359 25.0962 17.614 25.2802 17.614C25.3272 17.614 25.4755 17.6735 25.6098 17.7462C25.7442 17.8188 25.8942 17.8783 25.9433 17.8783C26.0565 17.8783 26.5919 18.3028 26.638 18.4292C26.6918 18.5767 27.0971 19.0646 27.4533 19.4108C27.8464 19.7929 28.2472 19.992 28.6231 19.992C28.9814 19.992 29.1618 20.1156 29.1079 20.324C29.0616 20.5025 29.2089 20.6472 29.4402 20.6505C29.6084 20.6528 29.6982 20.8105 29.6018 20.9342C29.5667 20.9791 29.5187 21.0976 29.4951 21.1974C29.4452 21.4083 29.0955 21.6602 28.6853 21.7807C28.2854 21.8983 27.8053 21.7722 26.9673 21.3294C26.1566 20.901 25.7767 20.7595 24.9382 20.5737C23.9344 20.3513 23.8682 20.3508 23.4526 20.5629C23.0935 20.7461 22.5818 21.2825 22.5818 21.4755C22.5818 21.5219 22.3739 21.9084 22.1198 22.3342C21.8657 22.7601 21.6307 23.1727 21.5976 23.2512C21.5414 23.3846 21.4197 23.5838 20.9008 24.391C20.653 24.7765 20.2078 25.1746 19.2576 25.8603C18.3772 26.4957 17.7473 26.8309 17.136 26.9892C16.8732 27.0573 16.533 27.1637 16.38 27.2257C16.1328 27.3259 16.1018 27.3624 16.1018 27.5528V27.7672L16.6091 27.8182C16.8881 27.8462 17.6171 27.8752 18.2291 27.8827C18.851 27.8903 19.4632 27.9311 19.6171 27.9752C19.9121 28.0599 20.2909 28.3405 20.2909 28.4745C20.2909 28.5194 20.3683 28.6282 20.463 28.7163C20.6789 28.9172 20.8191 29.2412 20.7708 29.4275C20.7218 29.6164 20.6311 29.6072 20.407 29.3906C20.2697 29.2578 20.1243 29.1988 19.8471 29.1634C19.6412 29.1371 19.3188 29.0784 19.1308 29.0329C18.9427 28.9873 18.7686 28.9705 18.7439 28.9955C18.6778 29.0621 18.9092 29.296 19.2272 29.4841C19.3802 29.5746 19.5055 29.6984 19.5055 29.7591C19.5055 29.8199 19.5834 29.9854 19.6787 30.1269C20.005 30.6115 20.0972 31.2216 19.8581 31.3142C19.7477 31.3569 19.5994 31.2082 19.3778 30.8327C19.2826 30.6715 19.1683 30.5608 19.097 30.5608C18.8448 30.5608 18.47 30.3002 18.3158 30.0175C18.2174 29.8374 18.1087 29.7275 18.0154 29.714C17.836 29.6882 17.8347 29.7208 18.0002 30.0659C18.1005 30.2749 18.1392 30.5246 18.1647 31.1271C18.2009 31.9806 18.1383 32.2452 17.8999 32.2452C17.7968 32.2452 17.7529 32.1687 17.6812 31.8639C17.6266 31.6317 17.5214 31.4068 17.4122 31.2888C17.2668 31.1318 17.2265 31.0148 17.1992 30.6704C17.1806 30.4369 17.1177 30.1605 17.0595 30.0565C17.0013 29.9524 16.9263 29.7897 16.8928 29.6949C16.8445 29.5578 16.7747 29.5132 16.552 29.4773C16.398 29.4524 16.2336 29.4001 16.1869 29.3609C16.1173 29.3026 16.1018 29.7829 16.1018 31.994C16.1018 35.0965 16.0915 35.1752 15.6294 35.6223C15.4752 35.7715 15.1917 35.9781 14.9994 36.0814C14.4579 36.3722 14.4 36.4808 14.4 37.2045C14.4 37.7651 14.4128 37.8285 14.5455 37.9222C14.6737 38.0128 15.2214 38.0251 19.163 38.0251H23.635L23.7957 37.8629C23.9377 37.7196 23.9564 37.6433 23.9564 37.2055C23.9564 36.933 23.921 36.6318 23.8778 36.536C23.8288 36.4276 23.6074 36.2503 23.2906 36.0659C22.7585 35.7561 22.491 35.494 22.3428 35.1373C22.2713 34.9651 22.2545 33.9454 22.2545 29.7703V24.6159L22.5 24.6169C22.916 24.6185 23.5793 24.8088 23.9445 25.0313C24.3399 25.2722 24.695 25.7075 25.0066 26.3333C25.1243 26.5695 26.0841 29.197 27.1396 32.1723C28.1952 35.1476 29.111 37.6411 29.1749 37.7135C29.4417 38.0161 29.5415 38.0251 32.6525 38.0251C35.3555 38.0251 35.6041 38.0157 35.7336 37.9095C35.8646 37.8019 35.873 37.7433 35.8553 37.0675L35.8364 36.3413L35.3139 36.0587C34.663 35.7066 34.3442 35.3975 34.0996 34.8816C33.9947 34.6605 33.4037 32.9662 32.7863 31.1165C32.1689 29.2669 31.5818 27.5699 31.4817 27.3455C31.2218 26.7625 30.7739 26.0927 30.3671 25.6788C29.7488 25.0497 28.5512 24.354 27.3402 23.9204C27.0594 23.8199 26.8532 23.717 26.8821 23.6918C26.9109 23.6667 27.1996 23.5777 27.5236 23.4941C30.4896 22.7292 32.5608 21.3173 33.5044 19.4172C33.9894 18.4404 34.2294 17.0003 34.1019 15.8309C33.9362 14.311 33.4342 13.2286 32.4325 12.2306C30.7148 10.5193 27.9384 9.60005 23.76 9.35908C22.6273 9.29375 15.0129 9.27645 14.76 9.33861Z" fill="#F2F2F2"/>
<path d="M65.7939 7.19824H68.9844C70.7103 7.19824 71.9528 7.35938 72.7119 7.68164C73.4782 7.99674 74.0798 8.51237 74.5166 9.22852C74.9606 9.9375 75.1826 10.7897 75.1826 11.7852C75.1826 12.888 74.8926 13.8047 74.3125 14.5352C73.7396 15.2656 72.959 15.7741 71.9707 16.0605C71.3906 16.2253 70.3343 16.3076 68.8018 16.3076V23H65.7939V7.19824ZM68.8018 13.375H69.7578C70.5098 13.375 71.0326 13.3213 71.3262 13.2139C71.6198 13.1064 71.849 12.931 72.0137 12.6875C72.1855 12.4368 72.2715 12.1361 72.2715 11.7852C72.2715 11.1764 72.0352 10.7324 71.5625 10.4531C71.2188 10.2454 70.5814 10.1416 69.6504 10.1416H68.8018V13.375ZM86.8512 11.3125H89.773V23H86.8512V21.7646C86.2783 22.3089 85.7018 22.7028 85.1217 22.9463C84.5488 23.1826 83.9257 23.3008 83.2525 23.3008C81.7415 23.3008 80.4345 22.7171 79.3316 21.5498C78.2288 20.3753 77.6773 18.918 77.6773 17.1777C77.6773 15.373 78.2109 13.8942 79.2779 12.7412C80.345 11.5882 81.6412 11.0117 83.1666 11.0117C83.8684 11.0117 84.5273 11.1442 85.1432 11.4092C85.759 11.6742 86.3284 12.0716 86.8512 12.6016V11.3125ZM83.7682 13.7188C82.8587 13.7188 82.1031 14.041 81.5016 14.6855C80.9 15.3229 80.5992 16.1429 80.5992 17.1455C80.5992 18.1553 80.9036 18.986 81.5123 19.6377C82.1282 20.2894 82.8837 20.6152 83.7789 20.6152C84.7027 20.6152 85.469 20.2965 86.0777 19.6592C86.6865 19.0146 86.9908 18.1732 86.9908 17.1348C86.9908 16.1178 86.6865 15.2943 86.0777 14.6641C85.469 14.0339 84.6992 13.7188 83.7682 13.7188ZM104.578 13.6758L102.14 15.0186C101.682 14.5387 101.227 14.2057 100.776 14.0195C100.332 13.8333 99.8088 13.7402 99.2072 13.7402C98.1115 13.7402 97.2235 14.0697 96.5432 14.7285C95.87 15.3802 95.5334 16.2181 95.5334 17.2422C95.5334 18.2376 95.8592 19.0505 96.5109 19.6807C97.1626 20.3109 98.0184 20.626 99.0783 20.626C100.389 20.626 101.409 20.1784 102.14 19.2832L104.449 20.8623C103.196 22.488 101.427 23.3008 99.1428 23.3008C97.0874 23.3008 95.4761 22.6921 94.3088 21.4746C93.1486 20.2572 92.5686 18.832 92.5686 17.1992C92.5686 16.0677 92.8514 15.0257 93.4172 14.0732C93.9829 13.1208 94.7707 12.3724 95.7805 11.8281C96.7974 11.2839 97.9325 11.0117 99.1857 11.0117C100.346 11.0117 101.388 11.2445 102.312 11.71C103.236 12.1683 103.991 12.8236 104.578 13.6758ZM110.564 23H107.621V11.3125H117.869V23H114.926V14.1377H110.564V23ZM132.954 18.0049H123.533C123.669 18.8356 124.03 19.498 124.618 19.9922C125.212 20.4792 125.968 20.7227 126.884 20.7227C127.98 20.7227 128.922 20.3395 129.709 19.5732L132.18 20.7334C131.564 21.6071 130.827 22.2552 129.967 22.6777C129.108 23.0931 128.087 23.3008 126.906 23.3008C125.072 23.3008 123.579 22.7243 122.426 21.5713C121.273 20.4111 120.697 18.9609 120.697 17.2207C120.697 15.4375 121.27 13.9587 122.415 12.7842C123.568 11.6025 125.011 11.0117 126.745 11.0117C128.585 11.0117 130.082 11.6025 131.235 12.7842C132.388 13.9587 132.964 15.5127 132.964 17.4463L132.954 18.0049ZM130.01 15.6953C129.817 15.0436 129.434 14.5137 128.861 14.1055C128.295 13.6973 127.636 13.4932 126.884 13.4932C126.068 13.4932 125.352 13.7223 124.736 14.1807C124.349 14.4671 123.991 14.972 123.662 15.6953H130.01ZM142.076 18.3594H139.724C138.134 18.3594 136.909 18.055 136.05 17.4463C135.198 16.8304 134.771 15.8206 134.771 14.417V11.3125H137.715V14.1914C137.715 15.2155 138.399 15.7275 139.767 15.7275L140.905 15.7168H142.076V11.3125H145.02V23H142.076V18.3594ZM157.021 11.3125H159.943V23H157.021V21.7646C156.448 22.3089 155.872 22.7028 155.292 22.9463C154.719 23.1826 154.096 23.3008 153.422 23.3008C151.911 23.3008 150.604 22.7171 149.502 21.5498C148.399 20.3753 147.847 18.918 147.847 17.1777C147.847 15.373 148.381 13.8942 149.448 12.7412C150.515 11.5882 151.811 11.0117 153.337 11.0117C154.038 11.0117 154.697 11.1442 155.313 11.4092C155.929 11.6742 156.498 12.0716 157.021 12.6016V11.3125ZM153.938 13.7188C153.029 13.7188 152.273 14.041 151.671 14.6855C151.07 15.3229 150.769 16.1429 150.769 17.1455C150.769 18.1553 151.074 18.986 151.682 19.6377C152.298 20.2894 153.054 20.6152 153.949 20.6152C154.873 20.6152 155.639 20.2965 156.248 19.6592C156.856 19.0146 157.161 18.1732 157.161 17.1348C157.161 16.1178 156.856 15.2943 156.248 14.6641C155.639 14.0339 154.869 13.7188 153.938 13.7188ZM162.266 11.3125H173.158V14.1055H169.28V23H166.337V14.1055H162.266V11.3125ZM180.971 11.0117C182.073 11.0117 183.108 11.2874 184.075 11.8389C185.049 12.3903 185.808 13.1387 186.352 14.084C186.897 15.0293 187.169 16.0498 187.169 17.1455C187.169 18.2484 186.893 19.2796 186.342 20.2393C185.797 21.1989 185.053 21.9508 184.107 22.4951C183.162 23.0322 182.12 23.3008 180.981 23.3008C179.305 23.3008 177.873 22.7064 176.684 21.5176C175.503 20.3216 174.912 18.8714 174.912 17.167C174.912 15.3408 175.582 13.819 176.921 12.6016C178.095 11.5417 179.445 11.0117 180.971 11.0117ZM181.013 13.7725C180.104 13.7725 179.345 14.0911 178.736 14.7285C178.135 15.3587 177.834 16.168 177.834 17.1562C177.834 18.1732 178.131 18.9967 178.725 19.627C179.327 20.2572 180.086 20.5723 181.003 20.5723C181.919 20.5723 182.682 20.2536 183.291 19.6162C183.9 18.9788 184.204 18.1589 184.204 17.1562C184.204 16.1536 183.903 15.3408 183.302 14.7178C182.707 14.0876 181.944 13.7725 181.013 13.7725ZM192.886 11.3125V12.6016C193.416 12.0716 193.989 11.6742 194.605 11.4092C195.221 11.1442 195.88 11.0117 196.581 11.0117C198.107 11.0117 199.403 11.5882 200.47 12.7412C201.537 13.8942 202.071 15.373 202.071 17.1777C202.071 18.918 201.519 20.3753 200.416 21.5498C199.314 22.7171 198.007 23.3008 196.496 23.3008C195.822 23.3008 195.196 23.1826 194.616 22.9463C194.036 22.7028 193.459 22.3089 192.886 21.7646V27.2754H189.975V11.3125H192.886ZM195.969 13.7188C195.045 13.7188 194.279 14.0339 193.67 14.6641C193.062 15.2943 192.757 16.1178 192.757 17.1348C192.757 18.1732 193.062 19.0146 193.67 19.6592C194.279 20.2965 195.045 20.6152 195.969 20.6152C196.864 20.6152 197.616 20.2894 198.225 19.6377C198.841 18.986 199.149 18.1553 199.149 17.1455C199.149 16.1429 198.848 15.3229 198.246 14.6855C197.645 14.041 196.886 13.7188 195.969 13.7188Z" fill="#F2F2F2"/>
<path d="M65.043 44V35.3809H69.3613V36.2305H65.8926V38.9844H66.2969C67.3711 38.9844 68.1504 39.0801 68.6348 39.2715C69.123 39.459 69.5059 39.7578 69.7832 40.168C70.0645 40.5742 70.2051 41.0273 70.2051 41.5273C70.2051 42.1836 69.959 42.7598 69.4668 43.2559C68.9746 43.752 68.2891 44 67.4102 44H65.043ZM65.8926 39.8516V43.1562H66.9531C67.582 43.1562 68.043 43.0957 68.3359 42.9746C68.6289 42.8496 68.8613 42.6602 69.0332 42.4062C69.209 42.1484 69.2969 41.8613 69.2969 41.5449C69.2969 41.1465 69.1738 40.8086 68.9277 40.5312C68.6816 40.2539 68.375 40.0723 68.0078 39.9863C67.6406 39.8965 67.0957 39.8516 66.373 39.8516H65.8926ZM75.2105 37.4609C76.191 37.4609 77.0035 37.8164 77.648 38.5273C78.234 39.1758 78.527 39.9434 78.527 40.8301C78.527 41.7207 78.2164 42.5 77.5953 43.168C76.9781 43.832 76.1832 44.1641 75.2105 44.1641C74.234 44.1641 73.4352 43.832 72.8141 43.168C72.1969 42.5 71.8883 41.7207 71.8883 40.8301C71.8883 39.9473 72.1813 39.1816 72.7672 38.5332C73.4117 37.8184 74.2262 37.4609 75.2105 37.4609ZM75.2105 38.2637C74.5309 38.2637 73.9469 38.5156 73.4586 39.0195C72.9703 39.5234 72.7262 40.1328 72.7262 40.8477C72.7262 41.3086 72.8375 41.7383 73.0602 42.1367C73.2828 42.5352 73.5836 42.8438 73.9625 43.0625C74.3414 43.2773 74.7574 43.3848 75.2105 43.3848C75.6637 43.3848 76.0797 43.2773 76.4586 43.0625C76.8375 42.8438 77.1383 42.5352 77.3609 42.1367C77.5836 41.7383 77.6949 41.3086 77.6949 40.8477C77.6949 40.1328 77.4488 39.5234 76.9566 39.0195C76.4684 38.5156 75.8863 38.2637 75.2105 38.2637ZM85.8527 44H84.9797L82.8469 39.3594L80.7316 44H79.8527L82.7707 37.625H82.9172L85.8527 44ZM88.327 40.1504H89.1063C89.7273 40.1504 90.2137 40.1992 90.5652 40.2969C90.9168 40.3945 91.2195 40.6113 91.4734 40.9473C91.7273 41.2793 91.8543 41.6621 91.8543 42.0957C91.8543 42.6191 91.6707 43.0684 91.3035 43.4434C90.9363 43.8145 90.3797 44 89.6336 44H87.5125V37.625H88.327V40.1504ZM88.3563 40.9004V43.3086H89.2996C90.409 43.3086 90.9637 42.918 90.9637 42.1367C90.9637 41.9141 90.9031 41.6953 90.782 41.4805C90.6648 41.2656 90.491 41.1152 90.2605 41.0293C90.034 40.9434 89.6316 40.9004 89.0535 40.9004H88.3563ZM103.1 44H93.5727V37.625H94.3988V43.2266H97.9086V37.625H98.7465V43.2266H102.262V37.625H103.1V44ZM110.695 41.8848L111.387 42.248C111.16 42.6934 110.898 43.0527 110.602 43.3262C110.305 43.5996 109.971 43.8086 109.6 43.9531C109.229 44.0938 108.809 44.1641 108.34 44.1641C107.301 44.1641 106.488 43.8242 105.902 43.1445C105.316 42.4609 105.023 41.6895 105.023 40.8301C105.023 40.0215 105.271 39.3008 105.768 38.668C106.396 37.8633 107.238 37.4609 108.293 37.4609C109.379 37.4609 110.246 37.873 110.895 38.6973C111.355 39.2793 111.59 40.0059 111.598 40.877H105.867C105.883 41.6191 106.119 42.2285 106.576 42.7051C107.033 43.1777 107.598 43.4141 108.27 43.4141C108.594 43.4141 108.908 43.3574 109.213 43.2441C109.521 43.1309 109.783 42.9805 109.998 42.793C110.213 42.6055 110.445 42.3027 110.695 41.8848ZM110.695 40.168C110.586 39.7305 110.426 39.3809 110.215 39.1191C110.008 38.8574 109.732 38.6465 109.389 38.4863C109.045 38.3262 108.684 38.2461 108.305 38.2461C107.68 38.2461 107.143 38.4473 106.693 38.8496C106.365 39.1426 106.117 39.582 105.949 40.168H110.695ZM120.114 41.123H118.673C118.021 41.123 117.536 40.9551 117.22 40.6191C116.907 40.2832 116.751 39.8164 116.751 39.2188V37.625H117.554V38.7793C117.554 39.5215 117.659 39.9824 117.87 40.1621C118.081 40.3379 118.429 40.4258 118.913 40.4258H120.114V37.625H120.929V44H120.114V41.123ZM128.524 41.8848L129.216 42.248C128.989 42.6934 128.727 43.0527 128.43 43.3262C128.134 43.5996 127.8 43.8086 127.429 43.9531C127.057 44.0938 126.638 44.1641 126.169 44.1641C125.13 44.1641 124.317 43.8242 123.731 43.1445C123.145 42.4609 122.852 41.6895 122.852 40.8301C122.852 40.0215 123.1 39.3008 123.596 38.668C124.225 37.8633 125.067 37.4609 126.122 37.4609C127.208 37.4609 128.075 37.873 128.723 38.6973C129.184 39.2793 129.419 40.0059 129.427 40.877H123.696C123.712 41.6191 123.948 42.2285 124.405 42.7051C124.862 43.1777 125.427 43.4141 126.098 43.4141C126.423 43.4141 126.737 43.3574 127.042 43.2441C127.35 43.1309 127.612 42.9805 127.827 42.793C128.042 42.6055 128.274 42.3027 128.524 41.8848ZM128.524 40.168C128.415 39.7305 128.255 39.3809 128.044 39.1191C127.837 38.8574 127.561 38.6465 127.218 38.4863C126.874 38.3262 126.513 38.2461 126.134 38.2461C125.509 38.2461 124.971 38.4473 124.522 38.8496C124.194 39.1426 123.946 39.582 123.778 40.168H128.524ZM138.282 37.625H138.516L140.678 44H139.823L138.246 39.3066L135.797 44H135.645L133.19 39.3066L131.62 44H130.764L132.938 37.625H133.161L135.727 42.6113L138.282 37.625ZM146.037 37.625H151.386V44H150.566V38.3984H146.857V44H146.037V37.625ZM153.632 37.625H154.446V38.7969C154.771 38.3516 155.144 38.0176 155.566 37.7949C155.988 37.5723 156.458 37.4609 156.978 37.4609C157.884 37.4609 158.659 37.7871 159.304 38.4395C159.948 39.0918 160.271 39.877 160.271 40.7949C160.271 41.7324 159.95 42.5293 159.31 43.1855C158.673 43.8379 157.904 44.1641 157.001 44.1641C156.493 44.1641 156.027 44.0586 155.601 43.8477C155.175 43.6367 154.79 43.3223 154.446 42.9043V46.332H153.632V37.625ZM156.913 38.252C156.202 38.252 155.603 38.5 155.114 38.9961C154.63 39.4922 154.388 40.1094 154.388 40.8477C154.388 41.332 154.495 41.7676 154.71 42.1543C154.929 42.541 155.239 42.8477 155.642 43.0742C156.048 43.3008 156.476 43.4141 156.925 43.4141C157.366 43.4141 157.78 43.3008 158.167 43.0742C158.558 42.8438 158.868 42.5234 159.099 42.1133C159.329 41.7031 159.445 41.2734 159.445 40.8242C159.445 40.3711 159.329 39.9414 159.099 39.5352C158.872 39.1289 158.566 38.8145 158.179 38.5918C157.792 38.3652 157.37 38.252 156.913 38.252ZM165.229 37.4609C166.21 37.4609 167.022 37.8164 167.667 38.5273C168.253 39.1758 168.546 39.9434 168.546 40.8301C168.546 41.7207 168.235 42.5 167.614 43.168C166.997 43.832 166.202 44.1641 165.229 44.1641C164.253 44.1641 163.454 43.832 162.833 43.168C162.216 42.5 161.907 41.7207 161.907 40.8301C161.907 39.9473 162.2 39.1816 162.786 38.5332C163.43 37.8184 164.245 37.4609 165.229 37.4609ZM165.229 38.2637C164.55 38.2637 163.966 38.5156 163.477 39.0195C162.989 39.5234 162.745 40.1328 162.745 40.8477C162.745 41.3086 162.856 41.7383 163.079 42.1367C163.302 42.5352 163.602 42.8438 163.981 43.0625C164.36 43.2773 164.776 43.3848 165.229 43.3848C165.682 43.3848 166.098 43.2773 166.477 43.0625C166.856 42.8438 167.157 42.5352 167.38 42.1367C167.602 41.7383 167.714 41.3086 167.714 40.8477C167.714 40.1328 167.468 39.5234 166.975 39.0195C166.487 38.5156 165.905 38.2637 165.229 38.2637ZM176.662 38.9492L176.012 39.3535C175.45 38.6074 174.682 38.2344 173.709 38.2344C172.932 38.2344 172.286 38.4844 171.77 38.9844C171.258 39.4844 171.002 40.0918 171.002 40.8066C171.002 41.2715 171.12 41.709 171.354 42.1191C171.592 42.5293 171.916 42.8477 172.327 43.0742C172.741 43.3008 173.204 43.4141 173.715 43.4141C174.653 43.4141 175.418 43.041 176.012 42.2949L176.662 42.7227C176.358 43.1797 175.948 43.5352 175.432 43.7891C174.92 44.0391 174.336 44.1641 173.68 44.1641C172.672 44.1641 171.836 43.8438 171.172 43.2031C170.508 42.5625 170.176 41.7832 170.176 40.8652C170.176 40.248 170.33 39.6758 170.639 39.1484C170.952 38.6172 171.379 38.2031 171.922 37.9062C172.465 37.6094 173.073 37.4609 173.745 37.4609C174.166 37.4609 174.573 37.5254 174.963 37.6543C175.358 37.7832 175.692 37.9512 175.965 38.1582C176.239 38.3652 176.471 38.6289 176.662 38.9492ZM177.93 37.625H182.125V38.334H180.438V44H179.611V38.334H177.93V37.625ZM186.656 37.4609C187.636 37.4609 188.449 37.8164 189.093 38.5273C189.679 39.1758 189.972 39.9434 189.972 40.8301C189.972 41.7207 189.662 42.5 189.041 43.168C188.423 43.832 187.629 44.1641 186.656 44.1641C185.679 44.1641 184.88 43.832 184.259 43.168C183.642 42.5 183.334 41.7207 183.334 40.8301C183.334 39.9473 183.627 39.1816 184.213 38.5332C184.857 37.8184 185.671 37.4609 186.656 37.4609ZM186.656 38.2637C185.976 38.2637 185.392 38.5156 184.904 39.0195C184.416 39.5234 184.171 40.1328 184.171 40.8477C184.171 41.3086 184.283 41.7383 184.505 42.1367C184.728 42.5352 185.029 42.8438 185.408 43.0625C185.787 43.2773 186.203 43.3848 186.656 43.3848C187.109 43.3848 187.525 43.2773 187.904 43.0625C188.283 42.8438 188.584 42.5352 188.806 42.1367C189.029 41.7383 189.14 41.3086 189.14 40.8477C189.14 40.1328 188.894 39.5234 188.402 39.0195C187.914 38.5156 187.332 38.2637 186.656 38.2637ZM195.63 37.625H196.456V40.3086L199.403 37.625H200.546L197.317 40.543L200.804 44H199.643L196.714 41.0527L196.456 41.2812V44H195.63V37.625ZM205.071 37.4609C206.051 37.4609 206.864 37.8164 207.508 38.5273C208.094 39.1758 208.387 39.9434 208.387 40.8301C208.387 41.7207 208.077 42.5 207.455 43.168C206.838 43.832 206.043 44.1641 205.071 44.1641C204.094 44.1641 203.295 43.832 202.674 43.168C202.057 42.5 201.748 41.7207 201.748 40.8301C201.748 39.9473 202.041 39.1816 202.627 38.5332C203.272 37.8184 204.086 37.4609 205.071 37.4609ZM205.071 38.2637C204.391 38.2637 203.807 38.5156 203.319 39.0195C202.83 39.5234 202.586 40.1328 202.586 40.8477C202.586 41.3086 202.698 41.7383 202.92 42.1367C203.143 42.5352 203.444 42.8438 203.823 43.0625C204.202 43.2773 204.618 43.3848 205.071 43.3848C205.524 43.3848 205.94 43.2773 206.319 43.0625C206.698 42.8438 206.998 42.5352 207.221 42.1367C207.444 41.7383 207.555 41.3086 207.555 40.8477C207.555 40.1328 207.309 39.5234 206.817 39.0195C206.329 38.5156 205.746 38.2637 205.071 38.2637ZM210.316 37.625H215.666V44H214.846V38.3984H211.137V44H210.316V37.625ZM218.72 37.625V42.3418L223.402 37.625H223.466V44H222.646V39.3242L218 44H217.9V37.625H218.72ZM231.654 44H225.695V37.625H226.521V43.2266H230.224V37.625H231.05V43.2266H232.427V45.0078H231.654V44ZM239.302 41.8848L239.993 42.248C239.766 42.6934 239.505 43.0527 239.208 43.3262C238.911 43.5996 238.577 43.8086 238.206 43.9531C237.835 44.0938 237.415 44.1641 236.946 44.1641C235.907 44.1641 235.095 43.8242 234.509 43.1445C233.923 42.4609 233.63 41.6895 233.63 40.8301C233.63 40.0215 233.878 39.3008 234.374 38.668C235.003 37.8633 235.845 37.4609 236.899 37.4609C237.985 37.4609 238.852 37.873 239.501 38.6973C239.962 39.2793 240.196 40.0059 240.204 40.877H234.473C234.489 41.6191 234.725 42.2285 235.182 42.7051C235.639 43.1777 236.204 43.4141 236.876 43.4141C237.2 43.4141 237.514 43.3574 237.819 43.2441C238.128 43.1309 238.389 42.9805 238.604 42.793C238.819 42.6055 239.052 42.3027 239.302 41.8848ZM239.302 40.168C239.192 39.7305 239.032 39.3809 238.821 39.1191C238.614 38.8574 238.339 38.6465 237.995 38.4863C237.651 38.3262 237.29 38.2461 236.911 38.2461C236.286 38.2461 235.749 38.4473 235.3 38.8496C234.971 39.1426 234.723 39.582 234.555 40.168H239.302ZM246.668 40.9297H242.965V44H242.139V37.625H242.965V40.1562H246.668V37.625H247.489V44H246.668V40.9297ZM249.008 37.625H253.203V38.334H251.516V44H250.689V38.334H249.008V37.625ZM254.728 37.625H255.543V38.7969C255.867 38.3516 256.24 38.0176 256.662 37.7949C257.084 37.5723 257.554 37.4609 258.074 37.4609C258.98 37.4609 259.755 37.7871 260.4 38.4395C261.045 39.0918 261.367 39.877 261.367 40.7949C261.367 41.7324 261.046 42.5293 260.406 43.1855C259.769 43.8379 259 44.1641 258.097 44.1641C257.589 44.1641 257.123 44.0586 256.697 43.8477C256.271 43.6367 255.886 43.3223 255.543 42.9043V46.332H254.728V37.625ZM258.009 38.252C257.298 38.252 256.699 38.5 256.211 38.9961C255.726 39.4922 255.484 40.1094 255.484 40.8477C255.484 41.332 255.591 41.7676 255.806 42.1543C256.025 42.541 256.336 42.8477 256.738 43.0742C257.144 43.3008 257.572 43.4141 258.021 43.4141C258.462 43.4141 258.877 43.3008 259.263 43.0742C259.654 42.8438 259.964 42.5234 260.195 42.1133C260.425 41.7031 260.541 41.2734 260.541 40.8242C260.541 40.3711 260.425 39.9414 260.195 39.5352C259.968 39.1289 259.662 38.8145 259.275 38.5918C258.888 38.3652 258.466 38.252 258.009 38.252Z" fill="#B3B3B3"/>
</svg>
