<svg width="105" height="24" viewBox="0 0 105 24" fill="none" xmlns="http://www.w3.org/2000/svg">
<path d="M2.81034 19.1717C2.68328 19.2141 2.51387 19.2564 2.3021 19.2988C2.09034 19.3411 1.86445 19.3553 1.61034 19.3553C1.11622 19.3553 0.763277 19.2564 0.551513 19.087C0.339748 18.9035 0.226807 18.5929 0.226807 18.1694V5.84466C0.226807 5.57643 0.297395 5.36466 0.452689 5.20937C0.607983 5.05408 0.819748 4.94113 1.08798 4.85643C1.5821 4.68702 2.17504 4.55996 2.85269 4.50349C3.53034 4.44702 4.2221 4.40466 4.89975 4.40466C6.97504 4.40466 8.51387 4.82819 9.51622 5.66113C10.5327 6.49407 11.0268 7.66584 11.0268 9.17643C11.0268 10.2211 10.7586 11.1247 10.208 11.8588C9.65739 12.5929 8.88093 13.1576 7.85034 13.5247C8.23151 14.0047 8.61269 14.4705 8.96563 14.9505C9.33269 15.4164 9.67151 15.8682 10.0103 16.2917C10.335 16.7153 10.6315 17.0964 10.8997 17.4353C11.168 17.7741 11.3797 18.0564 11.535 18.2823C11.4503 18.6494 11.2809 18.9317 11.0127 19.1153C10.7445 19.3129 10.448 19.3976 10.1233 19.3976C9.7421 19.3976 9.44563 19.2988 9.21975 19.1294C8.99387 18.9458 8.76798 18.6917 8.55622 18.3811L5.47857 13.9482H2.81034V19.1717ZM5.09739 11.887C6.12798 11.887 6.94681 11.6611 7.55387 11.2235C8.16092 10.7717 8.4574 10.1082 8.4574 9.19055C8.4574 8.30113 8.14681 7.6376 7.53975 7.18584C6.93269 6.73408 6.02916 6.52231 4.82916 6.52231C4.4621 6.52231 4.09504 6.53643 3.7421 6.56466C3.38916 6.5929 3.06445 6.63525 2.7821 6.6776V11.887H5.09739Z" fill="#FF8C00"/>
<path d="M15.3327 14.8941C15.5586 15.7977 15.9962 16.4753 16.6315 16.913C17.2809 17.3506 18.0997 17.5765 19.1021 17.5765C19.7656 17.5765 20.3868 17.4777 20.9374 17.2659C21.488 17.0541 21.9397 16.8424 22.2786 16.6024C22.7303 16.8565 22.9421 17.2094 22.9421 17.6753C22.9421 17.9435 22.8433 18.1977 22.6315 18.4235C22.4197 18.6494 22.1374 18.8471 21.7844 19.0165C21.4315 19.1859 21.008 19.313 20.5139 19.4118C20.0339 19.5106 19.5115 19.553 18.9468 19.553C18.0292 19.553 17.1821 19.4259 16.4339 19.1718C15.6715 18.9177 15.0221 18.5365 14.4856 18.0283C13.9492 17.52 13.5256 16.8847 13.2292 16.1365C12.9327 15.3883 12.7915 14.5271 12.7915 13.5388C12.7915 12.5788 12.9327 11.7459 13.215 11.0259C13.4974 10.3059 13.8927 9.69884 14.3868 9.20472C14.8809 8.72472 15.4597 8.34355 16.1233 8.08943C16.7868 7.83531 17.5068 7.70825 18.2692 7.70825C19.0315 7.70825 19.7233 7.83531 20.3586 8.07531C20.9939 8.31531 21.5303 8.66825 21.9821 9.1059C22.4339 9.54355 22.7868 10.0659 23.0268 10.673C23.2668 11.28 23.3939 11.9435 23.3939 12.6494C23.3939 13.0447 23.295 13.3412 23.1115 13.5247C22.9139 13.7083 22.6456 13.8353 22.2786 13.8918L15.3327 14.8941ZM18.2833 9.64237C17.408 9.64237 16.6739 9.93884 16.095 10.5318C15.5162 11.1247 15.2056 11.9577 15.1774 13.0588L21.0503 12.2259C20.9797 11.5059 20.7256 10.8988 20.2597 10.4047C19.808 9.89649 19.1444 9.64237 18.2833 9.64237Z" fill="#FF8C00"/>
<path d="M30.5797 19.553C30.0715 19.553 29.5915 19.4965 29.1538 19.3977C28.7021 19.2988 28.3209 19.1577 28.0103 19.0024V23.4918C27.8974 23.5341 27.7421 23.5765 27.5444 23.6188C27.3468 23.6612 27.1209 23.6753 26.8809 23.6753C26.415 23.6753 26.0762 23.5906 25.8503 23.4071C25.6244 23.2377 25.5115 22.9271 25.5115 22.5035V10.1647C25.5115 9.81178 25.5679 9.52943 25.7091 9.31766C25.8362 9.1059 26.0762 8.89413 26.4291 8.68237C26.8809 8.42825 27.4174 8.20237 28.0668 8.00472C28.7162 7.80708 29.4362 7.70825 30.255 7.70825C31.0879 7.70825 31.8503 7.82119 32.5703 8.06119C33.2903 8.28708 33.9115 8.64002 34.4338 9.12002C34.9562 9.60002 35.3797 10.2071 35.6762 10.9412C35.9727 11.6753 36.1279 12.5647 36.1279 13.5812C36.1279 14.5835 35.9868 15.4588 35.7044 16.193C35.4221 16.9271 35.0409 17.5483 34.5609 18.0565C34.0809 18.5647 33.4879 18.9318 32.8244 19.1718C32.1326 19.4259 31.3985 19.553 30.5797 19.553ZM30.1985 17.52C31.2291 17.52 32.0479 17.2094 32.655 16.5741C33.2621 15.9388 33.5585 14.9506 33.5585 13.5812C33.5585 12.8753 33.4738 12.2824 33.2903 11.7883C33.1209 11.2941 32.8809 10.8988 32.5844 10.5883C32.2879 10.2777 31.935 10.0518 31.5397 9.92472C31.1303 9.78355 30.7068 9.72708 30.2409 9.72708C29.7327 9.72708 29.295 9.78355 28.9421 9.9106C28.5891 10.0235 28.2644 10.1647 27.9962 10.3341V16.8988C28.2644 17.0965 28.5891 17.2518 28.9562 17.3647C29.3232 17.4635 29.7327 17.52 30.1985 17.52Z" fill="#FF8C00"/>
<path d="M49.1162 13.6377C49.1162 14.5412 48.975 15.36 48.7068 16.0941C48.4385 16.8283 48.0574 17.4494 47.5774 17.9577C47.0974 18.4659 46.5044 18.8612 45.7985 19.1435C45.0926 19.4259 44.3162 19.5671 43.455 19.5671C42.5938 19.5671 41.8174 19.4259 41.1115 19.1435C40.4056 18.8612 39.8126 18.4659 39.3326 17.9577C38.8526 17.4494 38.4715 16.8283 38.2032 16.0941C37.935 15.36 37.7938 14.5412 37.7938 13.6377C37.7938 12.7341 37.935 11.9153 38.2032 11.1812C38.4715 10.4471 38.8526 9.8259 39.3468 9.31766C39.8409 8.80943 40.4338 8.41413 41.1397 8.13178C41.8456 7.84943 42.6079 7.70825 43.455 7.70825C44.3021 7.70825 45.0644 7.84943 45.7703 8.13178C46.4762 8.41413 47.0691 8.80943 47.5632 9.33178C48.0574 9.85413 48.4385 10.4753 48.7068 11.1953C48.9891 11.9153 49.1162 12.72 49.1162 13.6377ZM43.455 9.71296C42.495 9.71296 41.7468 10.0518 41.1821 10.7435C40.6315 11.4212 40.3491 12.3953 40.3491 13.6377C40.3491 14.88 40.6174 15.84 41.1679 16.5177C41.7044 17.1953 42.4668 17.5341 43.455 17.5341C44.4432 17.5341 45.2056 17.1953 45.7421 16.5177C46.2785 15.84 46.5609 14.88 46.5609 13.6377C46.5609 12.4094 46.2926 11.4494 45.7421 10.7577C45.1915 10.0659 44.4291 9.71296 43.455 9.71296Z" fill="#FF8C00"/>
<path d="M64.6315 10.2071C64.2362 9.88236 63.7139 9.71295 63.0503 9.71295C62.5986 9.71295 62.175 9.79766 61.7797 9.96707C61.3703 10.1365 61.0033 10.3624 60.6644 10.6447C60.6927 10.7718 60.7209 10.913 60.735 11.0541C60.7492 11.1953 60.7633 11.3365 60.7633 11.4777V19.1718C60.6503 19.2141 60.495 19.2565 60.2833 19.2988C60.0715 19.3412 59.8597 19.3553 59.6339 19.3553C59.168 19.3553 58.8292 19.2706 58.6033 19.0871C58.3774 18.9177 58.2644 18.6212 58.2644 18.1977V11.7318C58.2644 11.0259 58.0668 10.5177 57.6715 10.193C57.2762 9.86825 56.7397 9.69883 56.0762 9.69883C55.6244 9.69883 55.215 9.76942 54.8056 9.9106C54.4103 10.0518 54.0715 10.2071 53.8033 10.3906V19.1577C53.6903 19.2 53.535 19.2424 53.3374 19.2847C53.1397 19.3271 52.9139 19.3412 52.6739 19.3412C52.208 19.3412 51.8692 19.2565 51.6433 19.073C51.4174 18.9035 51.3044 18.6071 51.3044 18.1835V10.3059C51.3044 9.93883 51.375 9.64236 51.5162 9.41648C51.6574 9.1906 51.8974 8.96472 52.2362 8.75295C52.7021 8.45648 53.2809 8.20236 53.9727 7.9906C54.6786 7.77883 55.3844 7.68001 56.1044 7.68001C56.8527 7.68001 57.5303 7.77883 58.1233 7.9906C58.7162 8.20236 59.2103 8.49883 59.5915 8.89413C60.0433 8.54119 60.5656 8.25883 61.1727 8.01883C61.7797 7.79295 62.4997 7.66589 63.3044 7.66589C63.9256 7.66589 64.5044 7.73648 65.0409 7.89178C65.5774 8.04707 66.0433 8.28707 66.4386 8.61178C66.8339 8.93648 67.1303 9.34589 67.3562 9.84001C67.5821 10.3341 67.695 10.9271 67.695 11.6047V19.1294C67.568 19.1718 67.3986 19.2141 67.2009 19.2565C67.0033 19.2988 66.7774 19.313 66.5374 19.313C66.0715 19.313 65.7327 19.2282 65.5068 19.0447C65.2809 18.8753 65.168 18.5788 65.168 18.1553V11.6894C65.2103 11.04 65.0127 10.5318 64.6315 10.2071Z" fill="#FF8C00"/>
<path d="M72.4527 14.8941C72.6786 15.7977 73.1162 16.4753 73.7515 16.913C74.4009 17.3506 75.2197 17.5765 76.2221 17.5765C76.8856 17.5765 77.5068 17.4777 78.0574 17.2659C78.608 17.0541 79.0597 16.8424 79.3986 16.6024C79.8503 16.8565 80.0621 17.2094 80.0621 17.6753C80.0621 17.9435 79.9633 18.1977 79.7515 18.4235C79.5397 18.6494 79.2574 18.8471 78.9044 19.0165C78.5515 19.1859 78.128 19.313 77.6338 19.4118C77.1538 19.5106 76.6315 19.553 76.0668 19.553C75.1491 19.553 74.3021 19.4259 73.5539 19.1718C72.7915 18.9177 72.1421 18.5365 71.6056 18.0283C71.0691 17.52 70.6456 16.8847 70.3491 16.1365C70.0527 15.3883 69.9115 14.5271 69.9115 13.5388C69.9115 12.5788 70.0527 11.7459 70.335 11.0259C70.6174 10.3059 71.0127 9.69884 71.5068 9.20472C72.0009 8.72472 72.5797 8.34355 73.2433 8.08943C73.9068 7.83531 74.6268 7.70825 75.3891 7.70825C76.1515 7.70825 76.8433 7.83531 77.4786 8.07531C78.1139 8.31531 78.6503 8.66825 79.1021 9.1059C79.5539 9.54355 79.9068 10.0659 80.1468 10.673C80.3868 11.28 80.5139 11.9435 80.5139 12.6494C80.5139 13.0447 80.415 13.3412 80.2315 13.5247C80.0339 13.7083 79.7656 13.8353 79.3986 13.8918L72.4527 14.8941ZM75.4174 9.64237C74.5421 9.64237 73.808 9.93884 73.2291 10.5318C72.6503 11.1247 72.3397 11.9577 72.3115 13.0588L78.1844 12.2259C78.1139 11.5059 77.8597 10.8988 77.3938 10.4047C76.9421 9.89649 76.2786 9.64237 75.4174 9.64237Z" fill="#FF8C00"/>
<path d="M85.5963 17.1671C85.9351 17.4071 86.401 17.52 87.008 17.52C87.2763 17.52 87.5586 17.4777 87.8692 17.4071C88.1657 17.3224 88.4339 17.2377 88.6598 17.1247C88.7727 17.2518 88.8716 17.3929 88.9563 17.5482C89.041 17.7035 89.0833 17.9012 89.0833 18.1271C89.0833 18.5365 88.8716 18.8894 88.448 19.1577C88.0245 19.4259 87.3892 19.5671 86.528 19.5671C85.328 19.5671 84.3821 19.2988 83.6763 18.7624C82.9704 18.2259 82.6174 17.3506 82.6174 16.1224V4.96942C82.7304 4.94118 82.8857 4.89883 83.0974 4.85648C83.3092 4.81412 83.521 4.78589 83.761 4.78589C84.2268 4.78589 84.5657 4.87059 84.7774 5.05412C84.9892 5.22354 85.1021 5.52001 85.1021 5.94354V8.30118H88.801C88.8574 8.40001 88.928 8.52707 88.9845 8.71059C89.041 8.88001 89.0692 9.06354 89.0692 9.26118C89.0692 9.93883 88.7727 10.2918 88.1798 10.2918H85.1021V15.9812C85.1021 16.5177 85.2574 16.9271 85.5963 17.1671Z" fill="#FF8C00"/>
<path d="M93.4598 19.1717C93.3468 19.2141 93.1915 19.2564 92.9939 19.2988C92.7962 19.3411 92.5704 19.3552 92.3304 19.3552C91.8645 19.3552 91.5256 19.2705 91.2998 19.087C91.0739 18.9176 90.9609 18.6211 90.9609 18.1976V10.3623C90.9609 9.96699 91.0456 9.64228 91.2009 9.38817C91.3562 9.14817 91.6103 8.90817 91.9633 8.68228C92.4292 8.39993 93.008 8.15993 93.728 7.96228C94.448 7.76464 95.2386 7.67993 96.0856 7.67993C97.4833 7.67993 98.1892 8.07523 98.1892 8.87993C98.1892 9.07758 98.1609 9.24699 98.0903 9.4164C98.0198 9.58581 97.9492 9.72699 97.8786 9.85405C97.7233 9.82581 97.5256 9.79758 97.2856 9.75523C97.0456 9.72699 96.7915 9.71287 96.5233 9.71287C95.888 9.71287 95.3092 9.78346 94.7868 9.91052C94.2645 10.0517 93.8127 10.2211 93.4456 10.4188V19.1717H93.4598Z" fill="#FF8C00"/>
<path d="M102.566 4.13647L103.342 4.54588C103.667 4.71529 104.062 4.43294 103.992 4.06588L103.836 3.19059C103.808 3.04941 103.864 2.89412 103.963 2.79529L104.599 2.17412C104.867 1.92 104.712 1.45412 104.344 1.41176L103.469 1.28471C103.328 1.25647 103.201 1.17176 103.13 1.04471L102.735 0.254118C102.566 -0.0847059 102.1 -0.0847059 101.93 0.254118L101.535 1.04471C101.464 1.17176 101.337 1.27059 101.196 1.28471L100.321 1.41176C99.9539 1.46824 99.7986 1.92 100.067 2.17412L100.702 2.79529C100.815 2.89412 100.857 3.04941 100.829 3.19059L100.674 4.06588C100.617 4.43294 100.999 4.71529 101.323 4.54588L102.1 4.13647C102.283 4.06588 102.439 4.06588 102.566 4.13647Z" fill="#FF8C00"/>
</svg>
