<svg width="48" height="48" viewBox="0 0 48 48" fill="none" xmlns="http://www.w3.org/2000/svg">
<path d="M48 24C48 37.2548 37.2548 48 24 48C10.7452 48 0 37.2548 0 24C0 10.7452 10.7452 0 24 0C37.2548 0 48 10.7452 48 24Z" fill="#F56200"/>
<path fill-rule="evenodd" clip-rule="evenodd" d="M14.76 9.33861C14.4573 9.41305 14.4 9.54298 14.4 10.155C14.4 10.6715 14.4172 10.7548 14.5586 10.9245C14.6458 11.0291 14.8594 11.1874 15.0331 11.2763C15.2069 11.3652 15.4742 11.5531 15.6272 11.6939C16.0988 12.1281 16.1018 12.1546 16.1018 15.8413V19.0648L16.2818 19.1086C16.5722 19.1793 17.347 19.5913 17.5222 19.768C18.1536 20.4052 18.3151 20.5261 18.4797 20.4844C18.7072 20.4267 18.7068 20.4279 18.9797 18.9021C19.0121 18.7205 19.0855 18.4084 19.1428 18.2085C19.2 18.0087 19.2753 17.6372 19.31 17.3829C19.403 16.7033 19.4354 16.5781 19.674 15.9798C19.925 15.3503 20.1554 14.9924 20.5778 14.5755C20.7435 14.412 20.8792 14.2371 20.8795 14.1868C20.8798 14.1365 21.1507 13.8168 21.4815 13.4764C22.1316 12.8074 22.1277 12.8094 23.1564 12.5961C23.4905 12.5268 23.8629 12.4083 23.9841 12.3328C24.2589 12.1613 24.7718 11.9804 25.6582 11.7422C26.0362 11.6406 26.6695 11.4299 27.0655 11.274C28.3439 10.7707 28.828 10.8301 29.5722 11.581L29.9288 11.9409L29.8834 12.3458C29.8369 12.7606 29.6973 13.1223 29.5838 13.1223C29.5487 13.1223 29.52 13.2058 29.52 13.3079C29.52 13.5751 29.3769 13.7463 29.194 13.698C29.0437 13.6583 28.8655 13.7735 28.8655 13.9103C28.8655 13.9492 28.8204 13.981 28.7652 13.981C28.7101 13.981 28.648 14.0256 28.6273 14.0801C28.6066 14.1346 28.5176 14.1792 28.4296 14.1792C28.3106 14.1792 28.252 14.23 28.2011 14.3774C28.1635 14.4863 28.1108 14.5755 28.0841 14.5755C28.0574 14.5755 28.002 14.6498 27.961 14.7407C27.92 14.8315 27.8416 14.9058 27.7868 14.9058C27.7321 14.9058 27.6873 14.9347 27.6873 14.9701C27.6873 15.0937 27.3039 15.2336 27.0019 15.2203C26.8349 15.213 26.6778 15.2387 26.6528 15.2774C26.6278 15.3161 26.5262 15.3678 26.4273 15.3923C26.3282 15.4167 26.2473 15.4734 26.2473 15.5183C26.2473 15.6243 25.8568 15.9955 25.7443 15.9964C25.6966 15.9968 25.4085 16.1602 25.1041 16.3597C24.5236 16.74 24.4741 16.8217 24.6083 17.1777C24.6679 17.3359 25.0962 17.614 25.2802 17.614C25.3272 17.614 25.4755 17.6735 25.6098 17.7462C25.7442 17.8188 25.8942 17.8783 25.9433 17.8783C26.0565 17.8783 26.5919 18.3028 26.638 18.4292C26.6918 18.5767 27.0971 19.0646 27.4533 19.4108C27.8464 19.7929 28.2472 19.992 28.6231 19.992C28.9814 19.992 29.1618 20.1156 29.1079 20.324C29.0616 20.5025 29.2089 20.6472 29.4402 20.6505C29.6084 20.6528 29.6982 20.8105 29.6018 20.9342C29.5667 20.9791 29.5187 21.0976 29.4951 21.1974C29.4452 21.4083 29.0955 21.6602 28.6853 21.7807C28.2854 21.8983 27.8053 21.7722 26.9673 21.3294C26.1566 20.901 25.7767 20.7595 24.9382 20.5737C23.9344 20.3513 23.8682 20.3508 23.4526 20.5629C23.0935 20.7461 22.5818 21.2825 22.5818 21.4755C22.5818 21.5219 22.3739 21.9084 22.1198 22.3342C21.8657 22.7601 21.6307 23.1727 21.5976 23.2512C21.5414 23.3846 21.4197 23.5838 20.9008 24.391C20.653 24.7765 20.2078 25.1746 19.2576 25.8603C18.3772 26.4957 17.7473 26.8309 17.136 26.9892C16.8732 27.0573 16.533 27.1637 16.38 27.2257C16.1328 27.3259 16.1018 27.3624 16.1018 27.5528V27.7672L16.6091 27.8182C16.8881 27.8462 17.6171 27.8752 18.2291 27.8827C18.851 27.8903 19.4632 27.9311 19.6171 27.9752C19.9121 28.0599 20.2909 28.3405 20.2909 28.4745C20.2909 28.5194 20.3683 28.6282 20.463 28.7163C20.6789 28.9172 20.8191 29.2412 20.7708 29.4275C20.7218 29.6164 20.6311 29.6072 20.407 29.3906C20.2697 29.2578 20.1243 29.1988 19.8471 29.1634C19.6412 29.1371 19.3188 29.0784 19.1308 29.0329C18.9427 28.9873 18.7686 28.9705 18.7439 28.9955C18.6778 29.0621 18.9092 29.296 19.2272 29.4841C19.3802 29.5746 19.5055 29.6984 19.5055 29.7591C19.5055 29.8199 19.5834 29.9854 19.6787 30.1269C20.005 30.6115 20.0972 31.2216 19.8581 31.3142C19.7477 31.3569 19.5994 31.2082 19.3778 30.8327C19.2826 30.6715 19.1683 30.5608 19.097 30.5608C18.8448 30.5608 18.47 30.3002 18.3158 30.0175C18.2174 29.8374 18.1087 29.7275 18.0154 29.714C17.836 29.6882 17.8347 29.7208 18.0002 30.0659C18.1005 30.2749 18.1392 30.5246 18.1647 31.1271C18.2009 31.9806 18.1383 32.2452 17.8999 32.2452C17.7968 32.2452 17.7529 32.1687 17.6812 31.8639C17.6266 31.6317 17.5214 31.4068 17.4122 31.2888C17.2668 31.1318 17.2265 31.0148 17.1992 30.6704C17.1806 30.4369 17.1177 30.1605 17.0595 30.0565C17.0013 29.9524 16.9263 29.7897 16.8928 29.6949C16.8445 29.5578 16.7747 29.5132 16.552 29.4773C16.398 29.4524 16.2336 29.4001 16.1869 29.3609C16.1173 29.3026 16.1018 29.7829 16.1018 31.994C16.1018 35.0965 16.0915 35.1752 15.6294 35.6223C15.4752 35.7715 15.1917 35.9781 14.9994 36.0814C14.4579 36.3722 14.4 36.4808 14.4 37.2045C14.4 37.7651 14.4128 37.8285 14.5455 37.9222C14.6737 38.0128 15.2214 38.0251 19.163 38.0251H23.635L23.7957 37.8629C23.9377 37.7196 23.9564 37.6433 23.9564 37.2055C23.9564 36.933 23.921 36.6318 23.8778 36.536C23.8288 36.4276 23.6074 36.2503 23.2906 36.0659C22.7585 35.7561 22.491 35.494 22.3428 35.1373C22.2713 34.9651 22.2545 33.9454 22.2545 29.7703V24.6159L22.5 24.6169C22.916 24.6185 23.5793 24.8088 23.9445 25.0313C24.3399 25.2722 24.695 25.7075 25.0066 26.3333C25.1243 26.5695 26.0841 29.197 27.1396 32.1723C28.1952 35.1476 29.111 37.6411 29.1749 37.7135C29.4417 38.0161 29.5415 38.0251 32.6525 38.0251C35.3555 38.0251 35.6041 38.0157 35.7336 37.9095C35.8646 37.8019 35.873 37.7433 35.8553 37.0675L35.8364 36.3413L35.3139 36.0587C34.663 35.7066 34.3442 35.3975 34.0996 34.8816C33.9947 34.6605 33.4037 32.9662 32.7863 31.1165C32.1689 29.2669 31.5818 27.5699 31.4817 27.3455C31.2218 26.7625 30.7739 26.0927 30.3671 25.6788C29.7488 25.0497 28.5512 24.354 27.3402 23.9204C27.0594 23.8199 26.8532 23.717 26.8821 23.6918C26.9109 23.6667 27.1996 23.5777 27.5236 23.4941C30.4896 22.7292 32.5608 21.3173 33.5044 19.4172C33.9894 18.4404 34.2294 17.0003 34.1019 15.8309C33.9362 14.311 33.4342 13.2286 32.4325 12.2306C30.7148 10.5193 27.9384 9.60005 23.76 9.35908C22.6273 9.29375 15.0129 9.27645 14.76 9.33861Z" fill="#F2F2F2"/>
</svg>
