<svg width="20" height="18" viewBox="0 0 20 18" fill="none" xmlns="http://www.w3.org/2000/svg">
<path fill-rule="evenodd" clip-rule="evenodd" d="M9.12503 3.64533C4.45003 5.62833 0.484531 7.44083 0.31253 7.67308C-0.0632195 8.18108 -0.0882196 8.86808 0.24628 9.49283C0.38153 9.74583 1.48578 10.3646 2.70003 10.8681L4.90778 11.7831L5.57403 13.8291C6.75103 17.4433 7.41528 17.7738 9.65503 15.8606L10.9888 14.7211L12.7345 16.3606C14.0418 17.5883 14.6593 18.0001 15.193 18.0001C16.0063 18.0001 16.9313 17.2493 17.1263 16.4306C17.607 14.4128 20 2.04283 20 1.57533C20 0.785826 19.143 -0.00417437 18.3125 0.0200756C17.9343 0.0310756 13.8 1.66233 9.12503 3.64533ZM10.269 5.41358C6.22303 7.11308 2.87153 8.54533 2.82078 8.59608C2.77003 8.64682 3.46903 8.98483 4.37428 9.34708L6.02028 10.0061L10.4015 7.47783C12.8113 6.08733 14.8543 5.02108 14.9415 5.10833C15.029 5.19583 13.7355 6.64158 12.0673 8.32108C9.24153 11.1661 9.00828 11.4751 8.65978 12.8351C8.24103 14.4698 8.09053 14.4741 10.0788 12.7931L11.0325 11.9868L13.0578 13.8686C14.1718 14.9033 15.1098 15.7221 15.142 15.6876C15.278 15.5431 17.7763 2.70683 17.704 2.52383C17.6605 2.41333 14.3148 3.71383 10.269 5.41358Z" fill="white"/>
</svg>
