<svg width="20" height="20" viewBox="0 0 20 20" fill="none" xmlns="http://www.w3.org/2000/svg">
<path fill-rule="evenodd" clip-rule="evenodd" d="M6.87495 0.509499C3.9922 1.4345 1.4042 4.053 0.495695 6.96375C-1.91755 14.6967 5.3032 21.9175 13.0362 19.5042C15.9912 18.5817 18.5817 15.9912 19.5042 13.0362C21.9249 5.27925 14.6129 -1.9735 6.87495 0.509499ZM4.13195 6.7385C3.7587 7.3425 5.21294 10.621 6.50894 12.0972C7.43794 13.1552 9.23195 14.0637 10.1777 13.955C10.8187 13.8815 10.8812 13.7792 10.9512 12.6875C10.9997 11.9292 11.1429 11.5 11.3472 11.5C11.5232 11.5 12.1997 12.0625 12.8507 12.75C13.8154 13.769 14.1899 14 14.8772 14C15.9832 14 16.1792 13.6175 15.5294 12.7262C15.2382 12.3267 14.7627 11.6745 14.4727 11.277L13.9457 10.5537L14.9944 8.78825C15.5714 7.81725 15.9707 6.905 15.8819 6.76125C15.7932 6.6175 15.3282 6.5 14.8484 6.5C14.1317 6.5 13.9009 6.638 13.5507 7.275C12.7427 8.74575 11.7457 10 11.3847 10C11.1119 10 11.0047 9.585 10.9489 8.3125L10.8749 6.625L9.40545 6.549C8.0667 6.48 7.95445 6.51325 8.1417 6.924C8.25495 7.172 8.39195 8.091 8.4462 8.96575C8.57845 11.0925 8.1652 10.9475 6.9197 8.4305C6.0112 6.594 5.9237 6.5 5.12195 6.5C4.6587 6.5 4.2132 6.60725 4.13195 6.7385Z" fill="white"/>
</svg>
