<svg width="20" height="21" viewBox="0 0 20 21" fill="none" xmlns="http://www.w3.org/2000/svg">
<path fill-rule="evenodd" clip-rule="evenodd" d="M6.89471 1.52569C4.09121 2.48994 2.22721 4.18844 0.900712 6.98819C0.199212 8.46819 0.125712 8.85219 0.133712 10.9999C0.140712 12.9402 0.249962 13.6167 0.730462 14.6957L1.31871 16.0164L0.666712 18.4322C0.307962 19.7609 0.0512117 20.8844 0.0957117 20.9289C0.140212 20.9734 1.31921 20.7332 2.71596 20.3952L5.25496 19.7802L6.43996 20.3214C7.38521 20.7532 8.10521 20.8639 9.99996 20.8689C12.1447 20.8744 12.5337 20.7997 14.0117 20.0992C16.8365 18.7607 18.5252 16.8937 19.4832 14.0497C22.0462 6.44169 14.482 -1.08356 6.89471 1.52569ZM5.51821 7.15869C4.46671 8.49519 5.07396 10.5314 7.20196 12.8064C8.56071 14.2589 9.92046 15.1037 11.5575 15.5119C12.9182 15.8512 13.8045 15.6954 14.5062 14.9937C15.388 14.1119 15.1517 13.4064 13.7552 12.7524L12.5102 12.1694L11.987 12.8347C11.6992 13.2004 11.3225 13.4999 11.1497 13.4999C10.5807 13.4999 8.63571 12.0359 8.05421 11.1697C7.49746 10.3407 7.49421 10.3004 7.92421 9.55094C8.35246 8.80519 8.34921 8.74894 7.81096 7.64119C7.14796 6.27644 6.34496 6.10744 5.51821 7.15869Z" fill="white"/>
</svg>
